<?xml version="1.0" encoding="UTF-8" standalone="no"?>
<!DOCTYPE svg PUBLIC "-//W3C//DTD SVG 1.1//EN" "http://www.w3.org/Graphics/SVG/1.1/DTD/svg11.dtd">
<svg width="100%" height="100%" viewBox="0 0 86 94" version="1.1" xmlns="http://www.w3.org/2000/svg" xmlns:xlink="http://www.w3.org/1999/xlink" xml:space="preserve" xmlns:serif="http://www.serif.com/" style="fill-rule:evenodd;clip-rule:evenodd;">
    <g transform="matrix(1,0,0,1,-171.81,-292.576)">
        <g transform="matrix(1,0,0,1,232.862,369.637)">
            <path d="M0,15.046C0.146,14.907 1.368,13.802 1.494,13.643C1.611,13.494 1.748,13.36 1.847,13.199C2.058,12.857 2.152,12.44 2.329,12.08C2.502,12.045 2.558,11.763 2.575,11.613C2.597,11.42 2.646,11.258 2.678,11.081C2.696,10.983 2.655,10.874 2.677,10.776C2.699,10.678 2.776,10.588 2.814,10.496C2.984,10.082 3.062,9.607 2.696,9.299C2.573,9.196 2.498,9.183 2.586,9.018C2.644,8.91 2.775,8.913 2.786,8.777C3.09,8.779 3.026,8.938 3.19,9.1C3.423,9.33 3.501,9.104 3.54,8.912C3.587,8.683 3.771,8.609 3.841,8.422C3.904,8.254 3.803,8.013 3.72,7.87C3.637,7.731 3.451,7.51 3.72,7.439C3.9,7.391 4.152,7.62 4.336,7.449C4.645,7.162 4.024,6.677 3.803,6.574C3.786,6.404 3.623,6.202 3.514,6.077C3.428,5.981 3.39,5.966 3.288,5.921C3.184,5.875 3.09,5.959 3.073,5.779C2.861,5.748 2.568,5.739 2.379,5.83C2.282,6.155 2.68,6.401 2.617,6.728C2.312,6.778 2.05,6.432 1.9,6.189C1.798,6.023 1.863,5.928 1.81,5.743C1.751,5.543 1.564,5.357 1.454,5.178C1.313,4.947 1.167,4.716 0.961,4.536C0.847,4.437 0.707,4.201 0.564,4.146C0.386,4.078 0.145,4.327 -0.007,4.136C-0.106,4.012 -0.007,3.599 -0.065,3.436C-0.13,3.253 -0.268,3.208 -0.428,3.112C-0.609,3.004 -0.731,2.87 -0.894,2.737C-1.007,2.643 -1.232,2.339 -1.383,2.375C-1.136,2.784 -0.717,3.173 -0.985,3.678C-1.085,3.864 -1.187,3.987 -1.237,4.197C-1.289,4.41 -1.338,4.65 -1.616,4.618C-1.876,4.588 -2.027,4.312 -1.872,4.098C-1.766,3.951 -1.495,3.941 -1.474,3.751C-1.455,3.573 -1.657,3.345 -1.649,3.132C-1.64,2.911 -2.978,0.231 -3.009,0" style="fill:none;fill-rule:nonzero;stroke:white;stroke-width:0.7px;"/>
        </g>
        <g transform="matrix(1,0,0,1,229.853,359.386)">
            <path d="M0,10.251C-0.029,9.988 -0.071,9.727 -0.107,9.465C-0.134,9.264 -0.221,9.031 -0.156,8.834C-0.02,8.43 0.201,8.224 0.098,7.775C0.049,7.559 -0.052,7.397 -0.11,7.183C-0.159,6.999 -0.362,6.812 -0.371,6.632C-0.574,6.608 -0.854,6.164 -0.867,5.981C-0.879,5.821 -0.803,5.594 -0.786,5.428C-0.761,5.168 -0.71,4.907 -0.651,4.653C-0.609,4.472 -0.474,4.285 -0.46,4.086C-0.453,3.971 -0.471,3.917 -0.526,3.825C-0.553,3.78 -0.635,3.768 -0.652,3.717C-0.669,3.663 -0.623,3.649 -0.628,3.614C-0.654,3.414 -0.62,3.149 -0.616,2.94C-0.611,2.693 -0.511,2.503 -0.513,2.251C-0.514,2.037 -0.518,1.86 -0.422,1.686C-0.38,1.61 -0.28,1.523 -0.256,1.444C-0.212,1.29 -0.248,1.138 -0.193,0.975C-0.139,0.812 -0.067,0.635 -0.058,0.462C-0.052,0.36 -0.062,0.269 -0.016,0.173C0.019,0.104 0.11,0.073 0.135,0" style="fill:none;fill-rule:nonzero;stroke:white;stroke-width:0.7px;"/>
        </g>
        <g transform="matrix(1,0,0,1,229.988,319.462)">
            <path d="M0,39.924C0.025,39.648 0.094,38.796 0.035,38.546C-0.016,38.328 0.088,38.124 0.184,37.933C0.267,37.771 0.376,37.622 0.443,37.452C0.513,37.27 0.531,37.095 0.657,36.94C0.901,36.639 1.255,36.361 1.45,36.026C1.551,35.851 1.515,35.607 1.664,35.46C1.819,35.308 2.114,35.321 2.314,35.322C2.741,35.322 3.033,35.681 3.458,35.515C3.496,35.236 3.383,35.139 3.12,35.058C3.059,34.882 3.475,34.479 3.627,34.37C3.73,34.295 3.885,34.263 3.988,34.214C4.132,34.146 4.284,34.056 4.43,33.987C4.686,33.867 4.936,33.785 5.181,33.632C5.394,33.5 5.604,33.327 5.817,33.2C6.082,33.044 6.373,32.958 6.671,32.934C7.002,32.908 7.272,32.779 7.583,32.664C7.862,32.56 8.13,32.411 8.405,32.29C8.696,32.162 8.974,32.096 9.252,31.935C9.749,31.647 10.163,31.245 10.643,30.937C11.127,30.627 11.732,30.507 12.265,30.307C13.153,29.975 13.911,29.369 14.754,28.937C15.247,28.684 15.707,28.388 16.194,28.134C16.432,28.01 16.56,27.805 16.737,27.613C16.982,27.345 17.397,27.203 17.726,27.071C18.105,26.918 18.492,26.766 18.824,26.523C18.989,26.403 18.994,26.202 19.087,26.043C19.207,25.839 19.383,25.829 19.598,25.789C19.97,25.718 20.329,25.52 20.713,25.518C21.026,25.516 21.277,25.479 21.577,25.389C21.855,25.306 21.776,25.166 21.951,24.975C22.118,24.795 22.316,24.856 22.529,24.932C22.78,25.021 22.919,24.959 23.175,24.959C23.414,24.959 23.649,25.006 23.9,25.007C24.156,25.009 24.413,25.008 24.67,25.01C24.794,25.01 24.947,24.983 25.068,25.007C25.167,25.027 25.24,25.093 25.337,25.112C25.449,25.136 25.533,25.119 25.605,25.083C25.532,25.028 25.464,24.964 25.408,24.879C25.298,24.711 25.284,24.519 25.273,24.364C25.269,24.314 25.266,24.265 25.258,24.22C25.246,24.153 25.225,24.088 25.206,24.024C25.178,23.928 25.15,23.833 25.134,23.736C25.121,23.66 25.113,23.587 25.105,23.518C25.08,23.282 25.072,23.212 24.918,23.109C24.861,23.071 24.801,23.035 24.741,22.999C24.505,22.858 24.237,22.699 24.074,22.399C23.88,22.042 23.988,21.684 24.075,21.397C24.093,21.337 24.111,21.277 24.126,21.219C24.169,21.045 24.213,20.722 24.022,20.528C23.99,20.496 23.939,20.463 23.884,20.428C23.797,20.373 23.697,20.309 23.61,20.209C23.408,19.983 23.439,19.759 23.459,19.61L23.47,19.516C23.492,19.208 23.418,18.911 23.272,18.723C23.204,18.635 23.095,18.558 22.981,18.477C22.757,18.319 22.477,18.123 22.391,17.747C22.33,17.478 22.343,17.226 22.356,16.981C22.362,16.852 22.37,16.723 22.363,16.594C22.354,16.434 22.37,16.28 22.385,16.127C22.408,15.91 22.428,15.721 22.358,15.543C22.337,15.488 22.319,15.433 22.301,15.379C22.258,15.245 22.233,15.173 22.175,15.127C22.098,15.066 21.98,15.008 21.852,15.066C21.753,15.111 21.735,15.137 21.702,15.385C21.62,15.987 21.207,16.364 20.622,16.37C20.418,16.349 20.274,16.313 20.139,16.262C20.09,16.244 20.04,16.225 19.988,16.21C19.953,16.2 19.944,16.201 19.851,16.235C19.783,16.261 19.71,16.286 19.625,16.301C19.374,16.348 19.115,16.237 18.852,15.978C18.624,15.757 18.626,15.538 18.626,15.362C18.624,15.17 18.576,15.051 18.52,15.021C18.455,14.983 18.23,15.047 18.123,15.078L18.034,15.102C17.899,15.139 17.824,15.261 17.704,15.475C17.629,15.609 17.543,15.761 17.42,15.893C17.25,16.073 17.047,16.174 16.847,16.179C16.646,16.17 16.517,16.118 16.388,15.992C16.143,15.755 16.179,15.482 16.203,15.302C16.234,15.04 16.129,14.701 16.016,14.647C15.925,14.605 15.815,14.607 15.709,14.653C15.636,14.686 15.605,14.726 15.529,14.837L15.45,14.947C15.143,15.351 14.717,15.655 14.31,15.761C14.221,15.783 14.129,15.8 14.036,15.818C13.76,15.868 13.586,15.906 13.496,16.055C13.425,16.17 13.382,16.294 13.338,16.418C13.248,16.664 13.147,16.943 12.892,17.168C12.661,17.373 12.368,17.472 12.084,17.446C11.84,17.422 11.623,17.298 11.473,17.099C11.345,16.929 11.272,16.744 11.207,16.581C11.135,16.398 11.072,16.24 10.95,16.127C10.729,15.923 10.404,15.823 10.139,15.881C10.041,15.902 9.951,15.936 9.862,15.968C9.638,16.048 9.384,16.139 9.063,16.081C8.55,15.987 8.119,15.593 7.937,15.053C7.896,14.932 7.865,14.813 7.834,14.696C7.771,14.46 7.718,14.258 7.592,14.072C7.465,13.883 7.329,13.701 7.193,13.518L6.889,13.108C6.715,12.878 6.423,12.494 6.621,12.063C6.662,11.973 6.664,11.92 6.663,11.763C6.662,11.366 6.649,11.143 6.482,10.97C6.452,10.939 6.444,10.931 6.294,10.954C6.065,10.991 5.876,10.968 5.659,10.878C5.461,10.797 5.299,10.686 5.142,10.58C5.019,10.495 4.897,10.411 4.761,10.352C4.279,10.145 3.771,9.927 3.604,9.363C3.462,8.879 3.577,8.324 3.696,7.844L3.747,7.659C3.788,7.519 3.823,7.399 3.822,7.264C3.822,7.092 3.814,6.997 3.761,6.886C3.684,6.724 3.581,6.574 3.48,6.426C3.288,6.143 3.09,5.852 3.015,5.476C2.945,5.125 2.991,4.895 3.102,4.595L3.162,4.428C3.328,3.961 3.516,3.431 3.94,3.077C4.092,2.95 4.264,2.887 4.415,2.831C4.498,2.801 4.583,2.771 4.658,2.726C4.834,2.622 5.053,2.48 5.194,2.316C5.311,2.179 5.396,2.009 5.429,1.848C5.486,1.566 5.564,1.304 5.646,1.03C5.8,0.521 5.608,0.186 5.423,-0.018L5.33,-0.124C5.245,-0.223 5.172,-0.308 5.087,-0.367C4.826,-0.542 4.603,-0.692 4.466,-0.969C4.294,-1.314 4.371,-1.666 4.434,-1.948C4.47,-2.112 4.506,-2.268 4.468,-2.306C4.406,-2.368 4.241,-2.4 4.108,-2.426L3.958,-2.458C3.727,-2.513 3.485,-2.583 3.285,-2.77C3.173,-2.873 3.102,-2.991 3.038,-3.095C3.01,-3.141 2.981,-3.188 2.948,-3.231C2.769,-3.469 2.485,-3.497 2.038,-3.516C1.46,-3.541 1.134,-3.747 0.856,-4.251L0.725,-4.48C0.524,-4.826 0.295,-5.219 0.233,-5.628C0.167,-6.065 0.408,-6.404 0.602,-6.676L0.783,-6.942C0.956,-7.205 1.151,-7.505 1.462,-7.698C1.684,-7.836 1.921,-7.913 2.151,-7.987C2.293,-8.033 2.436,-8.078 2.568,-8.14C2.832,-8.264 3.101,-8.425 3.439,-8.662C3.75,-8.879 4.001,-9.091 4.219,-9.42C4.38,-9.663 4.557,-9.895 4.734,-10.126C4.908,-10.355 5.083,-10.583 5.241,-10.824C5.278,-10.881 5.321,-10.94 5.364,-11C5.464,-11.14 5.568,-11.285 5.605,-11.414C5.631,-11.507 5.626,-11.632 5.62,-11.763C5.616,-11.864 5.613,-11.965 5.62,-12.061C5.646,-12.452 5.791,-12.766 5.931,-13.071C5.996,-13.211 6.062,-13.352 6.114,-13.503C6.235,-13.855 6.382,-14.219 6.715,-14.466C6.92,-14.619 7.16,-14.713 7.406,-14.804C7.876,-14.976 8.401,-15.048 9.005,-15.03C9.348,-15.016 9.686,-15.03 10.027,-15.042L10.697,-15.059C10.904,-15.061 11.098,-15.059 11.269,-15.104C11.344,-15.123 11.473,-15.17 11.489,-15.258C11.506,-15.342 11.437,-15.491 11.274,-15.612L11.157,-15.696C10.832,-15.924 10.29,-16.305 10.448,-16.912C10.517,-17.174 10.716,-17.335 10.861,-17.453C11.021,-17.585 11.116,-17.678 11.212,-17.772L11.402,-17.955C11.801,-18.322 12.302,-18.505 12.936,-18.515L13.206,-18.514C13.564,-18.509 13.935,-18.506 14.212,-18.658C14.588,-18.865 14.513,-19.28 14.344,-19.94C14.285,-20.172 14.229,-20.391 14.214,-20.596C14.191,-20.915 14.197,-21.235 14.204,-21.556C14.21,-21.857 14.216,-22.159 14.194,-22.46C14.165,-22.85 14.12,-23.257 14.058,-23.704C13.931,-23.706 13.805,-23.715 13.68,-23.737C13.436,-23.78 13.177,-23.857 12.927,-23.813C12.285,-23.698 11.792,-23.767 11.204,-24.07C10.672,-24.344 10.021,-24.433 9.432,-24.361C8.757,-24.277 7.91,-23.993 7.404,-24.614C7.172,-24.899 6.884,-25.113 6.568,-25.303C6.271,-25.479 5.95,-25.455 5.618,-25.409C5.321,-25.078 5.027,-24.744 4.715,-24.43C4.435,-24.148 4.181,-23.964 3.893,-23.83L3.705,-23.748C3.418,-23.625 2.985,-23.439 2.92,-23.208C2.897,-23.123 2.881,-23.04 2.865,-22.959C2.818,-22.706 2.763,-22.419 2.512,-22.15C2.284,-21.905 2.043,-21.854 1.891,-21.865C1.654,-21.873 1.432,-21.995 1.25,-22.218C1.209,-22.268 1.17,-22.321 1.13,-22.374C0.951,-22.615 0.868,-22.715 0.715,-22.699C0.583,-22.69 0.512,-22.599 0.369,-22.38C0.323,-22.309 0.277,-22.238 0.226,-22.172C-0.167,-21.663 -0.724,-21.745 -1.132,-21.805C-1.343,-21.837 -1.542,-21.867 -1.704,-21.829C-1.942,-21.775 -2.145,-21.61 -2.361,-21.435C-2.439,-21.372 -2.516,-21.309 -2.596,-21.25C-2.785,-21.11 -3.199,-20.885 -3.553,-20.943C-3.948,-21.005 -4.031,-21.365 -4.071,-21.538L-3.802,-21.72L-4.098,-21.648C-4.204,-22.084 -4.314,-22.535 -4.599,-22.834C-4.767,-23.011 -4.952,-23.118 -5.18,-23.171C-5.287,-23.196 -5.398,-23.211 -5.508,-23.225C-5.729,-23.255 -5.979,-23.289 -6.211,-23.396C-6.473,-23.517 -6.646,-23.78 -6.813,-24.033C-7.073,-24.429 -7.187,-24.551 -7.354,-24.497C-7.625,-24.408 -7.638,-23.625 -7.644,-23.247C-7.646,-23.113 -7.648,-22.993 -7.656,-22.9C-7.706,-22.304 -7.976,-21.799 -8.238,-21.311L-8.282,-21.228C-8.342,-21.116 -8.393,-20.997 -8.445,-20.879C-8.506,-20.74 -8.567,-20.6 -8.64,-20.468L-8.72,-20.328C-8.819,-20.164 -8.858,-20.092 -8.849,-19.958C-8.833,-19.714 -8.877,-19.511 -8.995,-19.299C-9.145,-19.028 -9.388,-18.862 -9.603,-18.716C-9.676,-18.665 -9.75,-18.616 -9.817,-18.562C-10.19,-18.263 -10.54,-18.226 -10.911,-18.186C-11.024,-18.174 -11.126,-18.163 -11.166,-18.127C-11.188,-18.107 -11.211,-18.076 -11.237,-18.038C-11.291,-17.962 -11.358,-17.867 -11.474,-17.789C-11.772,-17.588 -12.098,-17.536 -12.385,-17.49C-12.532,-17.467 -12.679,-17.444 -12.822,-17.398C-12.873,-17.381 -12.917,-17.356 -12.962,-17.333C-13.05,-17.287 -13.159,-17.23 -13.297,-17.202C-13.587,-17.147 -13.899,-17.15 -14.175,-17.213C-14.61,-17.31 -15.005,-17.387 -15.424,-17.334C-15.674,-17.303 -16.112,-17.201 -16.242,-16.864C-16.326,-16.65 -16.26,-16.416 -16.072,-16.254C-15.826,-16.042 -15.501,-15.966 -15.157,-15.886C-14.832,-15.809 -14.496,-15.731 -14.186,-15.534C-13.751,-15.258 -13.557,-14.776 -13.692,-14.306C-13.811,-13.896 -14.118,-13.628 -14.388,-13.391C-14.656,-13.156 -14.863,-12.975 -14.979,-12.75C-15.133,-12.455 -15.118,-12.091 -15.084,-11.774C-15.047,-11.427 -15.199,-10.828 -15.644,-10.646C-15.869,-10.553 -16.093,-10.607 -16.257,-10.647C-16.314,-10.661 -16.369,-10.676 -16.422,-10.68C-16.703,-10.698 -17.231,-10.432 -17.314,-10.173C-17.357,-10.039 -17.183,-9.829 -17.03,-9.644C-16.948,-9.545 -16.87,-9.45 -16.815,-9.361C-16.548,-8.939 -16.361,-8.644 -16.015,-8.404C-15.485,-8.037 -15.31,-7.65 -15.391,-7.024C-15.4,-6.961 -15.414,-6.885 -15.431,-6.802C-15.498,-6.463 -15.51,-6.269 -15.467,-6.224C-15.303,-6.194 -15.178,-6.205 -15.047,-6.214C-14.782,-6.236 -14.483,-6.261 -14.145,-6.057C-13.739,-5.812 -13.328,-5.472 -13.356,-4.807C-13.359,-4.711 -13.369,-4.609 -13.379,-4.505C-13.423,-4.044 -13.433,-3.754 -13.194,-3.611C-13.115,-3.563 -13.03,-3.531 -12.945,-3.498C-12.828,-3.452 -12.711,-3.404 -12.603,-3.34C-12.337,-3.178 -12.161,-2.95 -12.005,-2.749C-11.949,-2.675 -11.891,-2.601 -11.83,-2.53C-11.293,-1.919 -11.447,-1.448 -11.586,-1.222C-11.818,-0.846 -12.223,-0.723 -12.549,-0.625C-12.616,-0.605 -12.682,-0.584 -12.745,-0.563C-13.072,-0.45 -13.267,-0.311 -13.378,-0.113C-13.443,0.005 -13.485,0.134 -13.529,0.263C-13.599,0.468 -13.678,0.702 -13.835,0.907C-14.086,1.238 -14.453,1.323 -14.748,1.391L-14.911,1.43C-15.268,1.524 -15.567,1.708 -15.92,1.937C-16.552,2.349 -17.273,2.359 -17.969,2.37C-18.141,2.372 -18.312,2.375 -18.479,2.384L-18.6,2.39C-19.07,2.415 -19.556,2.441 -20.003,2.552C-20.291,2.624 -20.479,2.729 -20.595,2.884C-20.717,3.046 -20.726,3.134 -20.559,3.441C-20.466,3.609 -20.386,3.775 -20.317,3.957C-20.176,4.333 -20.341,4.765 -20.568,5.027C-20.71,5.192 -20.741,5.431 -20.763,5.682C-20.79,5.988 -20.807,6.243 -20.769,6.507L-20.744,6.638C-20.715,6.78 -20.681,6.94 -20.716,7.131C-20.818,7.682 -21.205,8.628 -22.006,8.671C-22.175,8.681 -22.35,8.678 -22.522,8.674C-22.642,8.671 -22.759,8.669 -22.878,8.671C-23.264,8.67 -23.767,8.467 -24.013,8.184C-24.1,8.084 -24.14,7.978 -24.172,7.893C-24.189,7.846 -24.205,7.806 -24.222,7.782C-24.29,7.693 -24.386,7.625 -24.496,7.546C-24.633,7.45 -24.787,7.341 -24.908,7.172C-25.086,6.922 -25.267,6.781 -25.462,6.739L-25.566,6.719C-25.726,6.689 -25.908,6.656 -26.092,6.513L-26.196,6.43C-26.34,6.313 -26.42,6.251 -26.533,6.242C-26.893,6.209 -27.35,6.548 -27.609,6.898C-27.65,6.955 -27.69,7.014 -27.729,7.074C-27.844,7.247 -27.974,7.444 -28.171,7.592C-28.453,7.803 -28.805,7.865 -29.063,7.91C-29.31,7.952 -29.551,7.954 -29.785,7.954L-29.935,7.956C-30.07,7.958 -30.201,7.977 -30.332,7.996C-30.449,8.013 -30.567,8.029 -30.687,8.037L-30.819,8.044C-31.154,8.058 -31.329,8.087 -31.361,8.207C-31.357,8.217 -31.321,8.277 -31.298,8.316C-31.254,8.389 -31.2,8.48 -31.172,8.588C-31.122,8.779 -31.166,8.951 -31.201,9.088C-31.213,9.133 -31.225,9.177 -31.23,9.222L-31.24,9.319C-31.254,9.481 -31.273,9.685 -31.414,9.879C-31.46,9.943 -31.514,9.998 -31.568,10.053C-31.627,10.11 -31.663,10.147 -31.672,10.18C-31.678,10.2 -31.679,10.246 -31.679,10.287C-31.681,10.402 -31.684,10.56 -31.782,10.713C-31.906,10.905 -32.124,11.006 -32.431,11.014C-32.91,11.016 -33.242,10.829 -33.495,10.411C-33.66,10.137 -33.8,10.043 -33.848,10.063C-34.434,10.348 -34.639,10.918 -34.876,11.575L-34.948,11.775C-35.064,12.09 -35.246,12.334 -35.421,12.569C-35.508,12.687 -35.597,12.804 -35.674,12.932C-35.809,13.152 -35.889,13.402 -35.974,13.667C-36.053,13.914 -36.134,14.17 -36.266,14.416C-36.368,14.605 -36.512,14.752 -36.651,14.894C-36.856,15.103 -36.982,15.241 -36.986,15.422C-36.99,15.631 -37.008,15.838 -37.179,16.076C-37.273,16.206 -37.355,16.348 -37.437,16.489C-37.514,16.622 -37.592,16.755 -37.679,16.882C-37.767,17.011 -37.803,17.108 -37.86,17.269C-37.908,17.405 -37.986,17.517 -38.055,17.615C-38.112,17.698 -38.167,17.776 -38.179,17.834C-38.2,17.933 -38.208,18.038 -38.217,18.144C-38.23,18.285 -38.244,18.428 -38.275,18.566C-38.3,18.677 -38.343,18.78 -38.388,18.883C-38.412,18.935 -38.436,18.987 -38.453,19.042C-38.472,19.101 -38.471,19.155 -38.466,19.255L-38.463,19.354C-38.457,19.719 -38.532,20.076 -38.683,20.418L-38.727,20.519C-38.875,20.865 -39.079,21.339 -39.642,21.4C-40.038,21.442 -40.466,21.342 -40.844,21.252L-41.477,21.105C-41.866,21.012 -42.235,20.924 -42.611,20.885C-42.668,20.879 -42.719,20.881 -42.774,20.879C-42.882,20.854 -43.051,20.88 -43.223,20.819L-43.305,20.79C-43.495,20.72 -43.672,20.651 -43.842,20.665C-43.924,20.67 -43.947,20.688 -44.051,20.894C-44.086,20.963 -44.121,21.033 -44.164,21.1C-44.479,21.602 -44.942,21.634 -45.351,21.662C-45.513,21.674 -45.535,21.693 -45.622,21.788C-45.693,21.863 -45.788,21.966 -45.939,22.046C-46.094,22.127 -46.345,22.18 -46.601,22.18C-46.773,22.18 -46.947,22.156 -47.096,22.102C-47.362,22.004 -47.477,21.838 -47.526,21.715C-47.597,21.54 -47.584,21.364 -47.572,21.222C-47.565,21.123 -47.558,21.028 -47.583,20.974C-47.636,20.857 -47.731,20.715 -47.784,20.67C-47.883,20.586 -48.033,20.598 -48.271,20.625C-48.519,20.654 -48.802,20.686 -49.071,20.541C-49.478,20.322 -49.365,19.855 -49.317,19.657C-49.246,19.359 -49.189,19.115 -49.172,18.863C-49.136,18.3 -48.935,18.007 -48.552,17.63C-48.267,17.351 -48.139,17.057 -48.111,16.616C-48.085,16.208 -48.171,16.004 -48.451,15.809C-48.591,15.712 -48.733,15.619 -48.876,15.526C-49.127,15.362 -49.377,15.197 -49.616,15.011C-49.771,15.196 -49.901,15.35 -50.007,15.514C-50.081,15.63 -50.152,15.747 -50.222,15.862C-50.351,16.073 -50.48,16.282 -50.624,16.489C-51.081,17.14 -51.404,17.72 -51.581,18.212C-51.802,18.823 -52.175,19.382 -52.535,19.922L-52.657,20.105C-52.881,20.445 -53.114,20.781 -53.348,21.116C-53.489,21.319 -53.615,21.532 -53.74,21.746C-53.836,21.908 -53.931,22.07 -54.033,22.228C-54.213,22.508 -54.422,22.768 -54.631,23.028L-54.755,23.182C-55.057,23.561 -55.394,23.897 -55.72,24.221C-55.88,24.381 -56.041,24.54 -56.198,24.706C-56.536,25.062 -56.715,25.423 -56.73,25.779C-56.769,26.69 -56.553,27.658 -56.363,28.512C-56.32,28.705 -56.326,28.886 -56.332,29.043C-56.335,29.124 -56.339,29.206 -56.334,29.29C-56.326,29.441 -56.268,29.552 -56.181,29.719L-56.139,29.798C-56.011,30.048 -56.002,30.299 -55.995,30.519C-55.983,30.839 -55.972,31.112 -56.133,31.406C-56.24,31.602 -56.279,31.726 -56.292,31.918C-56.31,32.179 -56.329,32.45 -56.532,32.727C-56.706,32.962 -56.733,33.011 -56.71,33.115L-56.677,33.265C-56.582,33.717 -56.517,33.906 -56.252,33.961C-56.125,33.989 -55.965,33.956 -55.797,33.923L-55.624,33.891C-55.568,33.882 -55.508,33.868 -55.444,33.854C-55.194,33.798 -54.884,33.728 -54.602,33.836C-54.171,33.999 -54.013,34.515 -54.137,34.894C-54.236,35.196 -54.49,35.378 -54.694,35.524L-54.809,35.609C-55.176,35.893 -55.204,36.024 -55.187,36.077C-55.177,36.11 -55.046,36.142 -54.959,36.163C-54.848,36.19 -54.723,36.22 -54.61,36.284C-54.363,36.423 -53.771,36.891 -53.998,37.382C-54.083,37.566 -54.228,37.681 -54.345,37.773C-54.449,37.856 -54.513,37.91 -54.536,37.977C-54.556,38.039 -54.548,38.07 -54.467,38.213C-54.406,38.321 -54.331,38.455 -54.308,38.629C-54.285,38.796 -54.341,38.951 -54.386,39.076C-54.396,39.102 -54.407,39.134 -54.417,39.164C-54.375,39.172 -54.284,39.158 -54.149,39.128C-54.109,39.119 -54.068,39.099 -54.026,39.081C-53.885,39.019 -53.693,38.935 -53.474,38.996C-52.964,39.142 -52.974,39.702 -52.98,40.002C-52.981,40.087 -52.985,40.165 -52.975,40.226C-52.925,40.272 -52.882,40.275 -52.84,40.252C-52.75,40.203 -52.711,40.112 -52.645,39.94C-52.621,39.877 -52.596,39.814 -52.567,39.752C-52.465,39.532 -52.286,39.396 -52.065,39.37C-51.589,39.321 -51.104,39.788 -50.956,39.975L-50.88,40.069C-50.705,40.289 -50.524,40.514 -50.398,40.787L-50.364,40.862C-50.311,40.98 -50.256,41.102 -50.191,41.182C-50.161,41.22 -50.128,41.25 -50.097,41.282C-50.033,41.343 -49.963,41.414 -49.898,41.513C-49.738,41.76 -49.562,42.012 -49.319,42.168C-49.144,42.28 -48.96,42.379 -48.776,42.476C-48.526,42.61 -48.268,42.747 -48.026,42.921C-47.69,43.161 -47.407,43.53 -47.183,44.02C-47.156,44.079 -47.132,44.14 -47.108,44.203C-47.067,44.309 -47.028,44.41 -46.975,44.476C-46.905,44.562 -46.786,44.602 -46.564,44.617L-46.39,44.624C-46.188,44.63 -45.961,44.637 -45.73,44.717C-45.462,44.809 -45.213,44.964 -45.027,45.087C-44.358,45.532 -44.523,46.254 -44.593,46.563C-44.61,46.635 -44.638,46.72 -44.668,46.809C-44.702,46.909 -44.772,47.116 -44.754,47.179C-44.569,47.2 -44.393,47.126 -44.202,47.046C-43.913,46.926 -43.553,46.776 -43.177,46.952C-42.861,47.101 -42.625,47.415 -42.592,47.734C-42.569,47.939 -42.642,48.164 -42.704,48.364C-42.73,48.444 -42.754,48.519 -42.768,48.584C-42.811,48.796 -42.846,48.967 -42.834,49.112C-42.816,49.338 -42.584,49.635 -42.346,49.735C-42.257,49.773 -42.105,49.734 -42.031,49.656L-41.943,49.56C-41.791,49.386 -41.583,49.146 -41.165,49.199C-41.061,49.211 -40.956,49.24 -40.853,49.27C-40.683,49.318 -40.575,49.346 -40.492,49.306C-40.4,49.261 -40.32,49.161 -40.227,49.047C-40.125,48.921 -40.01,48.779 -39.848,48.674C-39.627,48.531 -39.186,48.368 -38.7,48.869C-38.537,49.036 -38.459,49.067 -38.193,49.131C-37.953,49.187 -37.765,49.329 -37.678,49.518C-37.598,49.696 -37.61,49.902 -37.713,50.097C-37.823,50.305 -37.999,50.417 -38.141,50.507C-38.237,50.568 -38.32,50.622 -38.359,50.687C-38.443,50.831 -38.463,51.022 -38.418,51.255C-38.403,51.333 -38.4,51.425 -38.4,51.52C-38.399,51.589 -38.399,51.703 -38.381,51.736C-38.366,51.73 -38.264,51.709 -38.202,51.696C-38.146,51.685 -38.091,51.674 -38.039,51.668C-37.652,51.623 -37.516,51.879 -37.445,52.017C-37.345,52.197 -37.283,52.237 -37.149,52.255C-37.018,52.272 -36.98,52.259 -36.975,52.256C-36.993,52.255 -36.993,52.203 -36.994,52.166C-37,52.036 -37.009,51.841 -36.875,51.672C-36.708,51.461 -36.446,51.372 -36.177,51.438C-35.855,51.514 -35.575,51.789 -35.514,52.09C-35.467,52.316 -35.49,52.535 -35.509,52.729C-35.531,52.941 -35.55,53.123 -35.482,53.276C-35.332,53.614 -35.097,53.87 -34.694,54.132C-34.499,54.258 -34.284,54.428 -34.173,54.727C-34.098,54.935 -34.078,54.984 -34.004,55.041C-33.8,55.197 -33.559,55.258 -33.279,55.328C-33.169,55.356 -33.057,55.384 -32.946,55.418L-32.85,55.448C-32.484,55.56 -32.14,55.665 -31.794,55.894C-31.746,55.925 -31.695,55.952 -31.644,55.98C-31.529,56.043 -31.398,56.114 -31.285,56.224C-31.085,56.418 -31.04,56.666 -31.005,56.865L-31.041,56.874C-30.972,56.926 -30.898,56.974 -30.834,57.028L-30.727,57.119C-30.405,57.393 -30.072,57.678 -29.701,57.696C-29.522,57.706 -29.333,57.661 -29.133,57.614L-28.906,57.563C-28.51,57.485 -28.159,57.499 -27.831,57.606C-27.641,57.668 -27.461,57.752 -27.28,57.836C-27.163,57.891 -27.046,57.946 -26.925,57.993C-26.847,58.024 -26.767,58.05 -26.686,58.078C-26.491,58.143 -26.288,58.211 -26.096,58.329C-25.681,58.584 -25.4,59.024 -25.151,59.413C-25.085,59.515 -25.021,59.616 -24.957,59.709C-24.899,59.793 -24.845,59.89 -24.791,59.989C-24.616,60.31 -24.534,60.419 -24.382,60.41C-24.152,60.403 -23.9,60.169 -23.697,59.981L-23.629,59.917C-23.331,59.641 -23.023,59.356 -22.652,59.132C-22.567,59.081 -22.479,59.033 -22.392,58.984C-22.212,58.884 -22.042,58.79 -21.896,58.671C-21.851,58.635 -21.807,58.595 -21.764,58.556C-21.629,58.435 -21.477,58.299 -21.269,58.216C-21.129,58.16 -20.985,58.125 -20.84,58.091C-20.665,58.049 -20.513,58.014 -20.38,57.935C-20.122,57.78 -19.952,57.517 -19.771,57.238L-19.685,57.105C-19.473,56.785 -19.239,56.626 -18.849,56.54C-18.608,56.487 -18.391,56.353 -18.162,56.21L-17.991,56.105C-17.577,55.858 -17.162,55.822 -16.81,55.82L-16.576,55.817C-16.282,55.812 -15.977,55.806 -15.666,55.851C-15.351,55.896 -15.031,55.89 -14.695,55.884C-14.471,55.879 -14.247,55.875 -14.022,55.886C-13.815,55.896 -13.613,55.937 -13.41,55.979C-13.176,56.028 -12.956,56.073 -12.742,56.057C-12.597,56.045 -12.453,56.024 -12.309,56.005C-11.958,55.956 -11.594,55.905 -11.21,55.962C-11.082,55.979 -10.947,55.955 -10.792,55.924C-10.67,55.901 -10.547,55.877 -10.42,55.87C-10.135,55.852 -9.873,55.899 -9.62,55.943C-9.45,55.974 -9.28,56.005 -9.106,56.011L-8.987,56.015C-8.698,56.024 -8.425,56.032 -8.108,56.132C-7.772,56.239 -7.439,56.343 -7.185,56.608C-6.904,56.899 -6.758,57.181 -6.739,57.467C-6.723,57.701 -6.691,57.866 -6.587,57.958C-6.448,58.08 -6.208,58.106 -5.968,58.114L-5.812,58.119C-5.581,58.125 -5.341,58.131 -5.094,58.193C-4.983,58.22 -4.875,58.254 -4.767,58.288C-4.623,58.335 -4.48,58.382 -4.33,58.403C-3.923,58.461 -3.576,58.293 -3.175,58.099L-2.946,57.991C-2.508,57.789 -1.685,57.526 -1.086,58.025C-0.365,58.629 -0.83,59.46 -1.108,59.957L-1.164,60.059C-1.392,60.473 -1.381,60.884 -1.13,61.316C-0.976,61.581 -0.758,61.702 -0.383,61.845C-0.108,61.949 0.142,62.043 0.341,62.239C0.56,62.454 0.618,62.717 0.654,62.947C0.686,63.154 0.726,63.3 0.831,63.433C0.933,63.561 1.049,63.678 1.165,63.794C1.276,63.905 1.385,64.016 1.487,64.136C1.797,64.503 2.063,64.907 2.319,65.296C2.343,65.332 2.368,65.366 2.392,65.401C2.584,65.402 2.746,65.403 2.874,65.221" style="fill:none;fill-rule:nonzero;stroke:white;stroke-width:0.7px;"/>
        </g>
    </g>
</svg>
