<?xml version="1.0" encoding="UTF-8" standalone="no"?>
<!DOCTYPE svg PUBLIC "-//W3C//DTD SVG 1.1//EN" "http://www.w3.org/Graphics/SVG/1.1/DTD/svg11.dtd">
<svg width="100%" height="100%" viewBox="0 0 75 73" version="1.1" xmlns="http://www.w3.org/2000/svg" xmlns:xlink="http://www.w3.org/1999/xlink" xml:space="preserve" xmlns:serif="http://www.serif.com/" style="fill-rule:evenodd;clip-rule:evenodd;stroke-linecap:round;stroke-linejoin:round;">
    <g transform="matrix(1,0,0,1,-177.346,-162.883)">
        <g transform="matrix(1,0,0,1,251.103,166.757)">
            <path d="M0,64.739L-0.023,64.677L-0.447,64.646L-1.154,64.243L-1.66,63.691L-5.415,57.368L-8.678,55.893L-9.129,55.543L-10.995,54.094L-11.784,53.849L-13.406,53.65L-14.721,52.933L-15.055,52.274L-15.441,51.513L-15.285,49.207L-13.87,45.983L-13.449,45.022L-13.116,43.715L-12.762,42.332L-13.561,41.047L-13.803,41.103L-15.173,41.424L-16.692,42.155L-18.105,42.264L-19.386,40.79L-19.405,40.713L-19.434,40.647L-19.473,40.584L-19.517,40.528L-19.736,40.35L-20.35,39.63L-19.629,38.977L-19.386,38.816L-19.021,38.334L-18.889,37.865L-19.006,37.428L-19.386,37.03L-18.309,35.596L-17.485,34.969L-13.064,31.6L-11.715,29.112L-11.902,28.456L-12.077,27.847L-12.549,27.755L-13.182,27.633L-14.571,27.784L-15.769,27.595L-17.186,26.189L-18.072,25.568L-19.387,25.301L-20.044,24.926L-21.457,24.828L-22.188,24.575L-21.501,25.775L-22.787,25.975L-23.186,25.386L-23.351,24.445L-23.975,23.589L-23.985,23.575L-24.272,21.873L-24.535,21.067L-24.9,20.386L-23.674,19.62L-23.469,19.27L-22.801,18.122L-22.168,16.677L-21.657,16.064L-21.033,15.997L-20.449,15.712L-19.319,14.887L-17.137,13.718L-15.988,12.518L-14.984,11.106L-13.83,10.018L-12.232,9.808L-11.068,9.849L-10.187,9.375L-9.792,8.559L-9.67,8.306L-9.602,6.561L-9.339,6.2L-9.164,5.777L-9.076,5.295L-9.081,4.76L-9.817,4.904L-10.528,4.83L-16.232,2.978L-18.233,2.904L-18.593,2.652L-19.259,1.893L-19.585,1.768L-22.459,1.978L-24.519,1.616L-29.32,2.642L-31.219,2.546L-32.213,2.148L-35.208,0.306L-39.07,-0.587L-50.102,-1.38L-52.781,-3.127L-53.962,-3.524L-53.674,-0.269L-53.353,1.154L-53.374,2.035L-53.462,2.686L-53.338,3.267L-53.411,3.588L-53.557,3.755L-56.653,4.242L-57.113,4.404L-57.522,4.618L-57.712,4.747L-57.961,4.979L-58.771,5.988L-58.949,6.392L-58.969,6.704L-58.837,6.89L-58.662,7.015L-58.452,7.123L-58.21,7.199L-57.801,7.43L-57.648,7.675L-57.56,8.011L-57.553,8.612L-57.67,8.892L-57.874,8.977L-58.101,8.92L-58.532,8.706L-59.043,8.568L-61.289,8.582L-63.264,9.009L-64.294,9.581L-64.539,9.808L-64.721,10.041L-65.321,11.386L-65.803,13.103L-67.31,15.885L-68.281,17.158L-68.661,17.541L-71.089,18.803L-71.783,19.298L-72.268,19.853L-73.049,20.949L-73.29,21.475L-73.407,21.798L-73.378,22.005L-73.203,22.409L-73.079,22.595L-72.356,23.46L-71.199,24.482L-70.989,24.588L-70.755,24.676L-69.694,24.704L-69.467,24.781L-69.321,24.935L-69.226,25.139L-69.153,25.37L-69.065,25.573L-68.912,25.714L-68.671,25.756L-68.13,25.763L-67.896,25.855L-67.728,26.082L-67.648,26.576L-67.575,27.54L-67.531,27.778L-67.429,27.976L-67.304,28.151L-66.981,28.456L-66.082,29.133L-65.914,29.522L-65.761,30.114L-65.578,31.455L-65.556,32.106L-65.585,32.548L-65.717,32.845L-65.812,33.009L-65.936,33.171L-66.265,33.465L-66.652,33.682L-67.808,34.035L-67.991,34.15L-68.159,34.298L-68.305,34.464L-68.437,34.654L-68.539,34.871L-68.721,35.323L-68.963,35.795L-69.496,36.636L-68.765,38.929L-68.488,40.228L-68.283,42.345L-68.137,42.79L-67.903,43.039L-67.406,43.165L-67.209,43.249L-66.946,43.43L-65.957,44.545L-65.782,44.65L-65.074,44.888L-64.628,45.184L-64.438,45.442L-64.336,45.711L-64.282,46.076L-64.158,46.644L-62.952,49.856L-62.806,50.42L-62.653,50.725L-62.478,50.939L-60.817,51.789L-60.583,51.82L-60.349,51.773L-59.801,51.413L-59.582,51.347L-59.356,51.326L-59.134,51.396L-58.878,51.554L-58.096,52.277L-57.877,52.562L-57.534,53.419L-56.716,53.52L-56.299,53.318L-54.77,51.727L-54.39,51.438L-54.011,51.253L-53.19,51.116L-52.934,50.964L-52.722,50.703L-52.569,50.402L-52.306,49.975L-52.131,49.825L-51.921,49.773L-51.533,49.975L-51.187,50.243L-51.037,50.4L-50.917,50.58L-50.866,50.811L-50.859,51.052L-50.873,51.257L-50.815,51.452L-50.661,51.689L-50.282,51.912L-50.055,51.891L-49.873,51.762L-49.778,51.539L-49.625,51.259L-49.398,50.956L-48.916,50.559L-48.563,50.423L-48.241,50.401L-48,50.473L-47.774,50.583L-47.599,50.724L-47.482,50.903L-47.438,51.123L-47.473,51.363L-47.364,51.595L-47.086,51.816L-44.951,52.255L-44.622,52.255L-44.388,52.161L-44.248,51.966L-43.89,51.294L-43.393,50.684L-42.463,51.3L-42.148,51.84L-42.133,51.994L-42.243,52.694L-42.235,53.403L-42.155,54.195L-42.104,54.524L-42.023,54.771L-40.898,56.281L-40.752,56.631L-40.708,56.843L-40.723,56.951L-40.752,57.407L-40.606,57.722L-40.377,58.056L-39.902,58.633L-39.668,59.012L-38.602,62.017L-38.31,62.632L-37.609,63.488L-37.258,62.366L-35.609,60.996L-35.061,60.031L-36.852,60.865L-37.803,61.01L-38.578,60.496L-38.835,59.363L-38.317,58.427L-37.373,57.847L-36.322,57.781L-36.322,57.287L-36.843,57.002L-37.016,56.371L-36.89,55.736L-36.491,55.446L-35.923,55.654L-35.524,56.596L-35.061,56.821L-34.681,56.615L-34.128,55.662L-32.456,55.057L-31.958,54.987L-31.659,55.17L-30.527,56.323L-30.102,56.518L-25.534,57.577L-24.706,57.287L-24.126,58.268L-22.199,58.671L-21.785,59.827L-22.095,60.385L-22.831,60.872L-23.69,61.244L-24.361,61.419L-23.184,61.939L-21.945,61.556L-20.83,60.706L-20.001,59.827L-19.484,59.57L-18.184,59.318L-17.922,58.891L-17.685,58.618L-15.963,57.785L-17.217,57.561L-17.412,56.247L-16.929,54.768L-16.135,54.069L-15.053,54.258L-12.476,55.404L-11.61,56.116L-7.89,60.036L-7.284,60.853L-6.598,62.15L-6.41,63.315L-7.277,63.708L-5.493,64.627L-5.052,65.373L-4.623,65.863L-4.032,66.043L-5.033,66.256L-6.441,66.087L-7.706,66.125L-8.243,66.961L-8.573,67.461L-6.25,67.258L-4.39,68.263L-2.164,68.034L-1.214,66.859L-0.313,65.745L0.048,64.869L0,64.739Z" style="fill:none;fill-rule:nonzero;stroke:white;stroke-width:0.7px;"/>
        </g>
    </g>
</svg>
