<svg xmlns="http://www.w3.org/2000/svg" width="293" height="54" viewBox="0 0 293 54"><g transform="translate(-215 -710)"><path d="M6,0H287a6,6,0,0,1,6,6V48a6,6,0,0,1-6,6H6a6,6,0,0,1-6-6V6A6,6,0,0,1,6,0Z" transform="translate(215 710)"/><path d="M-64.937-13.628H-58.8A4.157,4.157,0,0,1-55.873-12.6,3.72,3.72,0,0,1-54.76-9.723a4.188,4.188,0,0,1-.993,2.779A3.761,3.761,0,0,1-58.8-5.761h-4.286V0h-1.846Zm8.313,3.915a2.05,2.05,0,0,0-1.113-2.041,4.02,4.02,0,0,0-1.679-.288h-3.674V-7.32h3.674A3.511,3.511,0,0,0-57.4-7.849,2.1,2.1,0,0,0-56.624-9.713Zm5.242,7.069A1.375,1.375,0,0,0-50.854-1.5a1.961,1.961,0,0,0,1.252.417,3.808,3.808,0,0,0,1.707-.408A2.3,2.3,0,0,0-46.5-3.711V-5.056a2.857,2.857,0,0,1-.789.325,6.72,6.72,0,0,1-.946.186l-1.011.13a3.868,3.868,0,0,0-1.364.38A1.482,1.482,0,0,0-51.383-2.644Zm4.045-3.377a.907.907,0,0,0,.77-.482,1.468,1.468,0,0,0,.111-.64,1.356,1.356,0,0,0-.608-1.239,3.26,3.26,0,0,0-1.74-.385,2.21,2.21,0,0,0-1.855.705,2.32,2.32,0,0,0-.4,1.16h-1.559a2.869,2.869,0,0,1,1.192-2.556,4.895,4.895,0,0,1,2.658-.719,5.408,5.408,0,0,1,2.848.668,2.266,2.266,0,0,1,1.085,2.078v5.724a.733.733,0,0,0,.107.417.515.515,0,0,0,.45.158q.111,0,.25-.014t.3-.042V.046a4.651,4.651,0,0,1-.594.139,4.339,4.339,0,0,1-.557.028A1.373,1.373,0,0,1-46.132-.4a2.363,2.363,0,0,1-.288-.918,4.249,4.249,0,0,1-1.466,1.16,4.534,4.534,0,0,1-2.106.492,3.132,3.132,0,0,1-2.259-.84,2.789,2.789,0,0,1-.877-2.1,2.707,2.707,0,0,1,.863-2.143A4.105,4.105,0,0,1-50-5.687Zm8.749-4.091a3.621,3.621,0,0,1,2.041.575,4.584,4.584,0,0,1,.965.946V-9.843h1.54V-.807A6.664,6.664,0,0,1-34.6,2.18Q-35.639,4.2-38.524,4.2a4.814,4.814,0,0,1-2.7-.719,2.8,2.8,0,0,1-1.225-2.25h1.7a1.889,1.889,0,0,0,.482,1.03,2.46,2.46,0,0,0,1.781.557,2.451,2.451,0,0,0,2.514-1.354,7.628,7.628,0,0,0,.325-2.848A3.277,3.277,0,0,1-36.854-.25a4.012,4.012,0,0,1-1.865.371,3.981,3.981,0,0,1-2.825-1.146,5.039,5.039,0,0,1-1.211-3.79,5.739,5.739,0,0,1,1.22-3.9A3.772,3.772,0,0,1-38.589-10.112Zm3.006,5.1a4.142,4.142,0,0,0-.761-2.737,2.437,2.437,0,0,0-1.939-.891A2.394,2.394,0,0,0-40.7-6.986a6.475,6.475,0,0,0-.343,2.31,4.1,4.1,0,0,0,.682,2.556,2.2,2.2,0,0,0,1.832.877,2.572,2.572,0,0,0,2.533-1.624A5.236,5.236,0,0,0-35.583-5.01Zm5.334,2.366A1.375,1.375,0,0,0-29.72-1.5a1.961,1.961,0,0,0,1.252.417,3.808,3.808,0,0,0,1.707-.408,2.3,2.3,0,0,0,1.392-2.217V-5.056a2.857,2.857,0,0,1-.789.325,6.72,6.72,0,0,1-.946.186l-1.011.13a3.868,3.868,0,0,0-1.364.38A1.482,1.482,0,0,0-30.249-2.644ZM-26.2-6.021a.907.907,0,0,0,.77-.482,1.468,1.468,0,0,0,.111-.64,1.356,1.356,0,0,0-.608-1.239,3.26,3.26,0,0,0-1.74-.385,2.21,2.21,0,0,0-1.855.705,2.32,2.32,0,0,0-.4,1.16h-1.559a2.869,2.869,0,0,1,1.192-2.556,4.895,4.895,0,0,1,2.658-.719,5.408,5.408,0,0,1,2.848.668A2.266,2.266,0,0,1-23.7-7.431v5.724a.733.733,0,0,0,.107.417.515.515,0,0,0,.45.158q.111,0,.25-.014t.3-.042V.046a4.651,4.651,0,0,1-.594.139,4.339,4.339,0,0,1-.557.028A1.373,1.373,0,0,1-25-.4a2.363,2.363,0,0,1-.288-.918,4.249,4.249,0,0,1-1.466,1.16,4.534,4.534,0,0,1-2.106.492,3.132,3.132,0,0,1-2.259-.84,2.789,2.789,0,0,1-.877-2.1A2.707,2.707,0,0,1-31.13-4.75a4.105,4.105,0,0,1,2.264-.937Zm14.352-4.2a4.332,4.332,0,0,1,2.732.816A3.911,3.911,0,0,1-7.853-6.6H-9.477a3,3,0,0,0-.677-1.526,2.139,2.139,0,0,0-1.7-.608,2.346,2.346,0,0,0-2.282,1.559,6.191,6.191,0,0,0-.445,2.5,4.7,4.7,0,0,0,.631,2.514,2.164,2.164,0,0,0,1.985,1.021,2.171,2.171,0,0,0,1.647-.635,3.494,3.494,0,0,0,.84-1.74h1.624A4.358,4.358,0,0,1-9.245-.626a4.342,4.342,0,0,1-2.848.914A3.8,3.8,0,0,1-15.2-1.136a5.451,5.451,0,0,1-1.16-3.558A5.994,5.994,0,0,1-15.09-8.767,4.107,4.107,0,0,1-11.852-10.224ZM-2.24-1.076A2.3,2.3,0,0,0,.037-2.333a6.263,6.263,0,0,0,.617-2.8A4.98,4.98,0,0,0,.209-7.394,2.505,2.505,0,0,0-2.222-8.767,2.4,2.4,0,0,0-4.448-7.6a5.418,5.418,0,0,0-.7,2.82,4.713,4.713,0,0,0,.7,2.644A2.451,2.451,0,0,0-2.24-1.076Zm.065-9.147a4.5,4.5,0,0,1,3.247,1.28A5,5,0,0,1,2.4-5.177,6.462,6.462,0,0,1,1.229-1.206,4.229,4.229,0,0,1-2.4.362,4.1,4.1,0,0,1-5.655-1.025,5.478,5.478,0,0,1-6.861-4.75,5.927,5.927,0,0,1-5.59-8.739,4.266,4.266,0,0,1-2.176-10.224Zm6.559.288H5.97v1.41A4.45,4.45,0,0,1,7.464-9.778a3.983,3.983,0,0,1,1.753-.38,2.891,2.891,0,0,1,2.857,1.475,5.238,5.238,0,0,1,.408,2.31V0h-1.7V-6.262a3.391,3.391,0,0,0-.269-1.466A1.631,1.631,0,0,0,8.9-8.656a3.287,3.287,0,0,0-.974.121,2.509,2.509,0,0,0-1.206.816A2.458,2.458,0,0,0,6.179-6.7a6.838,6.838,0,0,0-.125,1.5V0H4.384ZM26.408-5.585l-2.069-6.021-2.2,6.021Zm-3.034-8.043h2.087L30.406,0H28.384L27-4.082h-5.39L20.136,0H18.244ZM36.056-1.123A2.382,2.382,0,0,0,38-2.1a4.658,4.658,0,0,0,.775-2.927,5.464,5.464,0,0,0-.343-2.041,2.369,2.369,0,0,0-2.375-1.642,2.368,2.368,0,0,0-2.375,1.735,6.876,6.876,0,0,0-.343,2.356,5,5,0,0,0,.343,1.958A2.368,2.368,0,0,0,36.056-1.123ZM31.733-9.89h1.624v1.317a4.053,4.053,0,0,1,1.095-1.048,3.524,3.524,0,0,1,1.985-.557A3.733,3.733,0,0,1,39.3-8.883a5.3,5.3,0,0,1,1.178,3.7q0,3.247-1.7,4.639a3.836,3.836,0,0,1-2.5.881A3.4,3.4,0,0,1,34.4-.158a4.339,4.339,0,0,1-.993-.956V3.961h-1.67Zm14.89,8.767A2.382,2.382,0,0,0,48.567-2.1a4.658,4.658,0,0,0,.775-2.927A5.464,5.464,0,0,0,49-7.069a2.369,2.369,0,0,0-2.375-1.642,2.368,2.368,0,0,0-2.375,1.735,6.876,6.876,0,0,0-.343,2.356,5,5,0,0,0,.343,1.958A2.368,2.368,0,0,0,46.623-1.123ZM42.3-9.89h1.624v1.317a4.053,4.053,0,0,1,1.095-1.048A3.524,3.524,0,0,1,47-10.177,3.733,3.733,0,0,1,49.87-8.883a5.3,5.3,0,0,1,1.178,3.7q0,3.247-1.7,4.639a3.836,3.836,0,0,1-2.5.881,3.4,3.4,0,0,1-1.883-.492,4.339,4.339,0,0,1-.993-.956V3.961H42.3Zm10.743-3.739h1.67V0h-1.67Zm8.313,3.47a4.532,4.532,0,0,1,2.05.5,3.781,3.781,0,0,1,1.512,1.285,4.433,4.433,0,0,1,.668,1.753,11.472,11.472,0,0,1,.148,2.189H58.452a4.25,4.25,0,0,0,.714,2.426,2.392,2.392,0,0,0,2.069.914,2.675,2.675,0,0,0,2.087-.863,2.909,2.909,0,0,0,.631-1.16H65.6a3.459,3.459,0,0,1-.431,1.22,4.339,4.339,0,0,1-.821,1.1A3.892,3.892,0,0,1,62.46.2,5.721,5.721,0,0,1,61.1.353,4.184,4.184,0,0,1,57.951-1a5.252,5.252,0,0,1-1.29-3.781,5.711,5.711,0,0,1,1.3-3.887A4.285,4.285,0,0,1,61.356-10.159Zm2.663,4.4A4.326,4.326,0,0,0,63.545-7.5,2.425,2.425,0,0,0,61.254-8.7a2.54,2.54,0,0,0-1.93.83A3.137,3.137,0,0,0,58.5-5.761Z" transform="translate(372.988 743)" fill="#fff"/><path d="M.241-11.17A4.883,4.883,0,0,0,1.6-11.495a5.18,5.18,0,0,1,1.642-.325,3.5,3.5,0,0,1,2.032.612,5.084,5.084,0,0,1,.993.956A6.346,6.346,0,0,0,5.186-9.129a3.361,3.361,0,0,0-.622,1.967,3.632,3.632,0,0,0,.659,2.125,2.864,2.864,0,0,0,1.5,1.2A9.505,9.505,0,0,1,5.557-1.457Q4.323.408,3.108.408A4.239,4.239,0,0,1,1.777.1,4.377,4.377,0,0,0,.343-.2a3.641,3.641,0,0,0-1.359.32,3.5,3.5,0,0,1-1.257.32q-1.457,0-2.857-2.468a9.578,9.578,0,0,1-1.4-4.787A5.608,5.608,0,0,1-5.46-10.372a3.3,3.3,0,0,1,2.7-1.373,6.2,6.2,0,0,1,1.684.288A6.065,6.065,0,0,0,.241-11.17ZM3.145-15a3.563,3.563,0,0,1-.278,1.3,3.849,3.849,0,0,1-.881,1.308,2.825,2.825,0,0,1-1.03.687,4.907,4.907,0,0,1-.983.158A4.256,4.256,0,0,1,.71-13.99a3.787,3.787,0,0,1,2.38-1.41,1.116,1.116,0,0,1,.046.213Q3.145-15.094,3.145-15Z" transform="translate(291.326 743)" fill="#fff"/></g></svg>