<svg xmlns="http://www.w3.org/2000/svg" width="293" height="54" viewBox="0 0 293 54"><g transform="translate(-215 -710)"><path d="M6,0H287a6,6,0,0,1,6,6V48a6,6,0,0,1-6,6H6a6,6,0,0,1-6-6V6A6,6,0,0,1,6,0Z" transform="translate(215 710)" fill="#fecf67"/><path d="M334.616,61.327h-6.857a.953.953,0,0,0-.942.8l-2.773,17.584a.572.572,0,0,0,.565.66h3.274a.953.953,0,0,0,.942-.805l.748-4.743a.953.953,0,0,1,.94-.805h2.171c4.517,0,7.124-2.186,7.8-6.518a5.282,5.282,0,0,0-.874-4.427C338.64,61.932,336.911,61.327,334.616,61.327Zm.791,6.422c-.375,2.461-2.255,2.461-4.073,2.461H330.3l.726-4.6a.572.572,0,0,1,.565-.482h.474c1.238,0,2.406,0,3.01.706A2.285,2.285,0,0,1,335.407,67.749Zm19.707-.079H351.83a.572.572,0,0,0-.565.482l-.145.918-.23-.333c-.711-1.032-2.3-1.377-3.878-1.377a7.551,7.551,0,0,0-7.332,6.6,6.2,6.2,0,0,0,1.223,5.045,5.138,5.138,0,0,0,4.136,1.67,6.283,6.283,0,0,0,4.545-1.88l-.146.912a.572.572,0,0,0,.564.662h2.958a.953.953,0,0,0,.941-.805l1.775-11.239a.57.57,0,0,0-.562-.66Zm-4.577,6.391a3.66,3.66,0,0,1-3.7,3.135A2.544,2.544,0,0,1,344.111,74a3.676,3.676,0,0,1,3.68-3.16,2.77,2.77,0,0,1,2.19.894A2.842,2.842,0,0,1,350.537,74.061ZM372.6,67.67h-3.3a.956.956,0,0,0-.789.418l-4.551,6.7-1.929-6.442a.956.956,0,0,0-.914-.68h-3.243a.572.572,0,0,0-.542.756l3.635,10.667-3.417,4.824a.572.572,0,0,0,.466.9h3.3a.952.952,0,0,0,.783-.409l10.975-15.843a.572.572,0,0,0-.469-.9Z" transform="translate(11.26 667.313)" fill="#253b80"/><path d="M777.877,61.319h-6.858a.953.953,0,0,0-.941.8L767.3,79.707a.571.571,0,0,0,.564.66h3.519a.667.667,0,0,0,.658-.564l.787-4.984a.953.953,0,0,1,.941-.805h2.17c4.518,0,7.124-2.186,7.806-6.518a5.279,5.279,0,0,0-.875-4.427C781.9,61.924,780.173,61.319,777.877,61.319Zm.791,6.422c-.374,2.461-2.254,2.461-4.073,2.461h-1.034l.727-4.6a.57.57,0,0,1,.564-.482h.474c1.237,0,2.406,0,3.01.706A2.285,2.285,0,0,1,778.669,67.741Zm19.706-.079h-3.282a.568.568,0,0,0-.563.482l-.145.918-.231-.333c-.711-1.032-2.3-1.377-3.877-1.377a7.55,7.55,0,0,0-7.331,6.6A6.2,6.2,0,0,0,784.167,79a5.141,5.141,0,0,0,4.136,1.67,6.283,6.283,0,0,0,4.545-1.88l-.146.912a.571.571,0,0,0,.565.662h2.957a.953.953,0,0,0,.941-.805l1.776-11.239a.573.573,0,0,0-.567-.66ZM793.8,74.053a3.658,3.658,0,0,1-3.7,3.135A2.544,2.544,0,0,1,787.372,74a3.677,3.677,0,0,1,3.68-3.16,2.77,2.77,0,0,1,2.19.894A2.828,2.828,0,0,1,793.8,74.053ZM802.246,61.8l-2.815,17.906a.571.571,0,0,0,.564.66h2.83a.951.951,0,0,0,.942-.805l2.775-17.583a.572.572,0,0,0-.564-.661h-3.168A.573.573,0,0,0,802.246,61.8Z" transform="translate(-383.088 667.32)" fill="#179bd7"/><path d="M15.863,37.511l.524-3.331-1.168-.027H9.641L13.518,9.574a.317.317,0,0,1,.315-.269h9.405c3.122,0,5.277.65,6.4,1.932a4.405,4.405,0,0,1,1.026,1.922,6.939,6.939,0,0,1,.007,2.651l-.012.077v.678l.527.3a3.7,3.7,0,0,1,1.068.814,3.791,3.791,0,0,1,.866,1.943A8.22,8.22,0,0,1,33,22.441a9.929,9.929,0,0,1-1.155,3.192,6.565,6.565,0,0,1-1.83,2.005,7.424,7.424,0,0,1-2.465,1.112,12.291,12.291,0,0,1-3.08.356h-.732a2.2,2.2,0,0,0-2.177,1.858l-.055.3-.926,5.871-.042.216a.185.185,0,0,1-.058.125.155.155,0,0,1-.1.035Z" transform="translate(290.963 713.594)" fill="#253b80"/><path d="M73.137,69.668q-.042.269-.1.551c-1.24,6.368-5.484,8.568-10.9,8.568H59.378a1.34,1.34,0,0,0-1.325,1.135l-1.413,8.96-.4,2.54a.706.706,0,0,0,.7.816h4.894A1.178,1.178,0,0,0,63,91.246L63.043,91l.921-5.848.059-.321a1.177,1.177,0,0,1,1.163-.995h.732c4.742,0,8.454-1.925,9.539-7.5.453-2.327.219-4.27-.981-5.637A4.68,4.68,0,0,0,73.137,69.668Z" transform="translate(249.514 659.891)" fill="#179bd7"/><path d="M86.526,61.387a9.784,9.784,0,0,0-1.206-.268,15.325,15.325,0,0,0-2.433-.177H75.515a1.175,1.175,0,0,0-1.162.995L72.785,71.87l-.045.29a1.34,1.34,0,0,1,1.325-1.135h2.759c5.42,0,9.663-2.2,10.9-8.568.037-.189.068-.372.1-.551a6.612,6.612,0,0,0-1.02-.43Q86.665,61.429,86.526,61.387Z" transform="translate(234.828 667.654)" fill="#222d65"/><path d="M9.641,7.72A1.172,1.172,0,0,1,10.8,6.726h7.372a15.325,15.325,0,0,1,2.433.177,9.783,9.783,0,0,1,1.485.354,6.711,6.711,0,0,1,1.02.43c.369-2.353,0-3.956-1.275-5.407C20.434.684,17.9,0,14.662,0H5.257A1.344,1.344,0,0,0,3.928,1.136L.011,25.968a.808.808,0,0,0,.8.935H6.614l1.458-9.25Z" transform="translate(299.541 721.871)" fill="#253b80"/></g></svg>