<?xml version="1.0" encoding="UTF-8" standalone="no"?><!DOCTYPE svg PUBLIC "-//W3C//DTD SVG 1.1//EN" "http://www.w3.org/Graphics/SVG/1.1/DTD/svg11.dtd"><svg width="100%" height="100%" viewBox="0 0 37 33" version="1.1" xmlns="http://www.w3.org/2000/svg" xmlns:xlink="http://www.w3.org/1999/xlink" xml:space="preserve" xmlns:serif="http://www.serif.com/" style="fill-rule:evenodd;clip-rule:evenodd;stroke-linejoin:round;stroke-miterlimit:2;"><g><path d="M5.217,32.965l25.784,0c1.84,0.006 3.55,-0.968 4.482,-2.554c0.939,-1.588 0.939,-3.569 0,-5.157l-12.916,-22.654c-0.917,-1.607 -2.632,-2.602 -4.482,-2.602c-1.85,-0 -3.565,0.995 -4.482,2.602l-12.916,22.654c-0.915,1.595 -0.915,3.562 0,5.157c0.97,1.572 2.683,2.538 4.53,2.554Zm-3.229,-6.988l12.916,-22.652c0.659,-1.161 1.895,-1.88 3.229,-1.88c1.334,0 2.57,0.719 3.229,1.88l12.916,22.652c0.328,0.563 0.501,1.203 0.501,1.855c-0,2.023 -1.665,3.687 -3.687,3.687c-0.014,0 -0.029,0 -0.043,-0l-25.832,-0c-0.014,0 -0.029,0 -0.043,0c-2.022,0 -3.687,-1.664 -3.687,-3.687c0,-0.652 0.173,-1.292 0.501,-1.855Z" style="fill:currentColor;fill-rule:nonzero;"/><path d="M17.892,21.058c0.393,-0.009 0.714,-0.33 0.723,-0.723l0,-9.154c0,-0.397 -0.326,-0.723 -0.723,-0.723c-0.397,-0 -0.723,0.326 -0.723,0.723l0,9.157c0.011,0.392 0.331,0.711 0.723,0.72Z" style="fill:currentColor;fill-rule:nonzero;"/><path d="M17.892,26.363c0.393,-0.009 0.714,-0.33 0.723,-0.723l0,-1.446c-0,-0.397 -0.326,-0.723 -0.723,-0.723c-0.397,0 -0.723,0.326 -0.723,0.723l0,1.446c0.009,0.393 0.33,0.714 0.723,0.723Z" style="fill:currentColor;fill-rule:nonzero;"/></g></svg>