<?xml version="1.0" encoding="UTF-8" standalone="no"?><!DOCTYPE svg PUBLIC "-//W3C//DTD SVG 1.1//EN" "http://www.w3.org/Graphics/SVG/1.1/DTD/svg11.dtd"><svg width="100%" height="100%" viewBox="0 0 52 52" version="1.1" xmlns="http://www.w3.org/2000/svg" xmlns:xlink="http://www.w3.org/1999/xlink" xml:space="preserve" xmlns:serif="http://www.serif.com/" style="fill-rule:evenodd;clip-rule:evenodd;stroke-linejoin:round;stroke-miterlimit:2;"><g><g><path d="M26,0c14.263,-0 26,11.737 26,26c0,14.263 -11.737,26 -26,26c-14.263,0 -26,-11.737 -26,-26c-0,-14.263 11.737,-26 26,-26Z" style="fill:none;fill-rule:nonzero;"/><path d="M26,3c-3.106,0 -6.118,0.608 -8.952,1.806c-2.738,1.159 -5.198,2.817 -7.311,4.931c-2.114,2.113 -3.772,4.573 -4.931,7.311c-1.198,2.834 -1.806,5.846 -1.806,8.952c-0,3.106 0.608,6.118 1.806,8.952c1.159,2.738 2.817,5.198 4.931,7.311c2.113,2.114 4.573,3.772 7.311,4.931c2.834,1.198 5.846,1.806 8.952,1.806c3.106,0 6.118,-0.608 8.952,-1.806c2.738,-1.159 5.198,-2.817 7.311,-4.931c2.114,-2.113 3.772,-4.573 4.931,-7.311c1.198,-2.834 1.806,-5.846 1.806,-8.952c0,-3.106 -0.608,-6.118 -1.806,-8.952c-1.159,-2.738 -2.817,-5.198 -4.931,-7.311c-2.113,-2.114 -4.573,-3.772 -7.311,-4.931c-2.834,-1.198 -5.846,-1.806 -8.952,-1.806m0,-3c14.359,-0 26,11.641 26,26c0,14.359 -11.641,26 -26,26c-14.359,0 -26,-11.641 -26,-26c0,-14.359 11.641,-26 26,-26Z" style="fill:currentColor;fill-rule:nonzero;"/></g><path d="M31.532,21.064l2.08,2.162l-9.05,8.705l-6.175,-5.892l2.073,-2.17l4.1,3.908l6.972,-6.713Z" style="fill:currentColor;fill-rule:nonzero;"/></g></svg>