<svg width="100%" height="100%" viewBox="0 0 52 52" version="1.1" xmlns="http://www.w3.org/2000/svg" xmlns:xlink="http://www.w3.org/1999/xlink" xml:space="preserve" xmlns:serif="http://www.serif.com/" style="fill-rule:evenodd;clip-rule:evenodd;stroke-linejoin:round;stroke-miterlimit:2;"><g><path d="M26,49c12.615,-0.009 22.991,-10.392 22.991,-23.007c-0,-9.223 -5.546,-17.592 -14.039,-21.187c-2.784,-1.15 -5.768,-1.741 -8.78,-1.741c-12.622,-0 -23.007,10.385 -23.007,23.007c-0,9.163 5.474,17.49 13.887,21.122c2.831,1.198 5.874,1.812 8.948,1.806m0,3c-14.263,-0 -26,-11.737 -26,-26c0,-14.263 11.737,-26 26,-26c14.263,-0 26,11.737 26,26c0,14.263 -11.737,26 -26,26Z" style="fill:currentColor;fill-rule:nonzero;"/><path d="M29.922,32.293l-1.414,1.414l-7.709,-7.707l7.709,-7.705l1.414,1.412l-6.295,6.293l6.295,6.293Z" style="fill:currentColor;fill-rule:nonzero;"/></g></svg>