<svg xmlns="http://www.w3.org/2000/svg" width="35.904" height="48.671" viewBox="0 0 35.904 48.671">
  <g id="Group_551" data-name="Group 551" transform="translate(-3.855 -0.822)">
    <path id="Path_944" data-name="Path 944" d="M12.326,10.846A7.976,7.976,0,0,0,6.692,24.46l9.484,9.488,5.633,5.631,5.635-5.635,5.265-5.271,4.215-4.213a7.971,7.971,0,1,0-11.27-11.275l-3.845,3.849-3.847-3.849A7.948,7.948,0,0,0,12.326,10.846Zm18.962,1.036a6.942,6.942,0,0,1,4.9,11.844l-4.215,4.213-5.265,5.267-4.9,4.9-4.9-4.893L7.429,23.726a6.931,6.931,0,1,1,9.8-9.8L21.808,18.5l4.583-4.583A6.9,6.9,0,0,1,31.288,11.882Z" transform="translate(0 9.208)" class="color-stroke" stroke-width="1"/>
    <path id="Path_945" data-name="Path 945" d="M17.145,1.322A7.973,7.973,0,1,0,25.115,9.3,7.98,7.98,0,0,0,17.145,1.322Zm0,1.042A6.931,6.931,0,1,1,10.218,9.3,6.924,6.924,0,0,1,17.145,2.364Z" transform="translate(4.663 0)" class="color-stroke" stroke-width="1"/>
  </g>
</svg>
