<?xml version="1.0" encoding="UTF-8" standalone="no"?>
<svg width="100%" height="100%" viewBox="0 0 15 14" version="1.1" xmlns="http://www.w3.org/2000/svg" xmlns:xlink="http://www.w3.org/1999/xlink" xml:space="preserve" xmlns:serif="http://www.serif.com/" style="fill-rule:evenodd;clip-rule:evenodd;stroke-linejoin:round;stroke-miterlimit:2;">
<path style="fill:currentColor" d="M14.164,13.538l-3.037,0l0,-4.886c0,-1.227 -0.439,-2.066 -1.539,-2.066c-0.7,0.006 -1.325,0.453 -1.557,1.114c-0.078,0.239 -0.112,0.489 -0.1,0.74l0,5.1l-3.031,-0c0,-0 0.039,-8.277 0,-9.132l3.031,-0l0,1.292c0.559,-0.972 1.616,-1.555 2.737,-1.508c2,-0 3.5,1.3 3.5,4.11l-0.004,5.236Zm-12.464,-10.381l-0.023,-0c-0.035,0.002 -0.07,0.004 -0.105,0.004c-0.862,-0 -1.572,-0.71 -1.572,-1.572c-0,-0.004 -0,-0.007 0,-0.011c0.001,-0.869 0.716,-1.583 1.585,-1.583c0.044,-0 0.087,0.001 0.131,0.005c0.041,-0.003 0.081,-0.005 0.122,-0.005c0.866,0 1.578,0.713 1.578,1.578l0,0.006c0,0.868 -0.715,1.584 -1.584,1.584c-0.044,-0 -0.088,-0.002 -0.132,-0.006Zm-1.521,10.381l3.037,-0l0,-9.132l-3.037,-0l0,9.132Z"/>
</svg>