<?xml version="1.0" encoding="UTF-8" standalone="no"?>
<svg width="100%" height="100%" viewBox="0 0 7 14" version="1.1" xmlns="http://www.w3.org/2000/svg" xmlns:xlink="http://www.w3.org/1999/xlink" xml:space="preserve" xmlns:serif="http://www.serif.com/" style="fill-rule:evenodd;clip-rule:evenodd;stroke-linejoin:round;stroke-miterlimit:2;">
<path style="fill:currentColor" d="M6.4,6.777l-2.01,-0l0,6.767l-2.979,0l0,-6.767l-1.411,-0l-0,-2.391l1.416,-0l-0,-1.547c-0.003,-0.05 -0.004,-0.099 -0.004,-0.149c-0,-1.485 1.222,-2.707 2.707,-2.707c0.101,-0 0.202,0.006 0.303,0.017l2.206,0.008l-0,2.321l-1.6,0c-0.015,-0.001 -0.03,-0.002 -0.045,-0.002c-0.324,0 -0.59,0.267 -0.59,0.59c-0,0.022 0.001,0.043 0.003,0.064l-0,1.405l2.27,0l-0.266,2.391Z"/>
</svg>