<?xml version="1.0" encoding="UTF-8" standalone="no"?>
<svg width="100%" height="100%" viewBox="0 0 16 16" version="1.1" xmlns="http://www.w3.org/2000/svg" xmlns:xlink="http://www.w3.org/1999/xlink" xml:space="preserve" xmlns:serif="http://www.serif.com/" style="fill-rule:evenodd;clip-rule:evenodd;stroke-linejoin:round;stroke-miterlimit:2;">
<path style="fill:currentColor" d="M7.912,0c-2.149,0 -2.418,0.009 -3.262,0.048c-0.657,0.013 -1.307,0.139 -1.921,0.372c-0.528,0.202 -1.006,0.517 -1.4,0.923c-0.403,0.401 -0.715,0.884 -0.913,1.417c-0.23,0.622 -0.355,1.279 -0.368,1.942c-0.039,0.853 -0.048,1.126 -0.048,3.3c0,2.174 0.009,2.445 0.048,3.3c0.013,0.663 0.138,1.32 0.368,1.942c0.198,0.533 0.509,1.017 0.912,1.418c0.394,0.406 0.872,0.721 1.4,0.923c0.614,0.233 1.264,0.359 1.921,0.372c0.844,0.039 1.113,0.048 3.262,0.048c2.149,0 2.418,-0.009 3.262,-0.048c0.659,-0.014 1.311,-0.142 1.927,-0.377c0.528,-0.2 1.006,-0.514 1.4,-0.918c0.403,-0.401 0.715,-0.884 0.913,-1.417c0.23,-0.622 0.355,-1.279 0.368,-1.942c0.039,-0.853 0.048,-1.126 0.048,-3.3c-0,-2.174 -0.009,-2.445 -0.048,-3.3c-0.013,-0.663 -0.138,-1.32 -0.368,-1.942c-0.198,-0.533 -0.51,-1.016 -0.913,-1.417c-0.394,-0.406 -0.872,-0.721 -1.4,-0.923c-0.614,-0.233 -1.264,-0.359 -1.921,-0.372c-0.844,-0.039 -1.113,-0.048 -3.262,-0.048m-0,1.441c2.113,-0 2.363,0.008 3.2,0.047c0.502,0.006 0.999,0.099 1.469,0.275c0.345,0.129 0.656,0.334 0.91,0.6c0.263,0.259 0.466,0.573 0.592,0.92c0.174,0.476 0.266,0.978 0.272,1.485c0.038,0.844 0.046,1.1 0.046,3.233c-0,2.133 -0.008,2.389 -0.046,3.233c-0.006,0.507 -0.098,1.009 -0.272,1.485c-0.126,0.347 -0.329,0.661 -0.592,0.92c-0.254,0.266 -0.565,0.471 -0.91,0.6c-0.47,0.176 -0.967,0.269 -1.469,0.275c-0.834,0.038 -1.084,0.047 -3.2,0.047c-2.116,0 -2.363,-0.008 -3.2,-0.047c-0.502,-0.006 -0.999,-0.099 -1.469,-0.275c-0.345,-0.129 -0.656,-0.334 -0.91,-0.6c-0.263,-0.259 -0.466,-0.573 -0.592,-0.92c-0.174,-0.476 -0.266,-0.978 -0.272,-1.485c-0.038,-0.844 -0.046,-1.1 -0.046,-3.233c-0,-2.133 0.008,-2.389 0.046,-3.233c0.006,-0.507 0.098,-1.009 0.272,-1.485c0.126,-0.347 0.329,-0.661 0.592,-0.92c0.254,-0.266 0.565,-0.471 0.91,-0.6c0.47,-0.176 0.967,-0.269 1.469,-0.275c0.834,-0.038 1.085,-0.047 3.2,-0.047"/>
<path style="fill:currentColor" d="M7.912,10.699c-1.449,-0.008 -2.637,-1.203 -2.637,-2.652l-0,-0.03c-0,-1.449 1.188,-2.644 2.637,-2.652c1.449,0.008 2.637,1.203 2.637,2.652l0,0.03c0,1.449 -1.188,2.644 -2.637,2.652m0,-6.775c-2.241,0.013 -4.075,1.867 -4.063,4.108c-0.012,2.241 1.822,4.095 4.063,4.108c2.241,-0.013 4.075,-1.867 4.063,-4.108c0.012,-2.241 -1.822,-4.095 -4.063,-4.108"/>
<path style="fill:currentColor" d="M13.086,3.761c0.003,0.524 -0.425,0.957 -0.949,0.96c-0.522,-0.003 -0.95,-0.433 -0.95,-0.955l-0,-0.01c-0,-0.522 0.428,-0.952 0.95,-0.955c0.524,0.003 0.952,0.436 0.949,0.96"/>
</svg>