<svg xmlns="http://www.w3.org/2000/svg" width="38.84" height="33.014" viewBox="0 0 38.84 33.014"><g transform="translate(-8 -13.5)"><path d="M46.386,23.364v0l-.013-.008,0,0h0l-5.355-3.382v-5.5a.971.971,0,0,0-.97-.971H14.8a.971.971,0,0,0-.971.97h0v5.5L8.471,23.349h0l0,0-.013.009v0A.972.972,0,0,0,8,24.181V45.543a.971.971,0,0,0,.97.971h36.9a.971.971,0,0,0,.971-.97h0V24.181A.971.971,0,0,0,46.386,23.364Zm-2.456.74-2.916,1.535V22.263Zm-4.858-8.663V26.661L27.42,32.794,15.768,26.661V15.442Zm-25.246,10.2L10.91,24.1l2.916-1.841ZM44.9,44.572H9.942V25.789L26.968,34.75a.961.961,0,0,0,.9,0L44.9,25.789Z" fill="#fff"/><path d="M32.971,27.442H46.565a.971.971,0,0,0,0-1.942H32.971a.971.971,0,1,0,0,1.942Z" transform="translate(-12.348 -6.174)" fill="#fff"/><path d="M32.971,35.442H46.565a.971.971,0,1,0,0-1.942H32.971a.971.971,0,1,0,0,1.942Z" transform="translate(-12.348 -10.29)" fill="#fff"/></g></svg>