<?xml version="1.0" encoding="UTF-8" standalone="no"?><svg width="100%" height="100%" viewBox="0 0 15 15" version="1.1" xmlns="http://www.w3.org/2000/svg" xmlns:xlink="http://www.w3.org/1999/xlink" xml:space="preserve" xmlns:serif="http://www.serif.com/" style="fill-rule:evenodd;clip-rule:evenodd;stroke-linejoin:round;stroke-miterlimit:2;"><g><path d="M9.27,11.032c-0.941,0.612 -2.064,0.968 -3.27,0.968c-3.314,-0 -6,-2.686 -6,-6c-0,-3.314 2.686,-6 6,-6c3.314,-0 6,2.686 6,6c-0,1.383 -0.468,2.657 -1.254,3.672l4.061,3.724l-1.352,1.474l-4.185,-3.838Zm-7.27,-5.032c-0,2.206 1.794,4 4,4c2.206,-0 4,-1.794 4,-4c-0,-2.206 -1.794,-4 -4,-4c-2.206,-0 -4,1.794 -4,4Z" style="fill:currentColor;fill-rule:nonzero;"/></g></svg>