<svg xmlns="http://www.w3.org/2000/svg" width="48.765" height="42.264" viewBox="0 0 48.765 42.264">
  <path stroke="#7ca365" stroke-width="0.3" id="Path_649" data-name="Path 649" d="M39.149,6.238a.813.813,0,0,0-1.149,0l-5.568,5.568L26.88,13.979l-6.56-2.187L14.766,6.238a.813.813,0,0,0-1.149,0L2.238,17.617a.813.813,0,0,0,0,1.149l5.515,5.515,1.492,7.46-.645.645A3.111,3.111,0,0,0,10.8,37.7c.052,0,.1-.012.154-.015,0,.053-.015.1-.015.155a3.116,3.116,0,0,0,3.112,3.111c.052,0,.1-.012.154-.015,0,.053-.015.1-.015.155A3.116,3.116,0,0,0,17.3,44.2c.052,0,.1-.012.154-.015,0,.053-.015.1-.015.155a3.111,3.111,0,0,0,5.311,2.2h0l.784-.784,1.6,1.6a3.111,3.111,0,0,0,5.312-2.2c0-.053-.012-.1-.015-.155.052,0,.1.015.154.015A3.116,3.116,0,0,0,33.7,41.9c0-.053-.012-.1-.015-.155.052,0,.1.015.154.015a3.116,3.116,0,0,0,3.112-3.111c0-.053-.012-.1-.015-.155.052,0,.1.015.154.015a3.111,3.111,0,0,0,2.2-5.311l-.461-.462,6.056-8.327,5.645-5.645a.813.813,0,0,0,0-1.149ZM14.192,7.962l4.54,4.54L8.5,22.732l-4.54-4.54ZM10.8,36.072a1.486,1.486,0,0,1-1.051-2.537l1.091-1.092a1.486,1.486,0,1,1,2.1,2.1l-1.091,1.092A1.477,1.477,0,0,1,10.8,36.072Zm3.251,3.251A1.486,1.486,0,0,1,13,36.787l1.091-1.092a1.486,1.486,0,1,1,2.1,2.1L15.1,38.889A1.477,1.477,0,0,1,14.053,39.323ZM17.3,42.575a1.486,1.486,0,0,1-1.051-2.537l1.091-1.092a1.486,1.486,0,1,1,2.1,2.1L18.355,42.14A1.477,1.477,0,0,1,17.3,42.575ZM22.7,44.3l-1.091,1.092a1.486,1.486,0,1,1-2.1-2.1L20.595,42.2a1.486,1.486,0,1,1,2.1,2.1Zm14.392-7.413a1.477,1.477,0,0,1-1.051-.435l-3.39-3.391L31.5,34.209,34.889,37.6a1.486,1.486,0,0,1-2.1,2.1L29.4,36.311,28.247,37.46l3.391,3.391a1.486,1.486,0,0,1-2.1,2.1l-3.39-3.391L25,40.711,28.387,44.1a1.486,1.486,0,0,1-2.1,2.1l-1.762-1.76a3.115,3.115,0,0,0-2.876-4.308c-.052,0-.1.012-.154.015,0-.053.015-.1.015-.155a3.116,3.116,0,0,0-3.112-3.111c-.052,0-.1.012-.154.015,0-.053.015-.1.015-.155a3.116,3.116,0,0,0-3.112-3.111c-.052,0-.1.012-.154.015,0-.053.015-.1.015-.155a3.111,3.111,0,0,0-4.324-2.867l-1.3-6.481L20.1,13.432,24.514,14.9l-1.274.5a.818.818,0,0,0-.279.183L15.1,23.446a3.111,3.111,0,0,0,4.4,4.4h0l3.663-3.664A6.51,6.51,0,0,0,27.2,25.564a6.578,6.578,0,0,0,1.885-.275l9.059,9.059a1.487,1.487,0,0,1-1.052,2.537Zm.576-5.311-7-7a6.636,6.636,0,0,0,1.174-.927l.813-.813L31.5,21.681l-.813.813a4.936,4.936,0,0,1-6.978,0,.813.813,0,0,0-1.149,0l-4.2,4.2a1.486,1.486,0,1,1-2.1-2.1l7.74-7.741,2.933-1.148h.013V15.7l5.744-2.247L43.2,23.962Zm6.6-8.843L34.034,12.5l4.54-4.54L48.8,18.192Z" transform="translate(-2 -6)" fill="#7ca365"/>
</svg>
