<svg xmlns="http://www.w3.org/2000/svg" width="58.533" height="60.561" viewBox="0 0 58.533 60.561">
  <g id="Group_286" data-name="Group 286" transform="translate(20.023 -3.366) rotate(31)">
    <path id="Path_717" data-name="Path 717" d="M14.979,40.957a.7.7,0,0,0-.985.985l5.1,5.1a.7.7,0,1,0,.985-.985Z" transform="translate(-2.624 -12.056)" fill="#7ca365" stroke="#7ca365" stroke-width="0.2"/>
    <path id="Path_718" data-name="Path 718" d="M18.274,36.677a.7.7,0,0,0,0,.985l5.1,5.1a.7.7,0,1,0,.985-.985l-5.1-5.1A.7.7,0,0,0,18.274,36.677Z" transform="translate(-3.922 -10.758)" fill="#7ca365" stroke="#7ca365" stroke-width="0.2"/>
    <path id="Path_719" data-name="Path 719" d="M45.3,26.091a1.4,1.4,0,0,0-.353-1.4L37.419,17.17l1.89-3.779a1.537,1.537,0,0,0-.288-1.778L34.745,7.338a1.566,1.566,0,0,0-1.778-.289l-3.779,1.89L21.662,1.412a1.4,1.4,0,0,0-2.369.708L15.55,20.19,7.283,28.458a3.2,3.2,0,0,0-.136,4.4L5.836,34.168a2.382,2.382,0,0,0,0,3.371l2.982,2.983a2.382,2.382,0,0,0,3.371,0L13.5,39.21a3.2,3.2,0,0,0,4.4-.136l.136-.137,7.224,7.224a2.805,2.805,0,1,0,3.967-3.967l-2.159-2.16,1.449-1.45a1.05,1.05,0,0,0,.215-1.086c-.277-1.026-1.86-3.059-2.707-3.282a.763.763,0,0,0-.19-.023l-3.107.054,3.44-3.44,18.069-3.743A1.4,1.4,0,0,0,45.3,26.091ZM33.655,8.279a.148.148,0,0,1,.1.043L38.035,12.6a.146.146,0,0,1,.027.169l-1.681,3.363L30.228,9.979ZM11.2,39.536a1.013,1.013,0,0,1-1.4,0L6.821,36.554a.99.99,0,0,1,0-1.4l1.3-1.3L12.5,38.24Zm17.037,5.64a1.447,1.447,0,0,1-2,0l-7.224-7.224,1.995-1.995,4.571,4.571a.157.157,0,0,0,.014.009l2.641,2.641A1.411,1.411,0,0,1,28.241,45.176Zm-.879-7.408-1.28,1.281-3.408-3.408,3.022-.052A7.073,7.073,0,0,1,27.362,37.768Zm-10.447.321a1.879,1.879,0,0,1-2.594,0L8.268,32.037a1.837,1.837,0,0,1,0-2.594l7.923-7.922,8.646,8.646Zm9.134-8.681-9.1-9.1L20.677,2.4,43.954,25.7Z" fill="#7ca365" stroke="#7ca365" stroke-width="0.2"/>
  </g>
</svg>
