<?xml version="1.0" encoding="UTF-8" standalone="no"?><!DOCTYPE svg PUBLIC "-//W3C//DTD SVG 1.1//EN" "http://www.w3.org/Graphics/SVG/1.1/DTD/svg11.dtd"><svg width="100%" height="100%" viewBox="0 0 17 18" version="1.1" xmlns="http://www.w3.org/2000/svg" xmlns:xlink="http://www.w3.org/1999/xlink" xml:space="preserve" xmlns:serif="http://www.serif.com/" style="fill-rule:evenodd;clip-rule:evenodd;stroke-linejoin:round;stroke-miterlimit:2;"><g><path d="M5.279,15.558c0.304,-0 0.555,-0.251 0.555,-0.555l0,-8.89c0,-0.304 -0.251,-0.555 -0.555,-0.555c-0.304,-0 -0.555,0.251 -0.555,0.555l0,8.891c0.001,0.304 0.251,0.554 0.555,0.554Z" style="fill:currentColor;fill-rule:nonzero;"/><path d="M10.835,15.558c0.304,-0 0.555,-0.251 0.555,-0.555l0,-8.89c0,-0.304 -0.251,-0.555 -0.555,-0.555c-0.304,-0 -0.555,0.251 -0.555,0.555l0,8.891c0.001,0.304 0.251,0.554 0.555,0.554Z" style="fill:currentColor;fill-rule:nonzero;"/><path d="M8.057,15.558c0.304,-0 0.555,-0.251 0.555,-0.555l-0,-8.89c-0,-0.304 -0.251,-0.555 -0.555,-0.555c-0.304,-0 -0.555,0.251 -0.555,0.555l-0,8.891c0.001,0.304 0.251,0.554 0.555,0.554Z" style="fill:currentColor;fill-rule:nonzero;"/><path d="M15.837,2.64l-4.445,-0l-0,-0.973c-0.002,-0.914 -0.754,-1.666 -1.668,-1.667l-3.335,-0c-0.914,0.002 -1.665,0.753 -1.667,1.667l-0,0.973l-4.442,-0c-0.153,-0 -0.279,0.126 -0.279,0.279l-0,0.836c-0,0.153 0.126,0.279 0.279,0.279l1.112,-0l-0,11.525c0.003,1.218 1.003,2.219 2.221,2.223l8.891,0c1.218,-0.003 2.22,-1.005 2.223,-2.223l-0,-11.531l1.112,0c0.151,-0.001 0.275,-0.124 0.277,-0.275l0,-0.835c0,-0.153 -0.125,-0.278 -0.278,-0.278c-0,-0 -0.001,-0 -0.001,-0Zm-10,-0.972c0.001,-0.304 0.251,-0.554 0.555,-0.555l3.335,-0c0.304,0.001 0.554,0.251 0.555,0.555l-0,0.972l-4.448,-0l0.003,-0.972Zm7.78,13.891c-0.003,0.608 -0.502,1.108 -1.11,1.112l-8.893,0c-0.607,-0.004 -1.106,-0.503 -1.11,-1.11l-0,-11.533l11.111,0l0.002,11.531Z" style="fill:currentColor;fill-rule:nonzero;"/></g></svg>