<?xml version="1.0" standalone="no"?>
<!DOCTYPE svg PUBLIC "-//W3C//DTD SVG 20010904//EN"
 "http://www.w3.org/TR/2001/REC-SVG-20010904/DTD/svg10.dtd">
<svg version="1.0" xmlns="http://www.w3.org/2000/svg"
 width="700.000000pt" height="700.000000pt" viewBox="0 0 700.000000 700.000000"
 preserveAspectRatio="xMidYMid meet">
<metadata>
Created by potrace 1.14, written by Peter Selinger 2001-2017
</metadata>
<g transform="translate(0.000000,700.000000) scale(0.100000,-0.100000)"
fill="#000000" stroke="none">
<path d="M3255 6994 c-635 -50 -1208 -248 -1719 -594 -1117 -756 -1698 -2081
-1496 -3411 225 -1484 1388 -2666 2864 -2914 229 -38 381 -48 663 -42 270 5
403 19 618 63 927 190 1732 745 2245 1547 268 420 442 895 516 1412 21 152 30
596 14 767 -70 773 -384 1481 -912 2055 -553 600 -1294 985 -2108 1093 -149
20 -556 34 -685 24z m470 -213 c22 -6 75 -11 117 -11 86 0 187 -18 168 -30 -9
-5 -8 -9 4 -13 8 -3 16 -2 18 4 3 10 310 -50 403 -80 33 -10 98 -35 145 -54
47 -19 100 -38 118 -42 128 -27 514 -237 692 -376 58 -45 128 -96 156 -113 29
-17 80 -56 114 -86 64 -56 157 -169 152 -184 -2 -5 4 -6 12 -3 36 14 195 -164
371 -418 147 -211 154 -222 148 -244 -2 -10 2 -23 11 -30 11 -9 13 -19 6 -36
-7 -17 -5 -25 6 -29 8 -3 14 0 14 7 0 7 7 4 15 -7 9 -11 12 -30 8 -47 -4 -22
-2 -28 8 -24 15 5 95 -172 159 -350 17 -49 47 -124 65 -165 19 -41 43 -122 55
-180 11 -58 25 -127 30 -153 6 -27 10 -74 10 -105 0 -31 6 -91 14 -132 20
-101 22 -168 8 -182 -7 -7 -12 -21 -12 -33 0 -12 -6 -27 -12 -34 -10 -11 -10
-13 0 -7 6 4 12 2 12 -3 0 -23 19 -9 23 17 2 15 4 -27 3 -93 -1 -67 -5 -123
-11 -127 -6 -5 -6 -11 2 -16 10 -6 11 -27 4 -88 -6 -43 -13 -119 -16 -169 -4
-49 -13 -118 -21 -153 -8 -35 -14 -91 -14 -126 0 -41 -12 -104 -35 -185 -43
-150 -124 -358 -125 -319 0 15 -5 30 -12 34 -8 5 -9 -2 -3 -27 13 -59 8 -78
-49 -193 -137 -270 -182 -351 -198 -350 -9 1 -14 -5 -12 -15 2 -9 -5 -27 -16
-41 l-21 -25 6 50 5 50 -13 -45 c-7 -26 -9 -48 -3 -51 13 -10 -46 -114 -110
-194 -31 -38 -63 -83 -71 -100 -16 -30 -281 -305 -294 -305 -4 0 -9 6 -12 13
-2 6 -3 5 -2 -5 2 -9 -17 -35 -40 -58 -39 -38 -44 -41 -64 -28 -22 13 -29 53
-11 61 6 3 5 4 -2 3 -7 -1 -14 -14 -16 -29 -2 -19 4 -30 23 -43 25 -16 25 -17
8 -36 -31 -34 -154 -122 -296 -212 -158 -100 -164 -102 -170 -84 -2 7 -3 6 -2
-4 4 -25 -335 -223 -370 -216 -7 2 -13 -1 -12 -5 2 -8 -40 -36 -55 -37 -5 0
-8 7 -8 15 0 24 -19 17 -25 -8 -7 -26 -61 -49 -156 -66 -31 -5 -85 -21 -119
-35 -34 -14 -90 -30 -124 -36 -33 -6 -104 -22 -156 -36 -51 -14 -111 -24 -132
-22 -21 2 -38 1 -38 -3 0 -4 -19 -7 -42 -8 -24 0 -59 -5 -78 -11 -57 -17 -260
-26 -260 -11 0 9 -5 8 -15 -3 -11 -11 -39 -15 -105 -15 l-90 0 -15 32 c-15 32
-15 32 -11 4 4 -34 -10 -42 -59 -33 -34 7 -35 8 -29 41 4 25 2 39 -10 50 -15
15 -16 13 -16 -30 0 -44 -2 -47 -22 -41 -13 3 -36 6 -51 6 -25 0 -28 3 -22 23
5 20 4 20 -17 -5 -29 -35 -51 -35 -158 -3 -49 15 -108 25 -144 25 -70 0 -176
26 -193 48 -7 9 -13 11 -13 5 0 -17 -62 3 -73 23 -6 11 -12 13 -16 5 -5 -8
-19 -7 -53 3 -96 28 -188 68 -188 81 0 8 -7 11 -18 8 -9 -2 -80 28 -157 67
-77 39 -174 86 -215 104 -77 33 -316 185 -370 236 -16 15 -36 30 -43 33 -69
26 -467 414 -590 575 -157 206 -300 444 -387 645 -27 65 -63 144 -80 177 -31
61 -84 237 -126 419 -13 58 -31 129 -38 158 -17 62 -32 237 -16 186 6 -18 12
-33 13 -33 1 0 3 36 4 80 1 44 -2 78 -7 75 -4 -3 -6 -14 -3 -24 3 -11 -2 -29
-10 -41 -14 -20 -15 -18 -21 37 -4 32 -13 92 -20 133 -9 50 -13 136 -10 260 4
266 35 484 98 705 19 66 40 149 46 185 12 67 24 98 46 115 6 6 14 24 17 40 12
70 56 197 84 242 17 27 56 103 87 168 71 151 136 262 198 345 27 36 64 88 81
117 65 105 193 245 340 373 47 41 103 96 123 122 37 50 238 202 341 260 32 17
83 53 114 78 30 26 82 57 115 70 32 13 88 40 124 60 169 97 304 155 399 171
36 7 100 26 141 44 49 21 99 35 145 39 39 3 99 15 135 27 97 31 298 61 445 68
185 9 393 5 440 -8z"/>
<path d="M3732 6695 c0 -16 2 -22 5 -12 2 9 2 23 0 30 -3 6 -5 -1 -5 -18z"/>
<path d="M3150 6610 c-37 -11 -96 -19 -138 -20 -53 0 -91 -7 -135 -24 -34 -13
-98 -32 -142 -41 -145 -31 -544 -169 -664 -229 -54 -28 -258 -161 -408 -267
-203 -142 -483 -410 -610 -583 -24 -32 -43 -54 -43 -50 0 5 -8 -5 -18 -23 -9
-18 -59 -94 -110 -170 -137 -204 -327 -593 -368 -756 -8 -34 -29 -111 -45
-172 -50 -190 -70 -296 -80 -420 -5 -66 -13 -162 -17 -213 -7 -67 -5 -116 4
-175 8 -45 14 -113 14 -152 0 -65 36 -337 61 -465 32 -166 103 -411 138 -480
21 -41 48 -105 60 -142 12 -37 41 -95 63 -130 22 -35 55 -95 73 -135 35 -76
89 -160 167 -260 26 -35 48 -67 48 -73 0 -5 4 -10 9 -10 15 0 123 -138 117
-149 -4 -5 3 -12 14 -16 11 -3 20 -10 20 -15 0 -5 30 -35 67 -67 38 -32 98
-91 136 -130 37 -40 67 -70 67 -66 0 9 91 -68 145 -123 61 -62 165 -136 228
-163 35 -15 47 -26 48 -43 1 -17 3 -18 6 -5 6 23 11 22 68 -17 28 -18 116 -68
197 -111 117 -63 148 -83 154 -104 6 -22 8 -23 12 -7 3 16 10 18 49 12 25 -3
80 -21 122 -40 42 -19 86 -37 99 -41 12 -3 22 -11 22 -16 0 -6 5 -7 11 -4 9 6
113 -10 232 -36 26 -6 47 -16 47 -22 0 -9 2 -9 8 0 8 13 79 2 91 -14 3 -4 19
-9 35 -10 19 -1 38 -13 52 -30 18 -21 23 -24 24 -11 0 28 96 34 198 13 47 -10
91 -18 96 -17 6 1 83 6 171 11 88 6 176 13 196 16 31 6 37 4 41 -13 4 -13 16
-22 34 -24 23 -2 30 -9 35 -33 l7 -30 1 35 c1 31 -3 37 -31 48 -17 6 -29 14
-26 17 3 3 54 11 114 19 98 11 110 11 122 -3 11 -14 11 -14 6 1 -4 13 3 18 38
25 29 6 45 6 50 -1 5 -8 8 -7 8 1 0 13 75 32 142 36 27 1 48 5 48 9 0 4 16 10
35 14 19 3 35 10 35 14 0 4 30 15 68 25 102 25 145 38 172 52 21 11 26 11 28
-1 4 -20 50 -48 64 -40 7 5 3 10 -11 16 -18 6 -21 13 -15 30 8 28 -4 19 83 63
58 29 76 34 82 23 7 -10 9 -9 9 4 0 11 36 35 112 74 138 69 145 73 176 101 13
13 28 20 33 17 5 -3 9 1 9 8 0 8 14 22 30 31 26 16 30 16 30 3 0 -9 7 -16 15
-16 10 0 15 10 15 30 0 25 10 37 63 75 34 24 85 62 114 85 28 22 54 40 57 40
3 0 6 -11 6 -24 0 -14 5 -28 12 -32 7 -4 8 -3 4 5 -4 6 0 18 8 27 9 8 15 25
15 37 -2 22 -2 22 -6 0 -5 -24 -23 -32 -23 -10 0 17 134 149 143 141 4 -4 7
-2 7 4 0 13 152 167 163 164 4 -1 7 4 7 12 0 7 7 19 15 26 13 11 15 6 15 -38
0 -31 -5 -52 -12 -55 -7 -2 -10 -7 -7 -11 3 -3 16 6 30 21 13 14 19 23 13 20
-8 -5 -13 8 -16 39 -3 37 2 54 27 92 16 26 32 49 35 52 3 3 11 17 19 32 7 14
26 40 42 58 16 17 29 34 29 38 0 4 26 39 58 78 32 39 66 93 77 120 17 47 72
164 82 174 2 2 8 -2 14 -10 7 -11 8 -8 4 10 -6 24 44 151 103 265 12 22 36 95
55 163 18 67 37 119 41 115 4 -4 4 0 0 10 -3 9 5 50 20 89 14 40 30 92 36 116
6 23 15 42 20 42 5 0 9 21 9 48 0 26 4 67 10 92 5 25 13 94 17 153 4 59 10
107 14 107 4 0 1 44 -7 97 -7 54 -12 160 -10 240 1 79 0 143 -3 143 -3 0 -6
33 -6 73 0 45 -12 122 -31 207 -17 74 -34 157 -38 184 -4 26 -31 122 -61 213
-29 91 -51 170 -47 176 3 5 2 7 -4 4 -11 -7 -30 29 -73 141 -16 42 -51 107
-77 144 -27 37 -67 102 -91 146 -77 142 -171 285 -237 362 -35 41 -99 118
-142 170 -43 52 -93 107 -110 123 -20 18 -34 39 -34 56 -2 24 -2 24 -6 3 -4
-21 -12 -16 -88 56 -46 44 -105 92 -132 107 -26 16 -84 55 -128 88 -43 32
-105 72 -136 87 -31 16 -77 43 -102 60 -25 17 -85 51 -134 77 -48 26 -89 50
-91 55 -2 4 -9 8 -17 8 -7 0 -32 11 -57 25 -24 13 -73 31 -109 39 -35 9 -122
38 -192 66 -282 112 -485 145 -927 148 -140 2 -268 5 -285 7 -16 2 -59 -4 -95
-15z m-990 -1550 c28 5 565 8 593 3 37 -6 48 -32 48 -114 0 -86 -6 -106 -34
-115 -35 -12 -311 -4 -319 10 -6 8 -8 8 -8 -1 0 -10 -27 -13 -102 -13 -117 0
-144 -5 -153 -28 -4 -10 -3 -110 1 -224 l7 -208 239 0 239 0 25 -26 c24 -23
26 -30 22 -104 -2 -53 -8 -84 -18 -94 -12 -12 -61 -15 -245 -18 l-230 -3 -3
38 c-3 30 -7 37 -20 35 -9 -2 -17 -12 -17 -22 0 -11 -6 -21 -12 -23 -10 -4 -9
-11 2 -33 17 -33 18 -95 8 -358 -5 -129 -10 -177 -20 -188 -10 -10 -40 -14
-103 -14 -80 0 -90 2 -104 22 -14 20 -16 107 -16 735 1 839 -13 759 123 747
45 -4 89 -6 97 -4z m1633 -21 c116 -23 232 -92 311 -184 86 -102 156 -267 156
-370 0 -56 -27 -151 -67 -234 -34 -71 -105 -155 -177 -209 l-29 -22 49 -57
c27 -32 51 -60 54 -63 3 -3 38 -44 78 -93 91 -109 92 -120 4 -194 -86 -74
-102 -72 -175 17 -31 38 -57 72 -57 74 0 2 -15 19 -32 38 -73 75 -143 163
-140 174 1 7 -2 15 -8 19 -5 3 -10 1 -10 -5 0 -6 -5 -8 -12 -4 -11 7 -269 6
-276 -1 -2 -2 -4 -76 -3 -164 1 -202 2 -201 -124 -201 -136 0 -123 -83 -122
750 1 697 1 714 20 733 19 19 30 20 264 13 135 -4 268 -11 296 -17z m1220 3
c14 -15 16 -78 17 -497 3 -685 1 -877 -9 -871 -5 3 -11 -5 -13 -19 -5 -26 6
-35 15 -12 3 6 6 -2 6 -20 2 -52 -19 -63 -119 -63 -67 0 -92 4 -104 16 -14 13
-16 69 -18 442 -3 695 1 999 13 1024 13 25 189 25 212 0z m-2629 -1837 c17
-17 36 -20 36 -5 0 6 7 10 15 10 8 0 15 -6 15 -12 0 -10 2 -10 8 -1 8 13 152
21 171 9 6 -4 11 -2 11 4 0 7 90 9 308 6 169 -3 354 -5 412 -5 58 1 346 3 640
5 294 2 619 1 723 -3 173 -5 187 -7 187 -24 0 -11 7 -19 15 -19 9 0 15 10 15
26 l0 26 93 -7 c96 -7 127 -21 127 -57 0 -10 -9 -27 -21 -39 -19 -19 -28 -20
-162 -15 -78 4 -259 5 -402 4 -143 -1 -289 -2 -325 -2 -36 1 -173 1 -305 0
-1420 -3 -2015 1 -2029 13 -21 17 -20 60 0 82 15 17 37 19 235 19 179 0 221
-3 233 -15z m-302 -499 c4 -6 8 -77 8 -158 0 -112 -3 -148 -12 -148 -9 0 -10
-2 -2 -8 8 -5 12 -68 13 -187 1 -99 6 -184 11 -189 5 -5 75 -6 157 -4 81 3
160 1 176 -5 25 -8 27 -13 27 -62 0 -30 -5 -57 -10 -60 -18 -11 -462 -15 -482
-4 -17 9 -18 28 -18 279 0 168 4 271 10 275 6 3 10 11 10 16 0 6 -4 7 -10 4
-6 -4 -10 40 -10 124 0 103 3 132 14 138 21 11 109 3 118 -11z m2781 -14 c43
-21 80 -49 104 -77 44 -53 86 -149 80 -181 -2 -14 0 -21 6 -17 6 3 8 -47 5
-138 -3 -132 -6 -149 -32 -206 -36 -79 -102 -142 -182 -174 -55 -21 -72 -23
-232 -22 -95 1 -177 5 -182 8 -14 8 -14 817 0 831 6 6 83 10 188 9 l177 0 68
-33z m-1834 6 c5 -13 15 -45 22 -73 7 -27 31 -97 54 -155 74 -184 199 -565
192 -583 -5 -13 -19 -17 -61 -17 -65 0 -73 8 -106 111 l-21 67 -52 5 c-44 4
-111 4 -245 -2 -15 -1 -26 -10 -34 -28 -6 -16 -23 -56 -39 -90 l-28 -62 -56 0
c-39 1 -58 5 -62 15 -5 14 71 246 128 389 15 39 35 97 44 130 14 53 39 127 91
273 l16 42 74 0 c68 0 75 -2 83 -22z m716 -139 c55 -88 133 -213 173 -277 40
-64 76 -118 80 -120 4 -1 6 118 4 264 -2 194 0 269 9 280 15 18 103 19 117 1
8 -9 11 -139 12 -414 0 -332 -3 -403 -14 -413 -8 -6 -36 -10 -62 -8 l-48 3
-66 110 c-36 61 -99 162 -141 225 -42 63 -93 144 -115 179 l-39 65 -5 -283
c-6 -314 -2 -301 -76 -301 l-42 0 -11 63 c-12 69 -16 769 -4 780 3 4 34 7 67
7 l61 -1 100 -160z"/>
<path d="M2060 4613 c0 -13 5 -23 10 -23 6 0 10 -8 11 -17 0 -10 3 -13 5 -7 3
6 -2 24 -11 40 -13 26 -15 27 -15 7z"/>
<path d="M2040 4381 c0 -12 5 -21 10 -21 6 0 10 6 10 14 0 8 -4 18 -10 21 -5
3 -10 -3 -10 -14z"/>
<path d="M2151 4293 c0 -4 4 -17 9 -28 8 -19 9 -19 9 2 1 12 -3 25 -9 28 -5 3
-10 3 -9 -2z"/>
<path d="M2030 4250 c0 -5 7 -7 15 -4 8 4 15 8 15 10 0 2 -7 4 -15 4 -8 0 -15
-4 -15 -10z"/>
<path d="M2416 4207 c3 -10 9 -15 12 -12 3 3 0 11 -7 18 -10 9 -11 8 -5 -6z"/>
<path d="M3673 4984 c-3 -8 -2 -19 3 -24 5 -5 9 1 9 16 0 28 -3 30 -12 8z"/>
<path d="M3501 4894 c0 -11 3 -14 6 -6 3 7 2 16 -1 19 -3 4 -6 -2 -5 -13z"/>
<path d="M3457 4774 c-2 -25 -2 -142 1 -260 4 -194 3 -216 -12 -233 -12 -13
-15 -27 -11 -42 6 -17 9 -19 16 -8 6 9 9 2 9 -24 l0 -38 133 4 c214 7 296 48
381 191 30 50 36 69 35 115 -1 107 -67 229 -154 284 -63 40 -145 57 -276 57
l-116 0 -6 -46z"/>
<path d="M3435 4520 c-3 -5 -1 -10 4 -10 6 0 11 5 11 10 0 6 -2 10 -4 10 -3 0
-8 -4 -11 -10z"/>
<path d="M3231 3724 c0 -11 3 -14 6 -6 3 7 2 16 -1 19 -3 4 -6 -2 -5 -13z"/>
<path d="M3272 3710 c0 -14 2 -19 5 -12 2 6 2 18 0 25 -3 6 -5 1 -5 -13z"/>
<path d="M4861 5034 c0 -11 3 -14 6 -6 3 7 2 16 -1 19 -3 4 -6 -2 -5 -13z"/>
<path d="M4861 4204 c0 -11 3 -14 6 -6 3 7 2 16 -1 19 -3 4 -6 -2 -5 -13z"/>
<path d="M4816 3943 c-6 -14 -5 -15 5 -6 7 7 10 15 7 18 -3 3 -9 -2 -12 -12z"/>
<path d="M2680 3129 c0 -5 5 -7 10 -4 6 3 10 8 10 11 0 2 -4 4 -10 4 -5 0 -10
-5 -10 -11z"/>
<path d="M1991 2414 c0 -11 3 -14 6 -6 3 7 2 16 -1 19 -3 4 -6 -2 -5 -13z"/>
<path d="M2035 2090 c3 -5 8 -10 11 -10 2 0 4 5 4 10 0 6 -5 10 -11 10 -5 0
-7 -4 -4 -10z"/>
<path d="M2326 1945 c-3 -8 -1 -15 4 -15 6 0 10 7 10 15 0 8 -2 15 -4 15 -2 0
-6 -7 -10 -15z"/>
<path d="M4690 2623 l0 -33 -65 0 c-45 0 -65 -4 -66 -12 0 -7 -2 -136 -3 -286
-2 -199 1 -275 9 -280 7 -4 15 -14 18 -22 4 -10 6 -8 6 7 1 22 5 23 84 22 48
0 99 6 123 14 37 13 42 13 51 -2 10 -13 11 -12 6 7 -4 15 1 30 15 45 37 39 54
105 55 212 3 182 -53 270 -182 291 -32 5 -40 10 -36 23 2 9 0 23 -5 31 -7 11
-10 7 -10 -17z"/>
<path d="M4757 2632 c-10 -10 -14 -22 -10 -25 3 -4 13 2 21 14 18 26 10 35
-11 11z"/>
<path d="M4515 2370 c3 -5 8 -10 11 -10 2 0 4 5 4 10 0 6 -5 10 -11 10 -5 0
-7 -4 -4 -10z"/>
<path d="M4980 2250 c0 -5 5 -10 11 -10 5 0 7 5 4 10 -3 6 -8 10 -11 10 -2 0
-4 -4 -4 -10z"/>
<path d="M4461 2104 c0 -11 3 -14 6 -6 3 7 2 16 -1 19 -3 4 -6 -2 -5 -13z"/>
<path d="M4970 2093 l0 -23 20 20 c11 11 20 21 20 23 0 1 -9 3 -20 3 -14 0
-20 -7 -20 -23z"/>
<path d="M4901 2084 c0 -11 3 -14 6 -6 3 7 2 16 -1 19 -3 4 -6 -2 -5 -13z"/>
<path d="M4531 2054 c0 -11 3 -14 6 -6 3 7 2 16 -1 19 -3 4 -6 -2 -5 -13z"/>
<path d="M4950 2045 c0 -5 5 -17 10 -25 5 -8 10 -10 10 -5 0 6 -5 17 -10 25
-5 8 -10 11 -10 5z"/>
<path d="M4812 1925 c0 -16 2 -22 5 -12 2 9 2 23 0 30 -3 6 -5 -1 -5 -18z"/>
<path d="M2916 2427 c-28 -68 -76 -213 -76 -229 0 -5 47 -8 105 -8 78 0 105 3
105 13 0 7 -9 37 -21 67 -12 30 -34 93 -50 139 -16 47 -30 85 -32 87 -1 1 -15
-30 -31 -69z"/>
<path d="M2880 2151 c0 -16 3 -36 6 -45 11 -29 23 -16 21 24 -2 46 -27 66 -27
21z"/>
<path d="M2670 1965 c0 -5 5 -17 10 -25 5 -8 10 -10 10 -5 0 6 -5 17 -10 25
-5 8 -10 11 -10 5z"/>
<path d="M4117 2484 c-4 -4 -7 -17 -7 -28 1 -19 1 -20 11 -3 11 19 8 43 -4 31z"/>
<path d="M3740 2470 c0 -5 5 -10 10 -10 6 0 10 5 10 10 0 6 -4 10 -10 10 -5 0
-10 -4 -10 -10z"/>
<path d="M4050 2116 c0 -9 5 -16 10 -16 6 0 10 4 10 9 0 6 -4 13 -10 16 -5 3
-10 -1 -10 -9z"/>
<path d="M4057 1953 c-4 -3 -7 -11 -7 -17 0 -6 5 -5 12 2 6 6 9 14 7 17 -3 3
-9 2 -12 -2z"/>
<path d="M4045 1900 c3 -5 8 -10 11 -10 2 0 4 5 4 10 0 6 -5 10 -11 10 -5 0
-7 -4 -4 -10z"/>
<path d="M4470 6588 c0 -13 5 -30 10 -38 7 -11 10 -5 10 23 0 20 -4 37 -10 37
-5 0 -10 -10 -10 -22z"/>
<path d="M5861 5644 c0 -11 3 -14 6 -6 3 7 2 16 -1 19 -3 4 -6 -2 -5 -13z"/>
<path d="M630 4944 c0 -8 5 -12 10 -9 6 4 8 11 5 16 -9 14 -15 11 -15 -7z"/>
<path d="M511 4834 c0 -11 3 -14 6 -6 3 7 2 16 -1 19 -3 4 -6 -2 -5 -13z"/>
<path d="M6576 4225 c-3 -8 -1 -15 3 -15 5 0 16 -3 24 -6 12 -4 14 0 10 15 -6
24 -28 28 -37 6z"/>
<path d="M6665 4047 c-5 -25 -4 -42 3 -49 17 -17 25 13 14 53 l-9 34 -8 -38z"/>
<path d="M6702 3900 c0 -14 2 -19 5 -12 2 6 2 18 0 25 -3 6 -5 1 -5 -13z"/>
<path d="M6714 3355 c3 -11 6 -27 6 -35 0 -8 7 -2 15 14 20 38 19 45 -6 43
-15 -1 -19 -6 -15 -22z"/>
<path d="M371 2754 c0 -11 3 -14 6 -6 3 7 2 16 -1 19 -3 4 -6 -2 -5 -13z"/>
<path d="M6610 2631 c0 -5 5 -13 10 -16 6 -3 10 -2 10 4 0 5 -4 13 -10 16 -5
3 -10 2 -10 -4z"/>
<path d="M6348 2218 c-4 -38 -8 -67 -13 -103 -6 -37 -5 -39 9 -21 15 18 24
136 11 136 -3 0 -6 -6 -7 -12z"/>
<path d="M6408 2198 c-14 -17 -15 -24 -6 -30 17 -10 30 5 26 31 l-3 20 -17
-21z"/>
<path d="M6220 1921 c0 -6 5 -13 10 -16 6 -3 10 1 10 9 0 9 -4 16 -10 16 -5 0
-10 -4 -10 -9z"/>
<path d="M5631 1184 c0 -11 3 -14 6 -6 3 7 2 16 -1 19 -3 4 -6 -2 -5 -13z"/>
<path d="M5575 1069 c-4 -6 -5 -12 -2 -15 2 -3 7 2 10 11 7 17 1 20 -8 4z"/>
<path d="M1521 994 c0 -11 3 -14 6 -6 3 7 2 16 -1 19 -3 4 -6 -2 -5 -13z"/>
<path d="M1600 986 c0 -9 5 -16 10 -16 6 0 10 4 10 9 0 6 -4 13 -10 16 -5 3
-10 -1 -10 -9z"/>
<path d="M5502 991 c-11 -7 -11 -9 2 -14 10 -4 16 -1 16 8 0 17 -1 17 -18 6z"/>
<path d="M5205 871 c-10 -17 15 -45 29 -31 7 7 5 15 -6 26 -11 11 -18 13 -23
5z"/>
<path d="M5260 844 c0 -8 5 -12 10 -9 6 4 8 11 5 16 -9 14 -15 11 -15 -7z"/>
<path d="M5010 740 c0 -16 -4 -30 -10 -30 -5 0 -10 -4 -10 -10 0 -5 4 -10 10
-10 13 0 42 58 35 70 -12 20 -25 9 -25 -20z"/>
<path d="M1850 700 c0 -5 5 -10 10 -10 6 0 10 5 10 10 0 6 -4 10 -10 10 -5 0
-10 -4 -10 -10z"/>
<path d="M2071 674 c0 -11 3 -14 6 -6 3 7 2 16 -1 19 -3 4 -6 -2 -5 -13z"/>
<path d="M4780 606 c0 -8 7 -16 15 -20 13 -4 14 -2 5 14 -13 23 -20 26 -20 6z"/>
<path d="M4772 550 c0 -14 2 -19 5 -12 2 6 2 18 0 25 -3 6 -5 1 -5 -13z"/>
<path d="M2343 515 c2 -49 16 -51 34 -5 12 30 11 32 0 18 -19 -24 -25 -23 -30
5 -3 12 -4 4 -4 -18z"/>
<path d="M4337 460 c8 -29 25 -37 21 -9 -1 12 -8 24 -15 26 -7 3 -9 -3 -6 -17z"/>
<path d="M2730 445 c0 -8 5 -15 11 -15 7 0 9 -10 6 -25 -2 -14 -2 -23 1 -20 3
2 11 0 19 -6 25 -21 15 29 -12 55 -17 17 -25 20 -25 11z"/>
<path d="M4093 409 c-1 -22 -5 -48 -8 -59 -5 -15 -2 -17 15 -13 16 4 20 11 15
27 -3 11 -7 33 -9 48 -4 43 -12 41 -13 -3z"/>
<path d="M4232 435 c-7 -8 -9 -15 -4 -15 5 0 15 7 22 15 16 19 -1 19 -18 0z"/>
<path d="M3976 404 c-10 -26 -7 -64 5 -64 8 0 9 11 5 31 -5 26 -3 30 10 25 14
-5 15 -4 4 9 -15 19 -16 19 -24 -1z"/>
<path d="M4351 404 c0 -11 3 -14 6 -6 3 7 2 16 -1 19 -3 4 -6 -2 -5 -13z"/>
<path d="M3390 324 c0 -20 17 -26 24 -8 8 21 8 21 -9 21 -8 0 -15 -6 -15 -13z"/>
<path d="M3490 306 c0 -9 -4 -15 -9 -12 -5 3 -11 0 -14 -7 -3 -8 1 -14 9 -14
14 0 30 34 20 44 -3 4 -6 -1 -6 -11z"/>
<path d="M3200 296 c0 -2 7 -9 15 -16 12 -10 15 -10 15 4 0 9 -7 16 -15 16 -8
0 -15 -2 -15 -4z"/>
<path d="M3308 283 c7 -3 16 -2 19 1 4 3 -2 6 -13 5 -11 0 -14 -3 -6 -6z"/>
</g>
</svg>
