<?xml version="1.0" encoding="UTF-8" standalone="no"?>
<!DOCTYPE svg PUBLIC "-//W3C//DTD SVG 1.1//EN" "http://www.w3.org/Graphics/SVG/1.1/DTD/svg11.dtd">
<svg width="100%" height="100%" viewBox="0 0 95 90" version="1.1" xmlns="http://www.w3.org/2000/svg" xmlns:xlink="http://www.w3.org/1999/xlink" xml:space="preserve" xmlns:serif="http://www.serif.com/" style="fill-rule:evenodd;clip-rule:evenodd;">
    <g transform="matrix(1,0,0,1,-308.447,-155.383)">
        <g transform="matrix(1,0,0,1,318.884,219.46)">
            <path d="M0,-39.082C0.07,-38.809 0.143,-38.526 0.116,-38.205C0.094,-37.928 0.004,-37.689 -0.083,-37.458C-0.114,-37.373 -0.146,-37.289 -0.174,-37.202L-0.209,-37.096C-0.29,-36.836 -0.367,-36.591 -0.619,-36.345C-0.783,-36.185 -0.927,-36.009 -1.073,-35.834C-1.169,-35.716 -1.266,-35.599 -1.369,-35.485C-1.507,-35.331 -1.658,-35.19 -1.809,-35.049C-1.92,-34.946 -2.031,-34.843 -2.136,-34.734C-2.303,-34.56 -2.46,-34.377 -2.617,-34.195C-2.966,-33.79 -3.328,-33.37 -3.798,-33.043C-3.871,-32.992 -3.949,-32.944 -4.029,-32.895C-4.24,-32.766 -4.439,-32.645 -4.506,-32.468C-4.559,-32.328 -4.605,-32.186 -4.644,-32.042C-4.666,-31.961 -4.698,-31.887 -4.732,-31.812C-4.753,-31.767 -4.774,-31.722 -4.788,-31.671C-4.844,-31.467 -4.834,-31.233 -4.761,-31.041C-4.729,-30.96 -4.681,-30.887 -4.625,-30.803C-4.529,-30.66 -4.42,-30.496 -4.383,-30.262C-4.346,-30.034 -4.321,-29.767 -4.408,-29.511L-4.437,-29.428C-4.488,-29.283 -4.528,-29.168 -4.527,-29.037L-4.524,-28.95C-4.518,-28.783 -4.51,-28.575 -4.645,-28.36C-4.754,-28.183 -4.925,-27.989 -5.151,-27.782C-5.235,-27.706 -5.325,-27.635 -5.415,-27.563C-5.602,-27.417 -5.779,-27.278 -5.873,-27.094C-5.933,-26.976 -5.961,-26.849 -5.962,-26.683C-5.963,-26.572 -5.902,-26.485 -5.796,-26.341C-5.724,-26.245 -5.654,-26.146 -5.601,-26.037C-5.552,-25.933 -5.491,-25.837 -5.431,-25.741C-5.322,-25.569 -5.21,-25.391 -5.143,-25.169C-5.12,-25.095 -5.102,-25.021 -5.084,-24.948C-5.044,-24.786 -5.01,-24.646 -4.926,-24.536C-4.878,-24.473 -4.816,-24.417 -4.754,-24.359C-4.624,-24.238 -4.477,-24.1 -4.393,-23.902C-4.358,-23.818 -4.346,-23.743 -4.337,-23.682C-4.275,-23.586 -4.172,-23.559 -4.062,-23.529C-3.985,-23.509 -3.909,-23.488 -3.839,-23.462C-3.7,-23.409 -3.557,-23.344 -3.429,-23.269C-3.222,-23.149 -3.161,-22.989 -3.147,-22.877C-3.108,-22.573 -3.36,-22.319 -3.496,-22.184C-3.54,-22.14 -3.559,-22.107 -3.566,-22.09C-3.555,-22.09 -3.519,-22.067 -3.443,-22.049C-3.181,-21.987 -2.637,-21.858 -2.534,-21.354C-2.483,-21.103 -2.618,-20.907 -2.716,-20.763C-2.752,-20.712 -2.811,-20.626 -2.812,-20.595C-2.717,-20.575 -2.638,-20.543 -2.566,-20.48C-2.349,-20.29 -2.233,-19.944 -2.412,-19.693C-2.563,-19.484 -2.827,-19.454 -3.061,-19.426C-3.148,-19.416 -3.293,-19.399 -3.332,-19.374C-3.291,-19.337 -3.234,-19.25 -3.171,-19.226C-2.917,-19.133 -2.728,-18.98 -2.547,-18.832L-2.478,-18.777C-2.194,-18.548 -1.985,-18.313 -1.858,-18.077C-1.712,-17.81 -1.795,-17.586 -1.85,-17.437C-1.863,-17.402 -1.878,-17.365 -1.889,-17.324C-1.917,-17.222 -1.93,-17.117 -1.943,-17.011C-1.958,-16.9 -1.973,-16.789 -1.999,-16.679C-2.028,-16.554 -1.994,-16.47 -1.915,-16.292L-1.847,-16.133C-1.771,-15.94 -1.778,-15.759 -1.785,-15.599C-1.787,-15.537 -1.79,-15.474 -1.785,-15.41C-1.774,-15.247 -1.722,-15.088 -1.673,-14.954L-1.64,-14.866C-1.582,-14.718 -1.517,-14.548 -1.516,-14.346C-1.515,-14.18 -1.515,-14.18 -1.477,-14.143C-1.367,-14.038 -1.229,-13.969 -1.07,-13.889C-0.996,-13.851 -0.922,-13.814 -0.849,-13.773C-0.701,-13.688 -0.561,-13.588 -0.422,-13.488C-0.339,-13.428 -0.257,-13.368 -0.172,-13.313L0.184,-13.037C0.544,-12.677 0.991,-12.228 1.046,-11.612C1.063,-11.415 1.027,-11.228 0.994,-11.061C0.961,-10.896 0.931,-10.74 0.961,-10.612C0.991,-10.48 1.099,-10.36 1.224,-10.221C1.322,-10.112 1.424,-9.999 1.503,-9.863C1.765,-9.414 1.675,-8.893 1.275,-8.535C0.929,-8.226 0.452,-8.106 -0.003,-8.216C-0.112,-8.242 -0.218,-8.278 -0.322,-8.314C-0.499,-8.376 -0.652,-8.433 -0.807,-8.417C-1.009,-8.401 -1.252,-8.288 -1.311,-8.126C-1.353,-8.012 -1.237,-7.874 -1.071,-7.692C-0.884,-7.49 -0.528,-7.103 -0.842,-6.694C-1.022,-6.461 -1.295,-6.34 -1.536,-6.235C-1.613,-6.201 -1.687,-6.169 -1.754,-6.132C-2.015,-5.994 -2.151,-5.858 -2.209,-5.677C-2.245,-5.565 -2.253,-5.436 -2.262,-5.299C-2.272,-5.165 -2.282,-5.031 -2.311,-4.9C-2.38,-4.59 -2.583,-4.365 -2.883,-4.264C-3.287,-4.127 -3.856,-4.246 -4.205,-4.543C-4.643,-4.913 -4.76,-5.436 -4.862,-5.898C-4.938,-6.236 -5.008,-6.557 -5.19,-6.797C-5.325,-6.975 -5.556,-7.006 -5.919,-7.036C-6.1,-7.051 -6.287,-7.066 -6.467,-7.117C-6.569,-7.146 -6.671,-7.183 -6.773,-7.222C-6.937,-7.283 -7.091,-7.34 -7.236,-7.352C-7.269,-7.355 -7.377,-7.364 -7.467,-7.12C-7.515,-6.993 -7.569,-6.883 -7.629,-6.764C-7.67,-6.682 -7.692,-6.614 -7.715,-6.546C-7.747,-6.45 -7.78,-6.354 -7.826,-6.263C-7.856,-6.204 -7.891,-6.146 -7.925,-6.088C-7.96,-6.032 -7.994,-5.975 -8.021,-5.916C-8.045,-5.861 -8.063,-5.808 -8.081,-5.757C-8.141,-5.585 -8.214,-5.371 -8.451,-5.203L-8.562,-5.126C-8.726,-5.015 -8.845,-4.934 -8.913,-4.792C-8.952,-4.712 -9.067,-4.441 -8.925,-4.308C-8.864,-4.251 -8.796,-4.208 -8.732,-4.165C-8.542,-4.04 -8.281,-3.869 -8.235,-3.468C-8.198,-3.156 -8.301,-2.928 -8.393,-2.727C-8.428,-2.649 -8.464,-2.569 -8.491,-2.482C-8.476,-2.449 -8.353,-2.376 -8.287,-2.338C-8.196,-2.283 -8.102,-2.228 -8.024,-2.154C-7.651,-1.8 -7.9,-1.428 -8.02,-1.249C-8.063,-1.186 -8.107,-1.12 -8.12,-1.077C-8.151,-0.97 -7.964,-0.842 -7.752,-0.71L-7.61,-0.619C-7.431,-0.495 -7.13,-0.235 -7.129,0.123C-7.129,0.333 -7.233,0.527 -7.317,0.683C-7.341,0.727 -7.363,0.768 -7.381,0.807C-7.505,1.075 -7.608,1.297 -7.563,1.476C-7.527,1.615 -7.434,1.773 -7.326,1.875C-7.283,1.916 -7.221,1.955 -7.156,1.995C-7.064,2.052 -6.974,2.111 -6.895,2.185C-6.81,2.265 -6.723,2.344 -6.636,2.421C-6.48,2.561 -6.325,2.701 -6.178,2.853C-6.035,3.002 -5.936,3.143 -5.889,3.385C-5.847,3.59 -5.814,3.747 -5.833,3.916C-5.854,4.087 -5.859,4.144 -5.845,4.207C-5.832,4.264 -5.775,4.326 -5.709,4.398C-5.609,4.507 -5.485,4.643 -5.433,4.848C-5.376,5.077 -5.375,5.296 -5.373,5.509C-5.371,5.687 -5.37,5.856 -5.335,6.011C-5.305,6.143 -5.287,6.274 -5.269,6.405C-5.24,6.609 -5.214,6.803 -5.139,6.98C-5.074,7.132 -4.982,7.266 -4.872,7.366C-4.732,7.495 -4.588,7.55 -4.444,7.526C-4.361,7.513 -4.27,7.478 -4.174,7.439C-4.032,7.382 -3.87,7.318 -3.683,7.308C-3.186,7.288 -2.951,7.664 -2.776,7.941C-2.667,8.116 -2.564,8.28 -2.438,8.32C-2.305,8.363 -2.12,8.289 -1.942,8.218C-1.584,8.077 -1.31,8.023 -1.013,8.022C-0.765,8.021 -0.601,7.995 -0.447,7.859C-0.336,7.759 -0.235,7.638 -0.133,7.517C0.132,7.201 0.434,6.843 0.928,6.759C1.1,6.729 1.275,6.709 1.45,6.691C1.593,6.675 1.737,6.66 1.879,6.637C2.147,6.596 2.324,6.681 2.427,6.76C2.587,6.884 2.686,7.082 2.712,7.333C2.741,7.62 2.634,7.82 2.548,7.98C2.517,8.037 2.485,8.095 2.46,8.162C2.431,8.239 2.431,8.347 2.431,8.46C2.431,8.721 2.419,8.931 2.395,9.144C2.384,9.239 2.409,9.314 2.472,9.376C2.611,9.514 2.774,9.638 2.909,9.71C3.109,9.817 3.387,9.824 3.656,9.829L3.843,9.827C4.012,9.821 4.203,9.816 4.392,9.881C4.924,10.064 5.509,10.575 5.534,11.268C5.541,11.437 5.509,11.601 5.479,11.76C5.426,12.037 5.399,12.213 5.502,12.332C5.585,12.429 5.687,12.51 5.788,12.591C5.948,12.721 6.113,12.855 6.241,13.042C6.312,13.147 6.357,13.256 6.396,13.352L6.443,13.463C6.611,13.825 6.742,14.077 7.026,14.274C7.248,14.427 7.643,14.741 7.805,15.129C7.943,15.46 7.815,15.82 7.712,16.109L7.659,16.265C7.549,16.62 7.553,16.721 7.682,16.831C7.728,16.87 7.777,16.908 7.824,16.946C7.925,17.024 8.024,17.103 8.114,17.195L8.183,17.267C8.265,17.354 8.337,17.429 8.419,17.479C8.619,17.6 8.852,17.61 9.123,17.621L9.222,17.626C9.303,17.63 9.383,17.64 9.463,17.65C9.53,17.658 9.597,17.667 9.665,17.67C9.738,17.671 9.803,17.662 9.872,17.653C9.94,17.644 10.009,17.635 10.079,17.632C10.555,17.597 10.881,18.001 11.009,18.342C11.037,18.417 11.057,18.494 11.077,18.571C11.095,18.643 11.112,18.717 11.145,18.785C11.173,18.843 11.219,18.899 11.273,18.963C11.323,19.022 11.372,19.082 11.415,19.148C11.557,19.367 11.572,19.615 11.583,19.796C11.588,19.874 11.582,19.95 11.574,20.027C11.568,20.089 11.563,20.143 11.569,20.184C11.616,20.507 11.73,20.887 11.899,21.283C11.947,21.393 12.005,21.502 12.063,21.612C12.187,21.844 12.314,22.084 12.369,22.36C12.401,22.521 12.378,22.737 12.35,23.01C12.32,23.292 12.258,23.879 12.387,24.002C12.415,24.028 12.491,24.017 12.522,24.012C12.69,23.985 12.829,23.857 12.99,23.709C13.108,23.601 13.231,23.488 13.382,23.4C13.739,23.191 14.113,23.325 14.386,23.422C14.467,23.451 14.546,23.48 14.623,23.497C14.842,23.549 15.234,23.579 15.39,23.2C15.546,22.818 15.439,22.343 15.315,21.89L15.275,21.747C15.147,21.289 15.016,20.817 15.069,20.308C15.13,19.723 15.457,19.25 16.04,18.901C16.324,18.731 16.517,18.457 16.723,18.141C16.787,18.042 16.79,17.942 16.79,17.759C16.79,17.686 16.79,17.611 16.796,17.534C16.806,17.388 16.838,17.246 16.871,17.104C16.905,16.956 16.938,16.816 16.934,16.684C16.929,16.511 16.87,16.336 16.767,16.19C16.636,16.004 16.416,15.877 16.239,15.787C16.182,15.758 16.121,15.741 16.06,15.721C15.952,15.689 15.83,15.651 15.71,15.573C15.236,15.266 14.956,14.771 14.922,14.181C14.902,13.849 14.992,13.564 15.188,13.332C15.276,13.229 15.365,13.127 15.455,13.026C15.555,12.912 15.657,12.797 15.754,12.68C15.774,12.656 15.777,12.646 15.793,12.593C15.806,12.551 15.819,12.507 15.84,12.456C15.871,12.381 15.912,12.311 15.954,12.241C15.978,12.203 16.001,12.166 16.021,12.126C16.08,11.999 16.153,11.879 16.226,11.761C16.289,11.66 16.351,11.559 16.401,11.452C16.447,11.354 16.507,11.276 16.56,11.207L16.623,11.123C16.691,11.022 16.743,10.878 16.793,10.739C16.818,10.67 16.843,10.603 16.868,10.54C16.991,10.24 17.119,9.995 17.271,9.769C17.339,9.668 17.412,9.571 17.485,9.475C17.583,9.346 17.681,9.218 17.763,9.076C17.843,8.936 17.921,8.796 17.998,8.655C18.099,8.47 18.201,8.286 18.309,8.104C18.382,7.979 18.438,7.85 18.495,7.719L18.588,7.511C18.639,7.405 18.706,7.324 18.766,7.253C18.812,7.197 18.856,7.144 18.866,7.107C18.916,6.907 18.954,6.756 19.007,6.609C19.166,6.169 19.406,5.862 19.722,5.694C19.958,5.569 20.209,5.544 20.431,5.523C20.621,5.505 20.755,5.486 20.889,5.467L21.148,5.431C21.621,5.371 22.094,5.43 22.475,5.595C22.606,5.652 22.718,5.733 22.826,5.811C23.057,5.978 23.14,6.017 23.247,5.968C23.355,5.918 23.453,5.804 23.461,5.721C23.464,5.68 23.413,5.621 23.335,5.534L23.27,5.461C22.975,5.117 22.966,4.806 23.009,4.607C23.088,4.242 23.418,3.994 23.755,4C24.06,4.011 24.355,4.209 24.508,4.505C24.608,4.699 24.612,4.885 24.616,5.049L24.62,5.162C24.625,5.256 24.661,5.337 24.718,5.386C24.763,5.424 24.819,5.439 24.889,5.432C25.121,5.408 25.278,5.322 25.411,5.147C25.462,5.082 25.506,5.009 25.55,4.935C25.628,4.806 25.708,4.679 25.806,4.572C26.098,4.258 26.7,4.133 27.07,4.439C27.481,4.779 27.282,5.458 27.055,5.744C26.939,5.889 26.789,5.962 26.668,6.02C26.59,6.058 26.523,6.091 26.482,6.133C26.484,6.213 26.537,6.261 26.601,6.27C26.676,6.281 26.754,6.276 26.832,6.272C27.055,6.262 27.331,6.251 27.575,6.459C27.673,6.542 27.762,6.648 27.85,6.757C27.963,6.896 28.071,7.028 28.185,7.065C28.332,7.111 28.457,7.151 28.6,7.244C28.725,7.326 28.803,7.353 28.877,7.34C28.955,7.326 29.047,7.266 29.143,7.203C29.199,7.167 29.254,7.131 29.311,7.1C29.427,7.035 29.463,6.998 29.504,6.898C29.598,6.67 29.712,6.499 29.821,6.343C29.85,6.3 29.842,6.232 29.819,6.096C29.784,5.891 29.719,5.509 30.132,5.285C30.43,5.123 30.749,5.143 30.966,5.336C31.164,5.512 31.214,5.759 31.25,5.939C31.303,6.192 31.343,6.223 31.403,6.249C31.611,6.341 31.827,6.446 31.995,6.591C32.143,6.718 32.252,6.884 32.347,7.03C32.4,7.109 32.451,7.188 32.507,7.257C32.633,7.409 32.682,7.416 32.687,7.416C32.766,7.39 32.826,7.198 32.801,7.062C32.791,7.012 32.755,6.968 32.692,6.895C32.627,6.817 32.545,6.721 32.493,6.587C32.432,6.428 32.441,6.243 32.518,6.08C32.596,5.913 32.736,5.784 32.901,5.728C33.191,5.627 33.513,5.751 33.779,6.066C33.853,6.154 33.915,6.246 33.973,6.336C34.123,6.564 34.184,6.643 34.363,6.646C34.397,6.646 34.58,6.644 34.615,6.562C34.655,6.471 34.62,6.299 34.54,6.195C34.506,6.15 34.45,6.107 34.386,6.059C34.308,5.999 34.22,5.932 34.142,5.839C34.022,5.694 33.748,5.312 33.808,4.892C33.85,4.589 34.08,4.297 34.409,4.131C34.712,3.979 35.028,3.969 35.276,4.102C35.518,4.233 35.696,4.442 35.854,4.626C36.008,4.808 36.188,5.017 36.201,5.322L36.202,5.447C36.201,5.496 36.2,5.57 36.208,5.593C36.283,5.591 36.431,5.505 36.575,5.333C36.748,5.129 36.976,4.91 37.367,4.829C37.741,4.75 38.092,4.881 38.328,5.187C38.375,5.248 38.43,5.294 38.482,5.34C38.608,5.451 38.764,5.589 38.842,5.836C38.878,5.951 38.908,6.068 38.938,6.186C38.966,6.294 38.994,6.402 39.027,6.51C39.079,6.676 39.142,6.794 39.246,6.916C39.453,7.163 39.518,7.378 39.557,7.644C39.579,7.795 39.647,7.883 39.787,8.053L39.837,8.112C39.971,8.277 40.015,8.439 40.053,8.581C40.065,8.627 40.078,8.675 40.095,8.724C40.18,8.967 40.48,9.277 40.725,9.374C41.009,9.487 41.36,9.473 41.766,9.331C41.922,9.277 42.06,9.195 42.199,9.115C42.385,9.006 42.577,8.895 42.81,8.827C43.083,8.747 43.346,8.728 43.596,8.768C43.743,8.793 43.866,8.846 43.975,8.892C44.036,8.918 44.098,8.945 44.163,8.964C44.196,8.973 44.24,8.976 44.291,8.98C44.38,8.987 44.492,8.995 44.608,9.044C44.837,9.14 45.017,9.287 45.19,9.429C45.343,9.554 45.487,9.672 45.645,9.736C46.107,9.919 46.484,10.143 46.835,10.441C47.009,10.589 47.184,10.733 47.362,10.878C47.457,10.955 47.535,11.045 47.612,11.137C47.676,11.212 47.737,11.283 47.803,11.332C47.928,11.424 48.068,11.491 48.207,11.56L48.367,11.64C48.477,11.697 48.592,11.764 48.694,11.868L48.76,11.939C48.829,11.969 48.991,11.952 49.108,11.941L49.325,11.926C49.401,11.923 49.477,11.919 49.552,11.908C49.613,11.899 49.665,11.85 49.752,11.764C49.871,11.646 50.035,11.484 50.302,11.466C50.686,11.442 51.075,11.486 51.335,11.975C51.458,12.206 51.503,12.443 51.535,12.648L51.554,12.781C51.572,12.917 51.595,13.086 51.645,13.173C51.759,13.366 51.865,13.548 51.935,13.776C51.975,13.906 52.015,13.946 52.148,13.994C52.246,14.03 52.347,14.05 52.448,14.072C52.545,14.093 52.641,14.114 52.735,14.142C52.939,14.204 53.109,14.306 53.279,14.413C53.46,14.528 53.582,14.605 53.704,14.638C53.756,14.653 53.818,14.655 53.891,14.659C53.98,14.664 54.081,14.669 54.187,14.696C54.402,14.753 54.569,14.88 54.716,14.992C54.787,15.046 54.859,15.102 54.935,15.143C55.024,15.192 55.094,15.19 55.244,15.183L55.397,15.177L55.708,15.178C55.873,15.18 56.036,15.18 56.202,15.175C56.448,15.166 56.652,15.073 56.825,14.889C56.963,14.743 57.122,14.616 57.283,14.489C57.414,14.384 57.548,14.28 57.664,14.16C57.815,14.005 57.935,13.856 58.03,13.708C58.079,13.633 58.117,13.55 58.156,13.466C58.241,13.285 58.338,13.078 58.519,12.919C58.582,12.863 58.65,12.812 58.716,12.762C58.838,12.671 58.943,12.593 59.003,12.485C59.037,12.426 59.057,12.36 59.079,12.294C59.118,12.178 59.162,12.046 59.252,11.921C59.424,11.682 59.698,11.536 59.985,11.532C60.219,11.538 60.417,11.627 60.57,11.706C60.619,11.731 60.668,11.756 60.719,11.779C60.818,11.821 60.929,11.807 61.102,11.782L61.258,11.763C61.623,11.724 61.824,11.854 62.028,12.073C62.075,12.124 62.135,12.171 62.195,12.222C62.357,12.355 62.54,12.506 62.624,12.728C62.672,12.855 62.679,12.98 62.685,13.09C62.688,13.131 62.69,13.171 62.695,13.209C62.721,13.331 62.737,13.405 62.734,13.49C62.731,13.578 62.709,13.657 62.692,13.721C62.685,13.745 62.677,13.77 62.673,13.794C62.68,13.793 62.709,13.805 62.72,13.811C62.868,13.89 63.04,13.938 63.222,13.989C63.313,14.013 63.403,14.038 63.492,14.068C63.537,14.082 63.594,14.079 63.67,14.082C63.759,14.081 63.86,14.081 63.971,14.108C64.055,14.13 64.138,14.154 64.222,14.179C64.306,14.205 64.39,14.23 64.476,14.251C64.7,14.302 64.829,14.38 64.987,14.505L65.058,14.562C65.134,14.625 65.206,14.684 65.268,14.704L65.408,14.748C65.524,14.783 65.64,14.819 65.754,14.869C65.799,14.889 65.844,14.916 65.889,14.941C65.926,14.963 65.965,14.985 65.99,14.993C66.039,15.01 66.158,14.961 66.245,14.925C66.471,14.83 66.671,14.854 66.832,14.874C66.977,14.891 67.061,14.898 67.139,14.86C67.227,14.817 67.318,14.789 67.41,14.762C67.471,14.745 67.532,14.728 67.589,14.7C67.652,14.669 67.684,14.633 67.75,14.555C67.785,14.515 67.821,14.473 67.863,14.431C68.056,14.236 68.321,14.233 68.515,14.23C68.561,14.23 68.606,14.23 68.646,14.226L68.77,14.215C68.909,14.205 69.169,14.185 69.239,14.116C69.262,14.093 69.286,14.027 69.307,13.969C69.349,13.853 69.401,13.71 69.529,13.597C69.898,13.271 70.449,13.308 70.668,13.34C70.896,13.371 71.077,13.321 71.328,13.251L71.442,13.22C71.632,13.169 71.92,13.104 72.223,13.133C72.391,13.148 72.548,13.139 72.712,13.131C73.019,13.115 73.205,13.208 73.372,13.289L73.466,13.332C73.607,13.396 73.768,13.47 73.901,13.604C73.965,13.67 74.018,13.742 74.07,13.814C74.12,13.883 74.162,13.943 74.213,13.984C74.343,14.092 74.502,14.176 74.671,14.265C74.827,14.346 74.982,14.429 75.124,14.532L75.224,14.607C75.303,14.67 75.351,14.706 75.406,14.721C75.589,14.769 75.816,14.704 76.014,14.638L76.096,14.611C76.466,14.489 76.786,14.383 77.045,14.142C77.322,13.883 77.741,13.749 78.188,13.773L78.328,13.783C78.564,13.799 78.735,13.811 78.933,13.737C78.988,13.716 79.045,13.698 79.103,13.68C79.202,13.648 79.295,13.619 79.364,13.577C79.394,13.559 79.421,13.535 79.447,13.513C79.518,13.453 79.605,13.379 79.731,13.335C79.927,13.267 80.121,13.285 80.294,13.303C80.342,13.308 80.39,13.312 80.435,13.314C80.557,13.319 80.679,13.316 80.801,13.314C81.017,13.31 81.241,13.304 81.467,13.336C81.532,13.344 81.616,13.336 81.706,13.327C81.774,13.32 81.842,13.313 81.908,13.312C82.027,13.31 82.135,13.313 82.236,13.323C82.182,13.293 82.129,13.264 82.079,13.231C81.825,13.063 81.552,12.98 81.237,12.883L81.145,12.855C81.051,12.826 80.957,12.802 80.862,12.779C80.566,12.704 80.259,12.627 79.974,12.409C79.769,12.251 79.703,12.07 79.645,11.911C79.589,11.756 79.517,11.681 79.363,11.581C79.046,11.375 78.651,11.07 78.412,10.53C78.287,10.248 78.316,9.972 78.341,9.728C78.356,9.574 78.371,9.428 78.345,9.301C78.333,9.242 78.241,9.152 78.151,9.131L78.078,9.149C78.084,9.149 78.086,9.2 78.088,9.233C78.092,9.327 78.097,9.445 78.049,9.566C77.975,9.757 77.786,9.974 77.297,9.908C76.996,9.869 76.779,9.724 76.631,9.467L76.585,9.38C76.581,9.372 76.579,9.366 76.579,9.362C76.55,9.366 76.525,9.372 76.5,9.377C76.331,9.411 76.049,9.47 75.824,9.269C75.629,9.093 75.628,8.84 75.626,8.655C75.626,8.603 75.628,8.553 75.62,8.511C75.552,8.158 75.594,7.836 75.743,7.582C75.849,7.401 76.007,7.3 76.134,7.219C76.225,7.161 76.305,7.111 76.337,7.05C76.351,7.006 76.325,6.981 76.26,6.967C75.929,6.888 75.751,6.815 75.506,6.563C75.309,6.359 75.225,6.415 75.15,6.462C75.074,6.511 75.004,6.598 74.929,6.691C74.815,6.831 74.686,6.99 74.487,7.088C74.208,7.226 73.937,7.148 73.739,7.09C73.671,7.071 73.602,7.05 73.534,7.041C73.457,7.032 73.436,7.039 73.304,7.189L73.205,7.3C72.968,7.545 72.577,7.631 72.274,7.504C71.907,7.35 71.505,6.909 71.468,6.438C71.451,6.222 71.494,6.012 71.531,5.826C71.556,5.706 71.584,5.614 71.615,5.518C71.653,5.398 71.705,5.234 71.697,5.16C71.687,5.06 71.588,4.938 71.473,4.884C71.358,4.831 71.209,4.885 70.974,4.983C70.739,5.081 70.474,5.191 70.177,5.138C69.926,5.094 69.802,4.965 69.743,4.864C69.589,4.605 69.693,4.296 69.776,4.05C69.798,3.986 69.818,3.926 69.83,3.874C69.93,3.439 69.888,3.241 69.665,3.093C69.518,2.996 69.326,2.876 69.135,2.81C69.001,2.764 68.847,2.759 68.684,2.754L68.503,2.746C68.25,2.73 67.932,2.676 67.711,2.404C67.603,2.272 67.546,2.123 67.495,1.993C67.478,1.945 67.46,1.898 67.439,1.854C67.271,1.487 67.068,1.216 66.835,1.049C66.639,0.909 66.424,0.794 66.195,0.673C66.009,0.573 65.823,0.474 65.646,0.36C65.322,0.153 65.116,-0.141 64.933,-0.424C64.906,-0.465 64.869,-0.501 64.824,-0.546C64.779,-0.59 64.735,-0.635 64.693,-0.686C64.585,-0.818 64.515,-0.975 64.453,-1.112C64.334,-1.37 64.193,-1.546 64.044,-1.732L63.971,-1.824C63.818,-2.018 63.519,-2.197 63.443,-2.178C63.405,-2.101 63.387,-2.053 63.368,-2.006C63.293,-1.809 63.198,-1.565 62.925,-1.416C62.728,-1.31 62.495,-1.301 62.3,-1.395C62.121,-1.482 61.998,-1.645 61.963,-1.844C61.947,-1.931 61.947,-2.043 61.949,-2.163C61.951,-2.257 61.956,-2.505 61.911,-2.542C61.883,-2.556 61.812,-2.513 61.768,-2.494C61.693,-2.461 61.619,-2.431 61.548,-2.415C61.069,-2.308 60.761,-2.391 60.633,-2.66C60.537,-2.865 60.61,-3.068 60.664,-3.217C60.682,-3.266 60.709,-3.341 60.708,-3.368C60.701,-3.42 60.667,-3.48 60.628,-3.55C60.543,-3.7 60.416,-3.927 60.519,-4.236C60.595,-4.461 60.755,-4.589 60.884,-4.691C60.959,-4.751 61.023,-4.802 61.046,-4.851C61.028,-4.883 60.864,-5.057 60.711,-5.143C60.673,-5.164 60.6,-5.182 60.53,-5.198C60.335,-5.246 60.008,-5.325 59.903,-5.667C59.746,-6.178 60.261,-6.577 60.455,-6.727L60.58,-6.818C60.71,-6.911 60.857,-7.017 60.891,-7.123C60.925,-7.224 60.874,-7.373 60.797,-7.403C60.693,-7.442 60.493,-7.398 60.332,-7.363C60.263,-7.347 60.195,-7.333 60.133,-7.322L59.989,-7.295C59.79,-7.257 59.567,-7.212 59.334,-7.26C58.695,-7.394 58.578,-7.95 58.493,-8.355L58.464,-8.488C58.382,-8.852 58.554,-9.083 58.693,-9.269C58.816,-9.437 58.827,-9.55 58.843,-9.776C58.863,-10.079 58.942,-10.274 59.062,-10.493C59.133,-10.622 59.132,-10.74 59.123,-10.953L59.12,-11.03C59.115,-11.205 59.11,-11.344 59.048,-11.464L59.012,-11.535C58.916,-11.716 58.818,-11.904 58.803,-12.17C58.798,-12.267 58.801,-12.361 58.804,-12.455C58.809,-12.585 58.814,-12.698 58.789,-12.807C58.603,-13.643 58.391,-14.591 58.431,-15.52C58.451,-15.995 58.672,-16.459 59.087,-16.896C59.238,-17.056 59.393,-17.21 59.547,-17.363C59.855,-17.669 60.145,-17.958 60.408,-18.289L60.526,-18.435C60.71,-18.663 60.894,-18.891 61.052,-19.137C61.143,-19.279 61.229,-19.424 61.314,-19.57C61.44,-19.782 61.565,-19.995 61.706,-20.197C61.922,-20.508 62.139,-20.819 62.348,-21.134L62.462,-21.308C62.781,-21.786 63.111,-22.28 63.295,-22.789C63.479,-23.298 63.804,-23.886 64.262,-24.539C64.391,-24.723 64.505,-24.909 64.619,-25.097C64.688,-25.209 64.756,-25.321 64.828,-25.434C64.944,-25.614 65.082,-25.78 65.221,-25.943C65.06,-26.054 64.896,-26.148 64.724,-26.186C64.523,-26.229 64.322,-26.164 64.093,-26.089C63.913,-26.03 63.728,-25.968 63.517,-25.95C63.109,-25.914 62.795,-26.104 62.515,-26.268C62.403,-26.334 62.292,-26.402 62.174,-26.449C61.772,-26.616 61.053,-26.583 60.763,-26.294C60.746,-26.276 60.742,-26.257 60.761,-26.11C60.793,-25.861 60.875,-25.227 60.327,-24.947C60.099,-24.831 59.853,-24.829 59.661,-24.831C59.585,-24.831 59.505,-24.837 59.424,-24.843C59.301,-24.852 59.185,-24.861 59.092,-24.843C59.049,-24.834 59.008,-24.807 58.94,-24.761L58.872,-24.715C58.676,-24.589 58.461,-24.533 58.271,-24.484C58.106,-24.442 57.95,-24.401 57.832,-24.322C57.599,-24.164 57.235,-23.985 56.772,-24.236C56.468,-24.401 56.307,-24.688 56.331,-25.023C56.341,-25.157 56.391,-25.273 56.435,-25.375C56.457,-25.427 56.494,-25.513 56.493,-25.543C56.49,-25.543 56.454,-25.599 56.31,-25.688C56.233,-25.735 56.135,-25.769 56.031,-25.804C55.815,-25.878 55.545,-25.97 55.362,-26.237C55.197,-26.477 55.206,-26.735 55.213,-26.942L55.216,-27.073C55.215,-27.213 55.165,-27.299 55.042,-27.475C54.64,-28.051 54.656,-28.651 55.086,-29.165C55.588,-29.763 55.477,-30.037 55.283,-30.244C55.233,-30.297 55.168,-30.344 55.103,-30.393C54.939,-30.517 54.735,-30.672 54.65,-30.912C54.559,-31.169 54.657,-31.409 54.728,-31.585C54.749,-31.635 54.769,-31.685 54.782,-31.733C54.903,-32.164 54.472,-32.437 54.281,-32.535C53.806,-32.775 53.25,-33.056 53.325,-33.79C53.381,-34.349 53.765,-34.647 54.105,-34.91C54.181,-34.969 54.258,-35.028 54.331,-35.091C54.545,-35.276 54.555,-35.436 54.557,-35.782C54.558,-35.879 54.559,-35.98 54.567,-36.087C54.606,-36.659 54.743,-37.077 55.026,-37.486C55.304,-37.886 55.686,-38.212 56.162,-38.455C56.464,-38.609 56.659,-38.817 56.858,-39.194C56.933,-39.337 56.916,-39.523 56.896,-39.738C56.887,-39.839 56.878,-39.939 56.877,-40.038C56.876,-40.204 56.846,-40.368 56.818,-40.533C56.79,-40.697 56.762,-40.861 56.753,-41.028C56.732,-41.409 56.717,-41.779 56.762,-42.13C56.804,-42.46 56.97,-42.781 57.117,-43.063L57.187,-43.2C57.271,-43.366 57.378,-43.517 57.486,-43.668C57.582,-43.802 57.679,-43.935 57.75,-44.084C57.963,-44.529 57.822,-45.066 57.657,-45.532C57.62,-45.636 57.578,-45.736 57.538,-45.835C57.374,-46.231 57.188,-46.679 57.371,-47.228C57.402,-47.322 57.441,-47.416 57.481,-47.51C57.551,-47.677 57.618,-47.836 57.628,-47.984C57.634,-48.088 57.603,-48.221 57.322,-48.409C57.259,-48.451 57.16,-48.501 57.046,-48.559C56.632,-48.772 56.063,-49.064 55.931,-49.504C55.877,-49.682 55.9,-49.866 55.996,-50.037C56.405,-50.767 57.513,-50.686 57.876,-50.659C58.518,-50.612 58.981,-50.65 59.307,-50.989C59.677,-51.37 59.639,-51.993 59.564,-52.493C59.442,-53.306 59.149,-53.948 58.693,-54.401C58.103,-54.988 57.307,-55.192 56.465,-55.409L56.204,-55.476C55.601,-55.635 54.691,-55.874 54.397,-56.761C54.342,-56.929 54.295,-57.1 54.248,-57.269C54.194,-57.468 54.139,-57.667 54.069,-57.861C53.974,-58.124 53.865,-58.385 53.749,-58.643C53.215,-58.552 52.6,-58.638 52.23,-58.802C51.719,-59.028 51.31,-59.125 50.755,-58.991C50.385,-58.902 49.941,-58.807 49.578,-58.983C49.29,-59.123 49.225,-59.627 48.982,-59.866C48.733,-60.112 48.423,-60.283 48.202,-60.558C48.013,-60.794 47.92,-61.042 48.021,-61.334C48.123,-61.631 48.311,-61.876 48.231,-62.209C48.013,-63.11 47.202,-62.296 46.7,-62.314C46.385,-62.325 46.083,-62.512 45.762,-62.425C45.486,-62.349 45.318,-62.086 45.057,-61.976C44.562,-61.766 43.993,-61.931 43.609,-61.495C43.48,-61.349 43.308,-61.184 43.239,-61C43.129,-60.705 43.224,-60.374 43.161,-60.075C43.084,-59.712 42.98,-59.498 42.632,-59.363C42.304,-59.236 42.091,-59.008 41.95,-58.681C41.813,-58.363 41.987,-58.038 41.87,-57.72C41.77,-57.448 41.527,-57.255 41.426,-56.976C41.311,-56.661 41.348,-56.34 41.583,-56.09C41.77,-55.892 42.049,-55.748 42.036,-55.43C42.025,-55.113 41.676,-54.918 41.61,-54.605C41.489,-54.028 42.177,-53.421 42.644,-53.183C42.861,-53.072 43.134,-53.012 43.374,-52.996C43.718,-52.973 44.197,-53.18 44.522,-53.074C45.036,-52.905 44.88,-52.113 44.72,-51.754C44.568,-51.413 44.4,-51.034 44.161,-50.746C43.876,-50.402 43.481,-50.177 43.367,-49.716C43.126,-48.749 43.895,-48.23 44.477,-47.625C45.175,-46.9 45.21,-46.069 44.664,-45.228C44.283,-44.641 43.691,-44.296 43.012,-44.173C42.713,-44.119 42.368,-43.986 42.063,-44.036C41.714,-44.092 41.483,-44.386 41.336,-44.686C41.114,-45.138 41.452,-45.613 41.361,-46.078C41.254,-46.626 40.778,-46.727 40.329,-46.929C40.09,-47.036 39.965,-47.088 39.849,-47.327C39.738,-47.555 39.747,-47.731 39.706,-47.969C39.673,-48.156 39.479,-48.245 39.423,-48.419C39.36,-48.615 39.438,-48.873 39.427,-49.08C39.409,-49.448 39.441,-49.917 39.303,-50.256C39.187,-50.539 38.923,-50.617 38.671,-50.744C38.23,-50.966 38.112,-51.391 37.568,-51.437C36.975,-51.488 36.489,-51.315 35.97,-51.061C35.44,-50.803 34.932,-50.894 34.381,-50.763C33.88,-50.645 33.489,-50.208 32.988,-50.122C32.799,-50.089 32.594,-50.137 32.408,-50.173C32.189,-50.215 31.931,-50.404 31.709,-50.37C31.286,-50.307 31.227,-49.854 31.206,-49.517C31.181,-49.126 31.01,-48.037 30.456,-48.055C30.16,-48.065 29.963,-48.384 29.645,-48.4C29.327,-48.417 29.08,-48.219 28.788,-48.134C28.482,-48.044 28.16,-48.077 27.845,-48.069C27.523,-48.061 27.166,-47.952 26.848,-48.025C26.522,-48.101 26.265,-48.362 25.939,-48.459C25.616,-48.555 25.33,-48.676 25.109,-48.94C24.934,-49.149 24.651,-49.473 24.595,-49.738C24.572,-49.847 24.596,-49.986 24.595,-50.099C24.594,-50.215 24.554,-50.301 24.542,-50.402C24.503,-50.762 24.443,-51.126 24.119,-51.368C23.942,-51.498 23.698,-51.51 23.533,-51.661C23.396,-51.785 23.394,-51.974 23.335,-52.138C23.27,-52.32 23.228,-52.544 23.127,-52.709C23.027,-52.871 22.866,-52.88 22.788,-53.055C22.626,-53.417 22.794,-53.766 22.746,-54.133C22.705,-54.438 22.69,-54.642 22.79,-54.95C22.995,-55.576 23.392,-56.136 23.426,-56.811C23.439,-57.053 23.435,-57.662 23.053,-57.435C22.65,-57.196 22.453,-56.664 22.073,-56.384C21.711,-56.115 21.426,-56.261 21.151,-56.564C20.856,-56.888 20.603,-57.209 20.168,-57.348C19.548,-57.547 18.362,-57.646 17.859,-57.137C17.564,-56.838 17.356,-56.423 17.154,-56.059C16.988,-55.762 16.765,-55.399 16.839,-55.043C16.902,-54.738 17.152,-54.486 17.285,-54.209C17.469,-53.828 17.538,-53.409 17.61,-52.995C17.751,-52.178 17.942,-51.41 17.826,-50.578C17.713,-49.767 17.638,-48.954 17.255,-48.218C17.05,-47.822 16.857,-47.436 16.735,-47.004C16.616,-46.586 16.551,-46.129 16.282,-45.773C16.006,-45.409 15.571,-45.217 15.225,-44.931C14.907,-44.667 14.691,-44.319 14.518,-43.948C14.373,-43.639 14.226,-43.234 13.971,-42.998C13.642,-42.694 13.191,-42.758 12.849,-42.502C12.522,-42.259 12.356,-41.899 12.073,-41.626C11.78,-41.344 11.349,-41.183 11.029,-40.92C10.612,-40.579 10.769,-40.275 10.811,-39.809C10.851,-39.374 10.928,-38.999 10.767,-38.581C10.615,-38.186 10.385,-37.858 9.927,-37.842C9.51,-37.828 9.105,-37.931 8.731,-37.684C8.352,-37.435 8.306,-36.965 8.464,-36.563C8.577,-36.273 8.998,-36.002 8.894,-35.66C8.787,-35.305 8.32,-35.131 8.156,-34.798C8.038,-34.56 8.083,-34.322 8.169,-34.082C8.355,-33.556 8.607,-33.039 8.837,-32.53C8.943,-32.297 9.053,-32.075 9.259,-31.913C9.486,-31.735 9.771,-31.647 10.012,-31.49C10.568,-31.13 10.445,-30.572 10.168,-30.053C9.891,-29.534 9.314,-29.237 9.111,-28.68C8.925,-28.169 8.943,-27.411 8.246,-27.318C7.656,-27.239 7.322,-27.931 6.764,-28.028C6.335,-28.102 5.863,-27.845 5.448,-28.004C5.011,-28.171 5.315,-28.663 5.422,-28.965C5.494,-29.172 5.671,-29.323 5.685,-29.549C5.718,-30.035 5.429,-30.642 5.278,-31.09C5.132,-31.522 5.065,-31.992 4.928,-32.435C4.851,-32.686 4.76,-32.837 4.598,-33.043C4.403,-33.289 4.168,-33.302 3.874,-33.382C3.793,-33.687 3.646,-34.008 3.44,-34.257C3.277,-34.453 2.97,-34.488 2.734,-34.576C2.371,-34.713 1.746,-35.098 1.648,-35.506C1.593,-35.734 1.74,-35.933 1.839,-36.125C2.037,-36.509 2.019,-37.024 2.334,-37.338C2.638,-37.641 3.14,-37.715 3.37,-38.099C3.633,-38.537 3.284,-39.077 3.027,-39.43C2.691,-39.893 2.349,-40.066 1.785,-40.071C1.257,-40.075 1.237,-40.246 1.029,-40.673C0.83,-41.083 0.367,-41.141 0.004,-40.891C-0.071,-40.84 -0.14,-40.769 -0.207,-40.693C-0.182,-40.276 -0.153,-39.85 -0.082,-39.442C-0.061,-39.319 -0.03,-39.201 0,-39.082Z" style="fill:none;fill-rule:nonzero;stroke:white;stroke-width:0.7px;"/>
        </g>
    </g>
</svg>
