<svg
        className="feature-section-2__map-image"
        xmlns="http://www.w3.org/2000/svg" width="211.615" height="206.859"
        viewBox="0 0 211.615 206.859">
    <g id="Group_392" data-name="Group 392" transform="translate(-823 -1266.17)">
        <path id="Path_608" data-name="Path 608"
              d="M1184.377,483.446l-.067-.177-1.21-.089-2.015-1.149-1.446-1.575-10.715-18.044-9.312-4.208-1.287-1L1153,453.07l-2.251-.7-4.628-.567-3.753-2.046-.954-1.881-1.1-2.173.445-6.581,4.038-9.2,1.2-2.74.953-3.731,1.008-3.948-2.28-3.667-.69.162-3.91.915L1136.743,419l-4.031.309-3.655-4.205-.056-.22-.083-.189-.111-.179-.125-.159-.626-.508-1.751-2.054,2.057-1.865.695-.459,1.042-1.376.375-1.337-.333-1.247-1.084-1.137,3.072-4.091,2.352-1.791,12.616-9.613,3.85-7.1-.534-1.872-.5-1.738-1.347-.261-1.807-.349-3.961.43-3.419-.54-4.044-4.012-2.53-1.772-3.752-.761-1.876-1.071-4.031-.28-2.085-.721,1.96,3.424-3.669.57-1.14-1.681-.472-2.683-1.779-2.443-.014-.02-.014-.02-.82-4.858-.75-2.3-1.042-1.944,3.5-2.185.583-1,1.906-3.275,1.807-4.123,1.459-1.75,1.779-.19,1.668-.813,3.224-2.354,6.227-3.338,3.28-3.424,2.863-4.028,3.294-3.105,4.559-.6,3.322.116,2.516-1.352,1.125-2.329.348-.722.194-4.978.751-1.031.5-1.207.25-1.374-.014-1.529-2.1.412-2.029-.211-16.275-5.285-5.712-.211-1.028-.72-1.9-2.165-.931-.358-8.2.6-5.879-1.032-13.7,2.926-5.42-.272-2.835-1.138-8.548-5.254-11.021-2.549-31.48-2.263-7.644-4.986-3.371-1.133.821,9.29.917,4.061-.062,2.513-.251,1.858.355,1.657-.209.916-.417.478-8.833,1.389-1.313.463-1.168.609-.542.368-.709.664-2.314,2.878-.507,1.152-.056.89.376.533.5.357.6.307.688.216,1.167.659.438.7.25.96.021,1.714-.333.8-.584.241-.646-.161-1.23-.613-1.459-.392-6.408.041-5.636,1.216-2.939,1.634-.7.648-.521.664-1.71,3.838-1.376,4.9-4.3,7.94-2.773,3.631-1.084,1.094-6.928,3.6-1.981,1.414-1.383,1.584-2.23,3.127-.688,1.5-.334.922.083.591.5,1.152.354.531,2.064,2.468,3.3,2.919.6.3.667.251,3.03.08.646.22.417.44.271.581.209.661.25.58.438.4.688.12,1.543.02.667.265.48.646.229,1.41.209,2.751.125.68.291.565.355.5.924.87,2.564,1.93.479,1.11.438,1.69.521,3.828.063,1.858-.083,1.259-.375.849-.271.469-.355.46-.938.839-1.105.619-3.3,1.009-.521.329-.48.42-.417.474-.375.544-.292.619-.521,1.288-.688,1.347-1.522,2.4,2.085,6.543.792,3.709.584,6.039.417,1.271.667.712,1.418.358.563.239.75.518,2.822,3.182.5.3,2.022.677,1.272.846.542.737.292.767.153,1.04.354,1.622,3.44,9.166.417,1.611.438.869.5.611,4.74,2.425.667.09.667-.135,1.564-1.028.625-.189.646-.06.633.2.73.452,2.23,2.062.625.815.98,2.444,2.335.289,1.188-.577,4.364-4.54,1.084-.825,1.084-.527,2.342-.392.729-.433.605-.745.438-.86.75-1.218.5-.427.6-.149,1.105.577.987.765.43.448.341.512.146.661.021.686-.042.586.167.557.438.676,1.084.636.646-.06.521-.367.271-.636.437-.8.646-.865,1.376-1.133,1.008-.388.917-.064.688.208.646.314.5.4.333.512.125.627-.1.686.313.661.792.631,6.094,1.252h.938l.667-.268.4-.556,1.021-1.918,1.418-1.74,2.654,1.759.9,1.541.041.437-.312,2,.021,2.022.23,2.26.146.938.229.705,3.211,4.309.417,1,.126.605-.042.308-.083,1.3.417.9.653.952,1.355,1.647.667,1.081,3.043,8.576.834,1.754,2,2.443h0l1-3.2,4.706-3.91,1.565-2.755-5.111,2.381-2.714.414-2.211-1.468-.733-3.232,1.478-2.671,2.692-1.656,3-.187V462.18l-1.488-.812-.493-1.8.361-1.814,1.138-.828,1.62.594,1.138,2.689,1.324.641,1.084-.586,1.576-2.72,4.771-1.728,1.423-.2.854.523,3.228,3.291,1.215.555,13.034,3.024,2.364-.828,1.653,2.8,5.5,1.148,1.182,3.3-.886,1.592-2.1,1.39-2.451,1.062-1.915.5,3.359,1.483,3.535-1.093,3.184-2.427,2.364-2.506,1.477-.734,3.71-.719.745-1.218.678-.781,4.914-2.375-3.578-.64-.558-3.75,1.379-4.221,2.266-1.994,3.086.54,7.354,3.268,2.473,2.032,10.615,11.186,1.729,2.334,1.958,3.7.536,3.324-2.473,1.123,5.089,2.62,1.259,2.129,1.226,1.4,1.685.514-2.857.608-4.016-.483-3.611.109-1.532,2.385-.942,1.426,6.628-.58,5.31,2.87,6.352-.653,2.711-3.353,2.57-3.18,1.029-2.5Z"
              transform="translate(-150.903 978.525)" fill="none" stroke="#fff"
              strokeLinecap="round" strokeLinejoin="round" strokeWidth="2"
              fillRule="evenodd"/>
    </g>
</svg>
