<svg xmlns="http://www.w3.org/2000/svg" width="59.161" height="31.347" viewBox="0 0 59.161 31.347">
  <g id="Group_218" data-name="Group 218" transform="translate(-98.7 -485)">
    <rect id="Rectangle_109" data-name="Rectangle 109" width="2.142" height="31.347" transform="translate(98.7 485)" fill="#353535"/>
    <path id="Path_537" data-name="Path 537" d="M171.79,775.8h-2.142v-9.259H113.7V764.4h58.09Z" transform="translate(-13.929 -259.454)" fill="#353535"/>
    <path id="Path_538" data-name="Path 538" d="M410.443,585.834H370.7v-13.25a2.788,2.788,0,0,1,2.784-2.784h24.858a12.111,12.111,0,0,1,12.1,12.1Zm-37.6-2.142H408.3V581.9a9.972,9.972,0,0,0-9.959-9.959H373.484a.64.64,0,0,0-.643.643Z" transform="translate(-252.582 -78.746)" fill="#353535"/>
    <path id="Path_539" data-name="Path 539" d="M172.954,581.908a6.054,6.054,0,1,1,6.054-6.054A6.057,6.057,0,0,1,172.954,581.908Zm0-9.966a3.912,3.912,0,1,0,3.912,3.912A3.918,3.918,0,0,0,172.954,571.942Z" transform="translate(-63.331 -78.746)" fill="#353535"/>
  </g>
</svg>
