<svg xmlns="http://www.w3.org/2000/svg" width="39" height="39" viewBox="0 0 39 39">
  <g id="Union_15" data-name="Union 15" transform="translate(2599 3606)" fill="none">
    <path d="M-2585-3567a3,3,0,0,1-3-3v-8h-8a3,3,0,0,1-3-3v-11a3,3,0,0,1,3-3h8v-8a3,3,0,0,1,3-3h11a3,3,0,0,1,3,3v8h8a3,3,0,0,1,3,3v11a3,3,0,0,1-3,3h-8v8a3,3,0,0,1-3,3Z" stroke="none"/>
    <path d="M -2573.99951171875 -3569 C -2573.447998046875 -3569 -2572.99951171875 -3569.448486328125 -2572.99951171875 -3570 L -2572.99951171875 -3580 L -2563.00048828125 -3580 C -2562.448974609375 -3580 -2562.000244140625 -3580.448486328125 -2562.000244140625 -3581 L -2562.000244140625 -3592.000244140625 C -2562.000244140625 -3592.5517578125 -2562.448974609375 -3593.000244140625 -2563.00048828125 -3593.000244140625 L -2572.99951171875 -3593.000244140625 L -2572.99951171875 -3603.000244140625 C -2572.99951171875 -3603.5517578125 -2573.447998046875 -3604.000244140625 -2573.99951171875 -3604.000244140625 L -2584.999755859375 -3604.000244140625 C -2585.55126953125 -3604.000244140625 -2585.999755859375 -3603.5517578125 -2585.999755859375 -3603.000244140625 L -2585.999755859375 -3593.000244140625 L -2595.999755859375 -3593.000244140625 C -2596.55126953125 -3593.000244140625 -2596.999755859375 -3592.5517578125 -2596.999755859375 -3592.000244140625 L -2596.999755859375 -3581 C -2596.999755859375 -3580.448486328125 -2596.55126953125 -3580 -2595.999755859375 -3580 L -2585.999755859375 -3580 L -2585.999755859375 -3570 C -2585.999755859375 -3569.448486328125 -2585.55126953125 -3569 -2584.999755859375 -3569 L -2573.99951171875 -3569 M -2573.99951171875 -3567 L -2584.999755859375 -3567 C -2586.65673828125 -3567 -2587.999755859375 -3568.343017578125 -2587.999755859375 -3570 L -2587.999755859375 -3578 L -2595.999755859375 -3578 C -2597.65673828125 -3578 -2598.999755859375 -3579.343017578125 -2598.999755859375 -3581 L -2598.999755859375 -3592.000244140625 C -2598.999755859375 -3593.65625 -2597.65673828125 -3595.000244140625 -2595.999755859375 -3595.000244140625 L -2587.999755859375 -3595.000244140625 L -2587.999755859375 -3603.000244140625 C -2587.999755859375 -3604.656494140625 -2586.65673828125 -3606.000244140625 -2584.999755859375 -3606.000244140625 L -2573.99951171875 -3606.000244140625 C -2572.343505859375 -3606.000244140625 -2570.99951171875 -3604.656494140625 -2570.99951171875 -3603.000244140625 L -2570.99951171875 -3595.000244140625 L -2563.00048828125 -3595.000244140625 C -2561.34326171875 -3595.000244140625 -2560.000244140625 -3593.65625 -2560.000244140625 -3592.000244140625 L -2560.000244140625 -3581 C -2560.000244140625 -3579.343017578125 -2561.34326171875 -3578 -2563.00048828125 -3578 L -2570.99951171875 -3578 L -2570.99951171875 -3570 C -2570.99951171875 -3568.343017578125 -2572.343505859375 -3567 -2573.99951171875 -3567 Z" stroke="none" fill="#353535"/>
  </g>
</svg>
