<svg xmlns="http://www.w3.org/2000/svg" width="46.777" height="32.664" viewBox="0 0 46.777 32.664">
  <path id="Path_615" data-name="Path 615" d="M66.54,38.922A9.674,9.674,0,0,0,62.1,33a10.19,10.19,0,0,0-5.457-1.4,14.6,14.6,0,0,1,.078-1.637.885.885,0,0,0-.234-.624.953.953,0,0,0-.7-.234H22.806a1.257,1.257,0,0,0-.7.234.646.646,0,0,0-.234.624c0,.312.78,20.113.858,22.373h0a14.17,14.17,0,0,0,2.728,7.562H20.935a.935.935,0,1,0,0,1.871H57.653a.935.935,0,1,0,0-1.871H53.131A14.6,14.6,0,0,0,55.782,52.8a16.919,16.919,0,0,0,9.511-6.938A8.708,8.708,0,0,0,66.54,38.922ZM53.989,52.253a12.816,12.816,0,0,1-3.2,7.718h-23a13.394,13.394,0,0,1-3.2-7.718c-.234-6.548-.7-18.086-.858-21.438H54.768C54.691,34.167,54.223,45.7,53.989,52.253Zm9.745-7.328A15.069,15.069,0,0,1,55.86,50.85c.156-3.664.468-12.551.7-17.462a7.721,7.721,0,0,1,4.521,1.169,7.8,7.8,0,0,1,3.586,4.755A7.089,7.089,0,0,1,63.733,44.925ZM26.159,48.2c-.156-4.677-.39-10.914-.546-14.812a.948.948,0,0,1,.935-.935.885.885,0,0,1,.935.858c.156,3.82.39,10.056.546,14.812a.948.948,0,0,1-.935.935h0A1,1,0,0,1,26.159,48.2Z" transform="translate(-20 -29.1)" fill="#353535"/>
</svg>
