<svg xmlns="http://www.w3.org/2000/svg" width="27" height="36.322" viewBox="0 0 27 36.322">
    <g id="Group_385" data-name="Group 385" transform="translate(47.518 46.732) rotate(180)">
        <path id="Path_605" data-name="Path 605" d="M33.3,46.351a.915.915,0,0,0,1.486,0l9.7-13.379c4.389-6.651,4-13.632-1.037-18.668a13.31,13.31,0,0,0-18.815,0c-5.087,5.087-5.486,12.425-1.014,18.7ZM25.931,15.6a11.472,11.472,0,0,1,16.219,0c4.44,4.44,4.733,10.4.821,16.329L34.04,44.246,25.114,31.935C21.193,26.431,21.514,20.019,25.931,15.6Z"/>
    </g>
    <path id="Path_766" data-name="Path 766" d="M30.881,57.105,26.94,63.132a.847.847,0,1,1-1.421-.925l0,0,3.941-6.026a.847.847,0,0,1,1.419.927Z" transform="translate(-18.524 -46.039)"/>
</svg>
