<svg xmlns="http://www.w3.org/2000/svg" width="58" height="58" viewBox="0 0 58 58">
    <g id="Path_973" data-name="Path 973" transform="translate(11 11)" fill="none">
        <path d="M18,0a18.323,18.323,0,0,1,6.894,1.368A18.01,18.01,0,1,1,18,0Z" stroke="none"/>
        <path d="M 18 2 C 13.72624969482422 2 9.70829963684082 3.664291381835938 6.686290740966797 6.686290740966797 C 3.664291381835938 9.70829963684082 2 13.72624969482422 2 18 C 2 22.27375030517578 3.664291381835938 26.29170036315918 6.686290740966797 29.3137092590332 C 9.70829963684082 32.33570861816406 13.72624969482422 34 18 34 C 22.27375030517578 34 26.29170036315918 32.33570861816406 29.3137092590332 29.3137092590332 C 32.33570861816406 26.29170036315918 34 22.27375030517578 34 18 C 34 14.73748016357422 33.02912139892578 11.59332084655762 31.19232940673828 8.907430648803711 C 29.43912887573242 6.343780517578125 26.9415397644043 4.326690673828125 24.15708923339844 3.226730346679688 C 22.04693984985352 2.389801025390625 20.09049034118652 2 18 2 M 18 0 C 20.33615875244141 0 22.56838035583496 0.4450492858886719 24.89445114135742 1.367618560791016 C 31.28374099731445 3.891620635986328 36 10.39504051208496 36 18 C 36 27.94112014770508 27.94112014770508 36 18 36 C 8.058879852294922 36 0 27.94112014770508 0 18 C 0 8.058879852294922 8.058879852294922 0 18 0 Z" stroke="none" fill="#fff"/>
    </g>
    <g id="Ellipse_148" data-name="Ellipse 148" fill="none" stroke="#fff" stroke-width="4" stroke-dasharray="2 12">
        <circle cx="29" cy="29" r="29" stroke="none"/>
        <circle cx="29" cy="29" r="27" fill="none"/>
    </g>
</svg>
