<svg xmlns="http://www.w3.org/2000/svg" width="58.638" height="32.975" viewBox="0 0 58.638 32.975">
    <path id="Path_645" data-name="Path 645" d="M-144.429-11.939a17.983,17.983,0,0,1-9.775-2.9l-.027-.017-.032,0a18.361,18.361,0,0,1-2.628.193c-.541,0-1.084-.026-1.614-.077a18.775,18.775,0,0,1-2.493.168,18.2,18.2,0,0,1-2.268-.157l-.03,0-.026.016a18.009,18.009,0,0,1-9.58,2.775,18.07,18.07,0,0,1-14.938-7.9.856.856,0,0,1,0-.957,18.181,18.181,0,0,1,9.265-6.974l.077-.026-.021-.078a17.951,17.951,0,0,1-.348-8.137.846.846,0,0,1,.678-.678,18.287,18.287,0,0,1,3.391-.316,19.109,19.109,0,0,1,8.556,2.042l.091.046.029-.1a18.136,18.136,0,0,1,7.11-9.75.847.847,0,0,1,.479-.147.847.847,0,0,1,.479.147,18.159,18.159,0,0,1,7.034,9.511l.03.1.089-.045a17.2,17.2,0,0,1,7.816-1.877,17.5,17.5,0,0,1,3.245.306.844.844,0,0,1,.677.676,17.961,17.961,0,0,1-.319,8.017L-139.5-28l.08.023a18.1,18.1,0,0,1,9.931,7.178.855.855,0,0,1,0,.957A18.067,18.067,0,0,1-144.429-11.939Zm-33.606-14.226a16.291,16.291,0,0,0-8.021,5.793l-.038.051.038.051A16.443,16.443,0,0,0-172.9-13.638a16.227,16.227,0,0,0,6.833-1.5l.208-.1-.22-.063a18.117,18.117,0,0,1-7.811-4.57,17.937,17.937,0,0,1-4.039-6.252l-.029-.075Zm37.98-.15a17.929,17.929,0,0,1-4.082,6.366,18.128,18.128,0,0,1-7.46,4.483l-.205.063.193.095a16.186,16.186,0,0,0,7.18,1.67,16.443,16.443,0,0,0,13.157-6.632l.037-.051-.037-.051a16.207,16.207,0,0,0-8.681-5.994l-.075-.022Zm-34.713-9a16.718,16.718,0,0,0-2.463.182l-.062.009-.009.062a16.438,16.438,0,0,0,4.614,13.994,16.622,16.622,0,0,0,11.681,4.777h.221l-.164-.148a18.1,18.1,0,0,1-5.963-13.393,17.994,17.994,0,0,1,.344-3.335l.011-.061-.055-.029A17.272,17.272,0,0,0-174.768-35.312Zm31.6-.082A15.225,15.225,0,0,0-150.5-33.52l-.056.03.013.062a17.92,17.92,0,0,1,.393,3.6A18.11,18.11,0,0,1-156-16.542l-.173.159.235-.012a15.9,15.9,0,0,0,10.6-4.756,16.446,16.446,0,0,0,4.615-13.993l-.009-.062-.062-.009A16.035,16.035,0,0,0-143.169-35.394Zm-21.864,3.259a16.359,16.359,0,0,0-.181,2.307,16.442,16.442,0,0,0,6.632,13.156l.051.037.051-.038a16.443,16.443,0,0,0,6.633-13.156,16.13,16.13,0,0,0-.227-2.565l-.022-.136-.112.08a17.544,17.544,0,0,0-2.213,1.848,16.267,16.267,0,0,0-3.461,5.1.848.848,0,0,1-.778.513.85.85,0,0,1-.781-.508,16.274,16.274,0,0,0-3.428-5.018,15.445,15.445,0,0,0-2.03-1.677l-.114-.081Zm6.451-10.85a16.44,16.44,0,0,0-6.038,8.868l-.016.06.053.034a17.306,17.306,0,0,1,2.916,2.307,18.1,18.1,0,0,1,2.925,3.827l.074.131.074-.131a18.092,18.092,0,0,1,2.972-3.913,18.5,18.5,0,0,1,3.073-2.463l.053-.034-.017-.061a16.462,16.462,0,0,0-5.966-8.624l-.051-.038Z" transform="translate(187.984 44.914)" fill="#fff" fill-rule="evenodd"/>
</svg>
