<svg xmlns="http://www.w3.org/2000/svg" width="32.077" height="50.768" viewBox="0 0 32.077 50.768">
  <g id="Group_195" data-name="Group 195" transform="translate(-607.644 -286)">
    <g id="Group_194" data-name="Group 194" transform="translate(1623.745 209.125)">
      <rect id="Rectangle_221" data-name="Rectangle 221" width="15.863" height="1.995" transform="translate(-999.065 111.542) rotate(90)" fill="#353535"/>
      <rect id="Rectangle_222" data-name="Rectangle 222" width="0.477" height="14.345" transform="translate(-1000.301 112.301)" fill="#353535"/>
      <rect id="Rectangle_223" data-name="Rectangle 223" width="1.995" height="13.19" transform="translate(-993.468 125.648) rotate(90)" fill="#353535"/>
      <rect id="Rectangle_224" data-name="Rectangle 224" width="0.477" height="11.672" transform="translate(-1005.898 126.884) rotate(-90)" fill="#353535"/>
      <path id="Path_601" data-name="Path 601" d="M-1000.062,113.507a15.975,15.975,0,0,1-10.987-4.355,15.972,15.972,0,0,1-5.016-10.626c-.023-.3-.035-.658-.035-1.057,0-2.532,5.393-18.292,6.008-20.081l.176-.512h19.709l.176.512c.615,1.789,6.008,17.549,6.008,20.081,0,.4-.012.755-.036,1.057a15.973,15.973,0,0,1-5.016,10.626A15.974,15.974,0,0,1-1000.062,113.507Zm-8.373-34.637c-2.345,6.788-5.67,16.985-5.67,18.6a13.952,13.952,0,0,0,4.113,9.93,13.951,13.951,0,0,0,9.93,4.113,13.951,13.951,0,0,0,9.93-4.113,13.951,13.951,0,0,0,4.113-9.93c0-1.613-3.325-11.81-5.67-18.6Z" fill="#353535"/>
      <path id="Path_602" data-name="Path 602" d="M-983,85.378h-9.313v.477h8.913s5.889,16.974,5.889,19.357h0a14.7,14.7,0,0,1-4.335,10.467,14.705,14.705,0,0,1-10.467,4.335h0a14.706,14.706,0,0,1-10.467-4.335,14.705,14.705,0,0,1-4.335-10.467h0c0-2.383,5.889-19.357,5.889-19.357h8.914v-.477h-9.313s-5.967,17.356-5.967,19.834c0,.4.013.735.034,1a15.28,15.28,0,0,0,15.246,14.276,15.279,15.279,0,0,0,15.246-14.276c.021-.268.034-.6.034-1C-977.038,102.734-983,85.378-983,85.378Z" transform="translate(-7.745 -7.744)" fill="#353535"/>
    </g>
  </g>
</svg>
