<svg xmlns="http://www.w3.org/2000/svg" width="36.282" height="36.282" viewBox="0 0 36.282 36.282">
    <g id="Group_292" data-name="Group 292" transform="translate(-151.809 77.129)">
        <path id="Path_725" data-name="Path 725" d="M162.807-40.847a11.011,11.011,0,0,1-11-11,11.011,11.011,0,0,1,11-11,10.733,10.733,0,0,1,4.451,1.136l.142.064,14.532-14.531a3.279,3.279,0,0,1,2.3-.954H187.3a.8.8,0,0,1,.794.794v6.123a.8.8,0,0,1-.794.794h-3.287v3.287a.8.8,0,0,1-.794.794h-3.288v3.287a.8.8,0,0,1-.794.794h-1.712l-4.816,4.816.064.142a10.715,10.715,0,0,1,1.136,4.451A11.011,11.011,0,0,1,162.807-40.847Zm0-20.408a9.421,9.421,0,0,0-9.41,9.41,9.42,9.42,0,0,0,9.41,9.41,9.42,9.42,0,0,0,9.41-9.41,9.441,9.441,0,0,0-1.147-4.5.8.8,0,0,1,.136-.94l5.325-5.325a.79.79,0,0,1,.562-.233h1.247v-3.287a.8.8,0,0,1,.794-.794h3.287v-3.287a.8.8,0,0,1,.794-.794H186.5v-4.534h-2.267a1.658,1.658,0,0,0-1.18.489L168.247-60.244a.789.789,0,0,1-.562.233h0a.793.793,0,0,1-.378-.1,9.449,9.449,0,0,0-4.5-1.147Z"/>
        <path id="Path_726" data-name="Path 726" d="M170.5-16.723a5.9,5.9,0,0,1-5.9-5.9,5.9,5.9,0,0,1,5.9-5.9,5.9,5.9,0,0,1,5.9,5.9A5.9,5.9,0,0,1,170.5-16.723Zm0-10.2a4.313,4.313,0,0,0-4.308,4.308,4.313,4.313,0,0,0,4.308,4.308,4.312,4.312,0,0,0,4.308-4.308A4.313,4.313,0,0,0,170.5-26.928Z" transform="translate(-7.691 -29.226)"/>
    </g>
</svg>
