<svg xmlns="http://www.w3.org/2000/svg" width="47.114" height="41.502" viewBox="0 0 47.114 41.502">
  <g id="Group_219" data-name="Group 219" transform="translate(-9.329 -10.124)">
    <g id="Group_31" data-name="Group 31" transform="translate(9.329 10.124)">
      <path id="Path_541" data-name="Path 541" d="M13.116,18h3.313a1,1,0,1,0,0-2H13.116a1,1,0,1,0,0,2Z" transform="translate(-2.281 4.743)" fill="#353535"/>
      <path id="Path_542" data-name="Path 542" d="M21.75,15.994H18.434a1.007,1.007,0,1,0,0,2.013H21.75a1.007,1.007,0,0,0,0-2.013Z" transform="translate(11.128 4.736)" fill="#353535"/>
      <path id="Path_543" data-name="Path 543" d="M13.116,21.4h3.313a1,1,0,1,0,0-2H13.116a1,1,0,1,0,0,2Z" transform="translate(-2.281 13.355)" fill="#353535"/>
      <path id="Path_544" data-name="Path 544" d="M53.677,25.811h-.237V25.8H38.255V17.081a4.962,4.962,0,1,1,9.923,0,.985.985,0,1,0,1.971,0A6.94,6.94,0,0,0,36.274,16.8a.123.123,0,0,0-.035.071V25.8H29.494a.949.949,0,0,0,.283-.636,1.025,1.025,0,0,0-1.024-1.024H25.468a1.025,1.025,0,0,0-1.024,1.024,1.151,1.151,0,0,0,.283.636H18.9a.949.949,0,0,0,.283-.636,1.025,1.025,0,0,0-1.024-1.024H14.873a1.025,1.025,0,0,0-1.024,1.024,1.151,1.151,0,0,0,.283.636H12.084a2.758,2.758,0,0,0-2.755,2.755V48.864a2.758,2.758,0,0,0,2.755,2.755h30.35v.007H53.677a2.77,2.77,0,0,0,2.765-2.769V28.58A2.772,2.772,0,0,0,53.677,25.811ZM32.99,49.641H12.084a.787.787,0,0,1-.777-.78V39.714H32.99Zm0-11.936H11.307V28.562a.784.784,0,0,1,.777-.777H32.99ZM54.444,48.857a.78.78,0,0,1-.766.766H42.433v.021H35.006V27.785H53.681a.776.776,0,0,1,.766.763v20.31Z" transform="translate(-9.329 -10.124)" fill="#353535"/>
    </g>
  </g>
</svg>
