<svg xmlns="http://www.w3.org/2000/svg" xmlns:xlink="http://www.w3.org/1999/xlink" width="1000" zoomAndPan="magnify" viewBox="0 0 750 749.999995" height="1000" preserveAspectRatio="xMidYMid meet" version="1.0"><path fill="#38595b" d="M 368.027344 712.078125 C 373.59375 719.492188 384.726562 721.347656 392.140625 715.78125 C 393.996094 713.933594 395.851562 713.933594 395.851562 712.078125 L 575.789062 463.507812 C 657.410156 339.226562 649.988281 211.230469 557.238281 116.628906 C 460.78125 20.167969 304.960938 20.167969 208.503906 116.628906 C 113.898438 211.230469 106.476562 346.640625 189.953125 463.507812 Z M 230.761719 140.742188 C 314.238281 57.265625 447.792969 57.265625 531.269531 140.742188 C 612.890625 222.355469 618.457031 333.660156 546.105469 443.105469 L 381.015625 671.261719 L 215.925781 443.105469 C 143.582031 341.082031 149.140625 222.355469 230.761719 140.742188 Z M 230.761719 140.742188 " fill-opacity="1" fill-rule="nonzero"/><path fill="#38595b" d="M 381.015625 393.019531 C 436.667969 393.019531 483.039062 346.640625 483.039062 290.996094 C 483.039062 235.34375 436.667969 188.972656 381.015625 188.972656 C 325.363281 188.972656 278.992188 235.34375 278.992188 290.996094 C 278.992188 318.820312 290.125 344.785156 308.671875 363.339844 C 329.074219 381.886719 355.046875 393.019531 381.015625 393.019531 Z M 332.785156 242.765625 C 358.757812 216.796875 403.273438 216.796875 429.246094 242.765625 C 455.214844 268.738281 455.214844 313.253906 429.246094 339.226562 C 403.273438 365.195312 358.757812 365.195312 332.785156 339.226562 C 306.816406 311.398438 306.816406 268.738281 332.785156 242.765625 Z M 332.785156 242.765625 " fill-opacity="1" fill-rule="nonzero"/></svg>