<svg xmlns="http://www.w3.org/2000/svg" width="42.194" height="43.556" viewBox="0 0 42.194 43.556">
    <path id="Path_622" data-name="Path 622" d="M42.886,8.757H8.04a1.58,1.58,0,0,1-1.58-1.58h0V3.58A1.58,1.58,0,0,1,8.04,2H42.886a1.58,1.58,0,0,1,1.58,1.58h0v3.6a1.58,1.58,0,0,1-1.58,1.58ZM8.04,3.244A.336.336,0,0,0,7.7,3.58v3.6a.336.336,0,0,0,.336.336H42.886a.336.336,0,0,0,.336-.336h0V3.58a.336.336,0,0,0-.336-.336H8.04Z" transform="translate(-4.404 -2)" fill="#fff"/>
    <path id="Path_623" data-name="Path 623" d="M37.649,21.291a5.861,5.861,0,0,1-3.609-1.132,4.722,4.722,0,0,0-2.981-.946,5.2,5.2,0,0,0-3.111.952,6.675,6.675,0,0,1-7.411,0,5.151,5.151,0,0,0-3.111-.958,4.71,4.71,0,0,0-3.005.946,5.861,5.861,0,0,1-3.609,1.132,6.887,6.887,0,0,1-3.8-1.114,5.733,5.733,0,0,0-3.236-.964.622.622,0,0,1-.523-.964l4.7-7.112a.623.623,0,0,1,.516-.28H40.026a.623.623,0,0,1,.516.28l4.7,7.112a.622.622,0,0,1-.523.964,5.733,5.733,0,0,0-3.236.964A6.9,6.9,0,0,1,37.649,21.291Zm-6.589-3.323a5.974,5.974,0,0,1,3.677,1.145,4.617,4.617,0,0,0,2.937.933,5.6,5.6,0,0,0,3.186-.952A7.31,7.31,0,0,1,43.6,18.043L39.677,12.1H8.777L4.851,18.043a7.31,7.31,0,0,1,2.744,1.052,5.6,5.6,0,0,0,3.18.952,4.617,4.617,0,0,0,2.937-.933,5.961,5.961,0,0,1,3.659-1.145A6.444,6.444,0,0,1,21.1,19.1a5.427,5.427,0,0,0,6.123,0A6.484,6.484,0,0,1,31.059,17.968Z" transform="translate(-3.155 -5.343)" fill="#fff"/>
    <path id="Path_624" data-name="Path 624" d="M39.141,53.659H12.858A4.978,4.978,0,0,1,7.88,48.682V24.072a.622.622,0,0,1,1.244,0V48.682a3.733,3.733,0,0,0,3.733,3.733H39.141a3.733,3.733,0,0,0,3.733-3.733V24.072a.622.622,0,0,1,1.244,0V48.682A4.978,4.978,0,0,1,39.141,53.659Z" transform="translate(-4.94 -10.103)" fill="#fff"/>
    <path id="Path_625" data-name="Path 625" d="M41.267,51.123H17.622A.622.622,0,0,1,17,50.5V37.122a.622.622,0,0,1,.622-.622H41.267a.622.622,0,0,1,.622.622V50.5A.622.622,0,0,1,41.267,51.123ZM18.244,49.878h22.4V37.744h-22.4Z" transform="translate(-8.385 -15.033)" fill="#fff"/>
</svg>
