<svg xmlns="http://www.w3.org/2000/svg" width="60.126" height="36.63" viewBox="0 0 60.126 36.63">
    <g id="Group_290" data-name="Group 290" transform="translate(-15.156 -26.375)">
        <path id="Path_639" data-name="Path 639" d="M74.506,61.454H71.052l-18.595-34.4a.807.807,0,0,0-1.364,0L44.461,39.321h0l-5.019,9.286L33.607,39.8a.8.8,0,0,0-1.126-.167.794.794,0,0,0-.167.167l-4.071,6.143h0L17.966,61.454H15.931a.775.775,0,1,0,0,1.55H74.506a.775.775,0,0,0,0-1.55Zm-17.4-22.539H53.69l-3.818-1.656a.77.77,0,0,0-.59-.012l-2.453.954,4.946-9.15ZM35.025,44.747l-2.23,1.287-2.558-.29,2.725-4.111ZM29.275,47.2l3.6.408a.83.83,0,0,0,.088,0,.772.772,0,0,0,.388-.1l2.534-1.463,2.724,4.111L32.5,61.454H19.826Zm4.986,14.258,5.931-10.973v0l5.5-10.17,3.857-1.5L53.22,40.4a.782.782,0,0,0,.309.064h4.416L69.289,61.454ZM47.365,47.5l-5.3,10.079a.775.775,0,1,1-1.372-.722l5.3-10.079a.775.775,0,1,1,1.372.722ZM29.539,54.483l-3.6,5.512a.775.775,0,1,1-1.3-.846l0,0,3.6-5.512a.775.775,0,0,1,1.3.848ZM37.249,36.5a5.063,5.063,0,1,0-5.063-5.064h0A5.069,5.069,0,0,0,37.249,36.5Zm0-8.576a3.513,3.513,0,1,1-3.513,3.513h0A3.517,3.517,0,0,1,37.249,27.925Z"/>
    </g>
</svg>
