<svg xmlns="http://www.w3.org/2000/svg" width="65.736" height="40.048" viewBox="0 0 65.736 40.048">
    <g id="Group_51" data-name="Group 51" transform="translate(-15.156 -26.375)">
        <path id="Path_639" data-name="Path 639" d="M80.045,64.728H76.268L55.938,27.116a.882.882,0,0,0-1.492,0L47.2,40.529h0L41.709,50.682l-6.38-9.628a.88.88,0,0,0-1.231-.183.868.868,0,0,0-.182.183L29.466,47.77h0L18.228,64.728H16a.848.848,0,1,0,0,1.7H80.045a.848.848,0,0,0,0-1.7ZM61.021,40.085H57.285l-4.174-1.81a.842.842,0,0,0-.645-.013l-2.682,1.043,5.408-10ZM36.878,46.462,34.44,47.869l-2.8-.317,2.979-4.495Zm-6.286,2.677,3.934.446a.907.907,0,0,0,.1.005.844.844,0,0,0,.424-.114l2.771-1.6L40.8,52.372,34.117,64.728H20.262Zm5.452,15.589,6.485-12v0l6.01-11.118,4.217-1.642,4.016,1.743a.855.855,0,0,0,.337.069h4.828l12.4,22.947ZM50.371,49.467,44.58,60.486a.848.848,0,1,1-1.5-.789l5.791-11.019a.848.848,0,1,1,1.5.789Zm-19.49,7.638L26.94,63.132a.847.847,0,1,1-1.421-.925l0,0,3.941-6.026a.847.847,0,0,1,1.419.927ZM39.31,37.447a5.536,5.536,0,1,0-5.535-5.536h0A5.542,5.542,0,0,0,39.31,37.447Zm0-9.377a3.841,3.841,0,1,1-3.84,3.841h0A3.845,3.845,0,0,1,39.31,28.07Z" fill="#fff"/>
    </g>
</svg>
