<svg xmlns="http://www.w3.org/2000/svg" width="19.755" height="31.5" viewBox="0 0 19.755 31.5">
  <path id="Path_956" data-name="Path 956" d="M27.518,40V8.5h9.855A11.041,11.041,0,0,1,43.29,9.861a7.659,7.659,0,0,1,3.071,3.487,11.112,11.112,0,0,1,.911,4.421,10.36,10.36,0,0,1-.529,3.206,8.654,8.654,0,0,1-1.7,2.993,8.442,8.442,0,0,1-3.06,2.194,11.421,11.421,0,0,1-4.612.833H29.138V40Zm1.62-14.625h8.235a8.912,8.912,0,0,0,4.916-1.181,6.764,6.764,0,0,0,2.588-2.936,8.566,8.566,0,0,0,.776-3.487,9.387,9.387,0,0,0-.731-3.645,6.179,6.179,0,0,0-2.531-2.88,9.456,9.456,0,0,0-5.017-1.125H29.138Z" transform="translate(-27.518 -8.5)" fill="#333"/>
</svg>
