<svg xmlns="http://www.w3.org/2000/svg" xmlns:xlink="http://www.w3.org/1999/xlink" width="1000" zoomAndPan="magnify" viewBox="0 0 750 749.999995" height="1000" preserveAspectRatio="xMidYMid meet" version="1.0"><defs><clipPath id="5c6ac0c561"><path d="M 55.84375 257.972656 L 191.730469 257.972656 L 191.730469 391.253906 L 55.84375 391.253906 Z M 55.84375 257.972656 " clip-rule="nonzero"/></clipPath><clipPath id="0bfaae888b"><path d="M 123.644531 257.972656 C 86.199219 257.972656 55.84375 287.808594 55.84375 324.613281 C 55.84375 361.417969 86.199219 391.253906 123.644531 391.253906 C 161.089844 391.253906 191.449219 361.417969 191.449219 324.613281 C 191.449219 287.808594 161.089844 257.972656 123.644531 257.972656 Z M 123.644531 257.972656 " clip-rule="nonzero"/></clipPath><clipPath id="c929fdcd3a"><path d="M 191.449219 109.753906 L 327 109.753906 L 327 243.039062 L 191.449219 243.039062 Z M 191.449219 109.753906 " clip-rule="nonzero"/></clipPath><clipPath id="0faaae4f71"><path d="M 259.25 109.753906 C 221.804688 109.753906 191.449219 139.589844 191.449219 176.394531 C 191.449219 213.199219 221.804688 243.039062 259.25 243.039062 C 296.695312 243.039062 327.050781 213.199219 327.050781 176.394531 C 327.050781 139.589844 296.695312 109.753906 259.25 109.753906 Z M 259.25 109.753906 " clip-rule="nonzero"/></clipPath><clipPath id="0316a684ad"><path d="M 395.242188 124.691406 L 531 124.691406 L 531 257.972656 L 395.242188 257.972656 Z M 395.242188 124.691406 " clip-rule="nonzero"/></clipPath><clipPath id="d08a8374aa"><path d="M 463.042969 124.691406 C 425.597656 124.691406 395.242188 154.527344 395.242188 191.332031 C 395.242188 228.136719 425.597656 257.972656 463.042969 257.972656 C 500.492188 257.972656 530.847656 228.136719 530.847656 191.332031 C 530.847656 154.527344 500.492188 124.691406 463.042969 124.691406 Z M 463.042969 124.691406 " clip-rule="nonzero"/></clipPath><clipPath id="095e58fb9b"><path d="M 562.425781 257.972656 L 698 257.972656 L 698 391.253906 L 562.425781 391.253906 Z M 562.425781 257.972656 " clip-rule="nonzero"/></clipPath><clipPath id="6209895028"><path d="M 630.226562 257.972656 C 592.78125 257.972656 562.425781 287.808594 562.425781 324.613281 C 562.425781 361.417969 592.78125 391.253906 630.226562 391.253906 C 667.671875 391.253906 698.03125 361.417969 698.03125 324.613281 C 698.03125 287.808594 667.671875 257.972656 630.226562 257.972656 Z M 630.226562 257.972656 " clip-rule="nonzero"/></clipPath><clipPath id="a432c38350"><path d="M 144.542969 428.542969 L 341.054688 428.542969 L 341.054688 631.96875 L 144.542969 631.96875 Z M 144.542969 428.542969 " clip-rule="nonzero"/></clipPath><clipPath id="40d774d4a0"><path d="M 242.796875 428.542969 C 188.53125 428.542969 144.542969 473.976562 144.542969 530.015625 C 144.542969 586.054688 188.53125 631.484375 242.796875 631.484375 C 297.0625 631.484375 341.054688 586.054688 341.054688 530.015625 C 341.054688 473.976562 297.0625 428.542969 242.796875 428.542969 Z M 242.796875 428.542969 " clip-rule="nonzero"/></clipPath><clipPath id="4836fe5354"><path d="M 378.75 430.042969 L 589.617188 430.042969 L 589.617188 632.984375 L 378.75 632.984375 Z M 378.75 430.042969 " clip-rule="nonzero"/></clipPath><clipPath id="74d24d4d29"><path d="M 484.054688 430.042969 C 425.894531 430.042969 378.75 475.476562 378.75 531.515625 C 378.75 587.554688 425.894531 632.984375 484.054688 632.984375 C 542.210938 632.984375 589.359375 587.554688 589.359375 531.515625 C 589.359375 475.476562 542.210938 430.042969 484.054688 430.042969 Z M 484.054688 430.042969 " clip-rule="nonzero"/></clipPath><clipPath id="cd2b272259"><path d="M 191.449219 351.78125 L 544.78125 351.78125 L 544.78125 584.90625 L 191.449219 584.90625 Z M 191.449219 351.78125 " clip-rule="nonzero"/></clipPath><clipPath id="4080763046"><path d="M 368.054688 351.78125 C 270.515625 351.78125 191.449219 403.96875 191.449219 468.34375 C 191.449219 532.71875 270.515625 584.90625 368.054688 584.90625 C 465.59375 584.90625 544.664062 532.71875 544.664062 468.34375 C 544.664062 403.96875 465.59375 351.78125 368.054688 351.78125 Z M 368.054688 351.78125 " clip-rule="nonzero"/></clipPath></defs><path fill="#38595b" d="M 414.582031 350.125 C 360.574219 338.75 303.71875 347.277344 253.972656 372.863281 C 131.730469 435.402344 137.421875 566.171875 138.839844 571.855469 C 141.6875 605.964844 153.054688 630.128906 174.375 641.496094 C 212.753906 662.820312 265.339844 634.394531 266.765625 634.394531 C 329.304688 610.226562 343.515625 594.597656 370.519531 598.859375 C 438.742188 610.226562 482.804688 655.714844 526.867188 650.027344 C 640.578125 635.8125 607.882812 387.078125 414.582031 350.125 Z M 488.488281 611.652344 C 457.21875 594.597656 397.527344 567.589844 361.992188 567.589844 C 332.140625 567.589844 317.929688 580.382812 253.972656 605.964844 C 242.597656 611.652344 208.484375 624.445312 188.585938 613.074219 C 175.792969 605.964844 168.683594 590.332031 167.265625 566.164062 C 167.265625 563.328125 161.582031 449.617188 268.183594 395.605469 C 312.246094 372.863281 361.992188 365.753906 410.320312 375.710938 C 596.515625 414.082031 602.199219 674.191406 488.488281 611.652344 Z M 488.488281 611.652344 " fill-opacity="1" fill-rule="nonzero"/><path fill="#38595b" d="M 120.363281 409.816406 C 76.300781 409.816406 39.34375 374.285156 39.34375 328.800781 C 39.34375 284.738281 74.875 247.785156 120.363281 247.785156 C 164.425781 247.785156 201.378906 283.320312 201.378906 328.800781 C 199.960938 372.863281 164.425781 409.816406 120.363281 409.816406 Z M 120.363281 276.210938 C 91.933594 276.210938 67.773438 298.953125 67.773438 328.800781 C 67.773438 358.652344 90.515625 381.394531 120.363281 381.394531 C 148.789062 381.394531 172.957031 358.652344 172.957031 328.800781 C 171.53125 300.378906 148.789062 276.210938 120.363281 276.210938 Z M 120.363281 276.210938 " fill-opacity="1" fill-rule="nonzero"/><path fill="#38595b" d="M 630.625 409.816406 C 586.5625 409.816406 549.609375 374.285156 549.609375 328.800781 C 549.609375 284.738281 585.144531 247.785156 630.625 247.785156 C 674.6875 247.785156 711.648438 283.320312 711.648438 328.800781 C 710.222656 372.863281 674.6875 409.816406 630.625 409.816406 Z M 630.625 276.210938 C 602.199219 276.210938 578.035156 298.953125 578.035156 328.800781 C 578.035156 357.234375 600.78125 381.394531 630.625 381.394531 C 659.054688 381.394531 683.214844 358.652344 683.214844 328.800781 C 681.796875 300.378906 659.054688 276.210938 630.625 276.210938 Z M 630.625 276.210938 " fill-opacity="1" fill-rule="nonzero"/><path fill="#38595b" d="M 467.175781 262 C 423.113281 262 386.152344 226.464844 386.152344 180.984375 C 386.152344 136.921875 421.6875 99.96875 467.175781 99.96875 C 512.65625 99.96875 548.191406 135.5 548.191406 180.984375 C 546.769531 225.046875 511.238281 262 467.175781 262 Z M 467.175781 129.8125 C 438.742188 129.8125 414.582031 152.558594 414.582031 182.402344 C 414.582031 212.253906 437.324219 234.992188 467.175781 234.992188 C 497.019531 234.992188 519.757812 212.253906 519.757812 182.402344 C 518.339844 152.558594 495.597656 129.8125 467.175781 129.8125 Z M 467.175781 129.8125 " fill-opacity="1" fill-rule="nonzero"/><path fill="#38595b" d="M 265.339844 262 C 221.277344 262 184.324219 226.464844 184.324219 180.984375 C 184.324219 136.921875 219.855469 99.96875 265.339844 99.96875 C 310.828125 99.96875 346.359375 135.5 346.359375 180.984375 C 344.933594 225.046875 309.402344 262 265.339844 262 Z M 265.339844 129.8125 C 236.914062 129.8125 212.746094 152.558594 212.746094 182.402344 C 212.746094 212.253906 235.496094 234.992188 265.339844 234.992188 C 293.769531 234.992188 317.929688 212.253906 317.929688 182.402344 C 316.511719 152.558594 293.769531 129.8125 265.339844 129.8125 Z M 265.339844 129.8125 " fill-opacity="1" fill-rule="nonzero"/><g clip-path="url(#5c6ac0c561)"><g clip-path="url(#0bfaae888b)"><path fill="#38595b" d="M 55.84375 257.972656 L 191.207031 257.972656 L 191.207031 391.253906 L 55.84375 391.253906 Z M 55.84375 257.972656 " fill-opacity="1" fill-rule="nonzero"/></g></g><g clip-path="url(#c929fdcd3a)"><g clip-path="url(#0faaae4f71)"><path fill="#38595b" d="M 191.449219 109.753906 L 326.8125 109.753906 L 326.8125 243.039062 L 191.449219 243.039062 Z M 191.449219 109.753906 " fill-opacity="1" fill-rule="nonzero"/></g></g><g clip-path="url(#0316a684ad)"><g clip-path="url(#d08a8374aa)"><path fill="#38595b" d="M 395.242188 124.691406 L 530.605469 124.691406 L 530.605469 257.972656 L 395.242188 257.972656 Z M 395.242188 124.691406 " fill-opacity="1" fill-rule="nonzero"/></g></g><g clip-path="url(#095e58fb9b)"><g clip-path="url(#6209895028)"><path fill="#38595b" d="M 562.425781 257.972656 L 697.789062 257.972656 L 697.789062 391.253906 L 562.425781 391.253906 Z M 562.425781 257.972656 " fill-opacity="1" fill-rule="nonzero"/></g></g><g clip-path="url(#a432c38350)"><g clip-path="url(#40d774d4a0)"><path fill="#38595b" d="M 144.542969 428.542969 L 341.054688 428.542969 L 341.054688 631.199219 L 144.542969 631.199219 Z M 144.542969 428.542969 " fill-opacity="1" fill-rule="nonzero"/></g></g><g clip-path="url(#4836fe5354)"><g clip-path="url(#74d24d4d29)"><path fill="#38595b" d="M 378.75 430.042969 L 589.617188 430.042969 L 589.617188 632.984375 L 378.75 632.984375 Z M 378.75 430.042969 " fill-opacity="1" fill-rule="nonzero"/></g></g><g clip-path="url(#cd2b272259)"><g clip-path="url(#4080763046)"><path fill="#38595b" d="M 191.449219 351.78125 L 544.78125 351.78125 L 544.78125 584.90625 L 191.449219 584.90625 Z M 191.449219 351.78125 " fill-opacity="1" fill-rule="nonzero"/></g></g></svg>