<svg xmlns="http://www.w3.org/2000/svg" width="47.365" height="47.365" viewBox="0 0 47.365 47.365">
    <g id="Group_139" data-name="Group 139" transform="translate(-8 -8)">
        <path id="Path_529" data-name="Path 529" d="M53.392,34.974H28.722a.987.987,0,1,1,0-1.974H54.378a.987.987,0,0,1,.987.987v8.881A12.829,12.829,0,0,1,42.537,55.7H20.828A12.829,12.829,0,0,1,8,42.868V33.987A.987.987,0,0,1,8.987,33h7.894a.987.987,0,1,1,0,1.974H9.974v7.894A10.855,10.855,0,0,0,20.828,53.722H42.537A10.855,10.855,0,0,0,53.392,42.868Z" transform="translate(0 -0.331)" fill="#fff" fill-rule="evenodd"/>
        <path id="Path_530" data-name="Path 530" d="M29.815,30.987A.987.987,0,0,0,28.828,30H16.987a.987.987,0,0,0-.987.987v9.868a2.96,2.96,0,0,0,2.96,2.96h7.894a2.96,2.96,0,0,0,2.96-2.96Zm-1.974.987H17.974v8.881a.987.987,0,0,0,.987.987h7.894a.987.987,0,0,0,.987-.987Z" transform="translate(-0.106 -0.291)" fill="#fff" fill-rule="evenodd"/>
        <path id="Path_531" data-name="Path 531" d="M29.815,30.987A.987.987,0,0,0,28.828,30H16.987a.987.987,0,0,0-.987.987v9.868a2.96,2.96,0,0,0,2.96,2.96h7.894a2.96,2.96,0,0,0,2.96-2.96Zm-1.974.987H17.974v8.881a.987.987,0,0,0,.987.987h7.894a.987.987,0,0,0,.987-.987Z" transform="translate(-0.106 -0.291)" fill="#fff" fill-rule="evenodd"/>
        <path id="Path_532" data-name="Path 532" d="M39,11.947v0A3.945,3.945,0,0,1,42.945,8H48.87a3.945,3.945,0,0,1,3.945,3.945V33.656a.987.987,0,0,1-1.974,0V11.945A1.972,1.972,0,0,0,48.87,9.974H42.945a1.971,1.971,0,0,0-1.972,1.972v0a.987.987,0,1,1-1.974,0Z" transform="translate(-0.41)" fill="#fff" fill-rule="evenodd"/>
        <path id="Path_533" data-name="Path 533" d="M33,16.921a.987.987,0,0,0,.987.987H45.828a.987.987,0,0,0,.987-.987C46.815,13.7,43.768,11,39.907,11S33,13.7,33,16.921Zm11.688-.987a4.857,4.857,0,0,0-4.781-2.96,4.857,4.857,0,0,0-4.781,2.96Z" transform="translate(-0.331 -0.04)" fill="#fff" fill-rule="evenodd"/>
        <path id="Path_534" data-name="Path 534" d="M34.091,19.546,33.1,21.519a.986.986,0,0,0,1.764.882l.987-1.974a.986.986,0,0,0-1.764-.882Z" transform="translate(-0.331 -0.145)" fill="#fff" fill-rule="evenodd"/>
        <path id="Path_535" data-name="Path 535" d="M39,19.987V21.96a.987.987,0,1,0,1.974,0V19.987a.987.987,0,1,0-1.974,0Z" transform="translate(-0.41 -0.145)" fill="#fff" fill-rule="evenodd"/>
        <path id="Path_536" data-name="Path 536" d="M44.1,20.428l.987,1.974a.986.986,0,0,0,1.764-.882l-.987-1.974a.986.986,0,0,0-1.764.882Z" transform="translate(-0.476 -0.145)" fill="#fff" fill-rule="evenodd"/>
    </g>
</svg>
