<svg xmlns="http://www.w3.org/2000/svg" width="34.543" height="29.177" viewBox="0 0 34.543 29.177">
    <g id="Group_291" data-name="Group 291" transform="translate(-3.061 -3.73)">
        <path id="Path_723" data-name="Path 723" d="M21.5,3.79a.6.6,0,0,0-.612.055l-11.23,8.5H3.645a.585.585,0,0,0-.584.584V23.711a.584.584,0,0,0,.584.584H9.658l11.232,8.5a.594.594,0,0,0,.351.116.6.6,0,0,0,.259-.058.593.593,0,0,0,.325-.524V4.312A.581.581,0,0,0,21.5,3.79Zm-.843,1.7V31.152l-2.386-1.8-8.063-6.1a.563.563,0,0,0-.355-.12H4.231V13.515H9.855a.587.587,0,0,0,.351-.116Z" transform="translate(0 0)"/>
        <path id="Path_724" data-name="Path 724" d="M21.1,14.184l4-3.994a.581.581,0,0,0,.173-.411.575.575,0,0,0-.173-.413.593.593,0,0,0-.827,0l-3.994,3.991-4-3.991a.587.587,0,0,0-.415-.169h0a.581.581,0,0,0-.411.992l4,4-4,4a.586.586,0,0,0-.169.415.574.574,0,0,0,.169.409.615.615,0,0,0,.827,0l4-4,4,4a.581.581,0,0,0,.824,0,.593.593,0,0,0,.173-.413.575.575,0,0,0-.173-.413Z" transform="translate(12.337 4.177)"/>
    </g>
</svg>
