<svg xmlns="http://www.w3.org/2000/svg" width="30.083" height="37.604" viewBox="0 0 30.083 37.604">
    <g id="Group_231" data-name="Group 231" transform="translate(-4.4 -1.5)">
        <path id="Path_621" data-name="Path 621" d="M24.5,1.5H5.048a.645.645,0,0,0-.648.648V38.456a.645.645,0,0,0,.648.648H24.5a.654.654,0,0,0,.648-.648V23.786l9.142-9.152a.637.637,0,0,0,0-.917L29.517,8.937a.653.653,0,0,0-.921,0L25.147,12.39V2.148A.654.654,0,0,0,24.5,1.5ZM11.078,2.8H5.7V37.807H17.341V9.048a.648.648,0,0,1,1.3,0V37.807H23.85V23.518a.663.663,0,0,1,.182-.459l8.882-8.882L29.05,10.312l-4.1,4.1a.646.646,0,0,1-1.1-.458V2.8H12.375V20.3a.645.645,0,0,1-.648.648.654.654,0,0,1-.648-.648Zm0,24.782V33.76a.654.654,0,0,0,.648.648.645.645,0,0,0,.648-.648V27.579a.645.645,0,0,0-.648-.648A.654.654,0,0,0,11.078,27.579Z" transform="translate(0 0)" fill="#fff" fill-rule="evenodd"/>
    </g>
</svg>
