<svg xmlns="http://www.w3.org/2000/svg" width="22.778" height="47.545" viewBox="0 0 22.778 47.545">
  <g id="Group_395" data-name="Group 395" transform="translate(-16.212 42.98)">
    <path id="Path_551" data-name="Path 551" d="M26.376,4.205A11.311,11.311,0,0,1,18.323.87a11.315,11.315,0,0,1-3.336-8.054A11.378,11.378,0,0,1,16.5-12.851a11.469,11.469,0,0,1,3.648-3.865v-20.4a6.185,6.185,0,0,1,1.829-4.4,6.188,6.188,0,0,1,4.4-1.829,6.181,6.181,0,0,1,4.4,1.829,6.186,6.186,0,0,1,1.83,4.4v20.4a11.469,11.469,0,0,1,3.648,3.865,11.384,11.384,0,0,1,1.512,5.668A11.311,11.311,0,0,1,34.429.87,11.308,11.308,0,0,1,26.376,4.205Zm0-45.522a4.176,4.176,0,0,0-2.969,1.236,4.174,4.174,0,0,0-1.236,2.969v21.536l-.5.295a9.4,9.4,0,0,0-3.418,3.435A9.357,9.357,0,0,0,17.01-7.184,9.316,9.316,0,0,0,19.753-.56a9.313,9.313,0,0,0,6.624,2.743A9.305,9.305,0,0,0,33-.56a9.312,9.312,0,0,0,2.743-6.624A9.369,9.369,0,0,0,34.5-11.846a9.423,9.423,0,0,0-3.418-3.435l-.506-.294V-37.112a4.178,4.178,0,0,0-1.236-2.969A4.176,4.176,0,0,0,26.376-41.317Z" transform="translate(1.225 0.36)"/>
    <path id="Path_552" data-name="Path 552" d="M25.986-3.335a6.087,6.087,0,0,1-4.334-1.8,6.085,6.085,0,0,1-1.8-4.334,6.084,6.084,0,0,1,1.8-4.335,6.087,6.087,0,0,1,4.334-1.8,6.085,6.085,0,0,1,4.334,1.8,6.09,6.09,0,0,1,1.8,4.335,6.09,6.09,0,0,1-1.8,4.334A6.085,6.085,0,0,1,25.986-3.335Zm0-10.236a4.081,4.081,0,0,0-2.9,1.2,4.077,4.077,0,0,0-1.2,2.9,4.082,4.082,0,0,0,1.2,2.9,4.085,4.085,0,0,0,2.9,1.2,4.081,4.081,0,0,0,2.9-1.2,4.077,4.077,0,0,0,1.2-2.9,4.076,4.076,0,0,0-1.2-2.9A4.081,4.081,0,0,0,25.986-13.571Z" transform="translate(1.616 2.584)" />
    <path id="Path_553" data-name="Path 553" d="M25.606-11.752a1.013,1.013,0,0,1-1.012-1.012V-37.271a1.013,1.013,0,0,1,1.012-1.012,1.013,1.013,0,0,1,1.012,1.012v24.507A1.013,1.013,0,0,1,25.606-11.752Z" transform="translate(1.995 0.765)" />
  </g>
</svg>
