<svg xmlns="http://www.w3.org/2000/svg" width="41.551" height="53.533" viewBox="0 0 41.551 53.533">
  <path id="Path_555" data-name="Path 555" d="M26.547,53.569a.822.822,0,0,1-.855-.842V43.3A15.778,15.778,0,0,1,11.12,27.611V15.689A16.155,16.155,0,0,1,16.28,3.95,15.815,15.815,0,0,1,26.856.036c7.266,0,15.288,4.9,15.732,15.651v6.848c.137-.009.385-.014.755-.014l.577,0,.052-.011a8.709,8.709,0,0,1,8.7,8.7v7.807a8.73,8.73,0,0,1-8.561,8.7V52.64a.855.855,0,0,1-1.709,0V47.7a8.674,8.674,0,0,1-7.889-6.355A15.68,15.68,0,0,1,27.4,43.33v9.4A.822.822,0,0,1,26.547,53.569Zm20-19.245a.913.913,0,0,1,.8.516.812.812,0,0,1-.12.884L44.1,39.534l.012,6.485a7.019,7.019,0,0,0,6.851-6.989v-7.8a7,7,0,0,0-6.99-6.989c-.263-.024-.518-.036-.771-.036a7.053,7.053,0,0,0-7.3,7.026v7.806A6.994,6.994,0,0,0,42.4,46V42.183l-3.088-3.824a.816.816,0,0,1-.111-.885.914.914,0,0,1,.8-.51.819.819,0,0,1,.644.323L42.4,39.471v-5.63a.855.855,0,0,1,1.709,0v2.989l1.8-2.188A.825.825,0,0,1,46.55,34.323ZM32.4,20.895a.91.91,0,0,1,.8.513.816.816,0,0,1-.119.888L27.39,29.221l.012,12.4a13.96,13.96,0,0,0,6.811-2.078l-.006-.1c-.009-.138-.018-.277-.018-.416V31.228a8.665,8.665,0,0,1,6.691-8.458V15.695C40.6,8.977,36.092,1.745,26.854,1.745c-6.476,0-13.627,4.366-14.024,13.951V27.616A14.083,14.083,0,0,0,25.692,41.585V33.948l-5.62-6.978a.817.817,0,0,1-.111-.885.914.914,0,0,1,.8-.51.821.821,0,0,1,.645.323l4.287,5.338V19.371a.855.855,0,0,1,1.71,0v7.145l4.357-5.3A.825.825,0,0,1,32.4,20.895Z" transform="translate(-11.12 -0.036)"/>
</svg>
